%TF.GenerationSoftware,KiCad,Pcbnew,8.0.8*%
%TF.CreationDate,2025-02-13T13:38:45+00:00*%
%TF.ProjectId,hackaday-sao-m5stack-atoms3,6861636b-6164-4617-992d-73616f2d6d35,rev?*%
%TF.SameCoordinates,Original*%
%TF.FileFunction,Legend,Bot*%
%TF.FilePolarity,Positive*%
%FSLAX46Y46*%
G04 Gerber Fmt 4.6, Leading zero omitted, Abs format (unit mm)*
G04 Created by KiCad (PCBNEW 8.0.8) date 2025-02-13 13:38:45*
%MOMM*%
%LPD*%
G01*
G04 APERTURE LIST*
%ADD10C,0.150000*%
%ADD11C,0.250000*%
%ADD12C,0.260000*%
%ADD13C,0.120000*%
G04 APERTURE END LIST*
D10*
X222999999Y-77562295D02*
X222999999Y-76762295D01*
X222466666Y-76762295D02*
X222314285Y-76762295D01*
X222314285Y-76762295D02*
X222238095Y-76800390D01*
X222238095Y-76800390D02*
X222161904Y-76876580D01*
X222161904Y-76876580D02*
X222123809Y-77028961D01*
X222123809Y-77028961D02*
X222123809Y-77295628D01*
X222123809Y-77295628D02*
X222161904Y-77448009D01*
X222161904Y-77448009D02*
X222238095Y-77524200D01*
X222238095Y-77524200D02*
X222314285Y-77562295D01*
X222314285Y-77562295D02*
X222466666Y-77562295D01*
X222466666Y-77562295D02*
X222542857Y-77524200D01*
X222542857Y-77524200D02*
X222619047Y-77448009D01*
X222619047Y-77448009D02*
X222657143Y-77295628D01*
X222657143Y-77295628D02*
X222657143Y-77028961D01*
X222657143Y-77028961D02*
X222619047Y-76876580D01*
X222619047Y-76876580D02*
X222542857Y-76800390D01*
X222542857Y-76800390D02*
X222466666Y-76762295D01*
X221361905Y-77562295D02*
X221819048Y-77562295D01*
X221590476Y-77562295D02*
X221590476Y-76762295D01*
X221590476Y-76762295D02*
X221666667Y-76876580D01*
X221666667Y-76876580D02*
X221742857Y-76952771D01*
X221742857Y-76952771D02*
X221819048Y-76990866D01*
D11*
X207821728Y-77928733D02*
X207862134Y-77807515D01*
X207862134Y-77807515D02*
X207983352Y-77686296D01*
X207983352Y-77686296D02*
X208144976Y-77605484D01*
X208144976Y-77605484D02*
X208306601Y-77605484D01*
X208306601Y-77605484D02*
X208427819Y-77645890D01*
X208427819Y-77645890D02*
X208629850Y-77767109D01*
X208629850Y-77767109D02*
X208751068Y-77888327D01*
X208751068Y-77888327D02*
X208872286Y-78090357D01*
X208872286Y-78090357D02*
X208912692Y-78211576D01*
X208912692Y-78211576D02*
X208912692Y-78373200D01*
X208912692Y-78373200D02*
X208831880Y-78534825D01*
X208831880Y-78534825D02*
X208751068Y-78615637D01*
X208751068Y-78615637D02*
X208589444Y-78696449D01*
X208589444Y-78696449D02*
X208508631Y-78696449D01*
X208508631Y-78696449D02*
X208225789Y-78413606D01*
X208225789Y-78413606D02*
X208387413Y-78251982D01*
X208225789Y-79140916D02*
X207377261Y-78292388D01*
X207377261Y-78292388D02*
X207740915Y-79625789D01*
X207740915Y-79625789D02*
X206892387Y-78777261D01*
X207336854Y-80029850D02*
X206488326Y-79181322D01*
X206488326Y-79181322D02*
X206286296Y-79383353D01*
X206286296Y-79383353D02*
X206205484Y-79544977D01*
X206205484Y-79544977D02*
X206205484Y-79706602D01*
X206205484Y-79706602D02*
X206245890Y-79827820D01*
X206245890Y-79827820D02*
X206367108Y-80029850D01*
X206367108Y-80029850D02*
X206488326Y-80151069D01*
X206488326Y-80151069D02*
X206690357Y-80272287D01*
X206690357Y-80272287D02*
X206811575Y-80312693D01*
X206811575Y-80312693D02*
X206973199Y-80312693D01*
X206973199Y-80312693D02*
X207134824Y-80231881D01*
X207134824Y-80231881D02*
X207336854Y-80029850D01*
D12*
G36*
X219845847Y-65284549D02*
G01*
X219870811Y-65355300D01*
X219882850Y-65371744D01*
X219942716Y-65417746D01*
X219952459Y-65421570D01*
X220025981Y-65424838D01*
X220033792Y-65422669D01*
X220092471Y-65378130D01*
X220103401Y-65361120D01*
X220128927Y-65289713D01*
X220130146Y-65279054D01*
X220136753Y-65204015D01*
X220138206Y-65189661D01*
X220146318Y-65115020D01*
X220148464Y-65100268D01*
X220159139Y-65026485D01*
X220161287Y-65010875D01*
X220173410Y-64932855D01*
X220186287Y-64855414D01*
X220199917Y-64778552D01*
X220207815Y-64736102D01*
X220222614Y-64659559D01*
X220238573Y-64582843D01*
X220255690Y-64505953D01*
X220265701Y-64463161D01*
X220294316Y-64535532D01*
X220322001Y-64607474D01*
X220348755Y-64678986D01*
X220353995Y-64693237D01*
X220380098Y-64764435D01*
X220406202Y-64836062D01*
X220432305Y-64908119D01*
X220437526Y-64922581D01*
X220463600Y-64992716D01*
X220489432Y-65063212D01*
X220501273Y-65095872D01*
X220528566Y-65165452D01*
X220559244Y-65233098D01*
X220574546Y-65263667D01*
X220621074Y-65309096D01*
X220690683Y-65328879D01*
X220760293Y-65318255D01*
X220808653Y-65275390D01*
X220846069Y-65203215D01*
X220883305Y-65131220D01*
X220920361Y-65059406D01*
X220957236Y-64987771D01*
X220993931Y-64916318D01*
X221006123Y-64892540D01*
X221042668Y-64821146D01*
X221079213Y-64749572D01*
X221115758Y-64677817D01*
X221152302Y-64605882D01*
X221188847Y-64533767D01*
X221201029Y-64509689D01*
X221207948Y-64583756D01*
X221214510Y-64658038D01*
X221220714Y-64732534D01*
X221221912Y-64747459D01*
X221227886Y-64821999D01*
X221234362Y-64896323D01*
X221241339Y-64970434D01*
X221242794Y-64985230D01*
X221246765Y-65059766D01*
X221247557Y-65076088D01*
X221252311Y-65149825D01*
X221255617Y-65183799D01*
X221264559Y-65256607D01*
X221269539Y-65288213D01*
X221291498Y-65358578D01*
X221295917Y-65365882D01*
X221350156Y-65418681D01*
X221369190Y-65426332D01*
X221443929Y-65431568D01*
X221457484Y-65428531D01*
X221521838Y-65389501D01*
X221529291Y-65380903D01*
X221555765Y-65309499D01*
X221556036Y-65289312D01*
X221551078Y-65212341D01*
X221543943Y-65136216D01*
X221539916Y-65101367D01*
X221530753Y-65025633D01*
X221522316Y-64949053D01*
X221518667Y-64913422D01*
X221511746Y-64836027D01*
X221504722Y-64758811D01*
X221497595Y-64681776D01*
X221490365Y-64604921D01*
X221483032Y-64528246D01*
X221480565Y-64502728D01*
X221473185Y-64426023D01*
X221465882Y-64348958D01*
X221458656Y-64271532D01*
X221451507Y-64193746D01*
X221444436Y-64115598D01*
X221442096Y-64089469D01*
X221429700Y-64014554D01*
X221417916Y-63978461D01*
X221369415Y-63922308D01*
X221333286Y-63906287D01*
X221279797Y-63899326D01*
X221228872Y-63915446D01*
X221173489Y-63965649D01*
X221148639Y-64004839D01*
X221115432Y-64070336D01*
X221094050Y-64112916D01*
X221058693Y-64180967D01*
X221024061Y-64249380D01*
X221008321Y-64281078D01*
X220974387Y-64349658D01*
X220940452Y-64417876D01*
X220924790Y-64449239D01*
X220892855Y-64515743D01*
X220857478Y-64588070D01*
X220821842Y-64659532D01*
X220785434Y-64730482D01*
X220748247Y-64801779D01*
X220713764Y-64866894D01*
X220687020Y-64797285D01*
X220660275Y-64727676D01*
X220632583Y-64659618D01*
X220612648Y-64606043D01*
X220587570Y-64537148D01*
X220567585Y-64484043D01*
X220539756Y-64415542D01*
X220511495Y-64343081D01*
X220506036Y-64328705D01*
X220478880Y-64256357D01*
X220452369Y-64182882D01*
X220448883Y-64173000D01*
X220422249Y-64101032D01*
X220404919Y-64048070D01*
X220373312Y-63978840D01*
X220337508Y-63934131D01*
X220274259Y-63893915D01*
X220267166Y-63892365D01*
X220194993Y-63898227D01*
X220134542Y-63941092D01*
X220097920Y-64005792D01*
X220096441Y-64010701D01*
X220077178Y-64083001D01*
X220063834Y-64131601D01*
X220044321Y-64202737D01*
X220031228Y-64252135D01*
X220012887Y-64324761D01*
X219995782Y-64396460D01*
X219985066Y-64443743D01*
X219968461Y-64520552D01*
X219953778Y-64592525D01*
X219945498Y-64634986D01*
X219929722Y-64714830D01*
X219914999Y-64794262D01*
X219901329Y-64873283D01*
X219888712Y-64951891D01*
X219876828Y-65030338D01*
X219865723Y-65109244D01*
X219855396Y-65188608D01*
X219845847Y-65268429D01*
X219845847Y-65284549D01*
G37*
G36*
X219586828Y-65272826D02*
G01*
X219624216Y-65207102D01*
X219628593Y-65187096D01*
X219622262Y-65112123D01*
X219618335Y-65102466D01*
X219571011Y-65046086D01*
X219561549Y-65039818D01*
X219489886Y-65019353D01*
X219466294Y-65020034D01*
X219407309Y-65042383D01*
X219352721Y-65073524D01*
X219283679Y-65101373D01*
X219272487Y-65104665D01*
X219197755Y-65113640D01*
X219187857Y-65112725D01*
X219115042Y-65100772D01*
X219092602Y-65094406D01*
X219026592Y-65059908D01*
X219009071Y-65045680D01*
X218962789Y-64986833D01*
X218946423Y-64948227D01*
X218930375Y-64875288D01*
X218946423Y-64799849D01*
X218995734Y-64741395D01*
X219041678Y-64713754D01*
X219112791Y-64691098D01*
X219183094Y-64682613D01*
X219258474Y-64684536D01*
X219327076Y-64697634D01*
X219340997Y-64711556D01*
X219354919Y-64722913D01*
X219417568Y-64757718D01*
X219484979Y-64756618D01*
X219543963Y-64724378D01*
X219582431Y-64662829D01*
X219596926Y-64589946D01*
X219597452Y-64564277D01*
X219597658Y-64488989D01*
X219598551Y-64465359D01*
X219600750Y-64394651D01*
X219602948Y-64321744D01*
X219602948Y-64290237D01*
X219604047Y-64239312D01*
X219606612Y-64187655D01*
X219607711Y-64151018D01*
X219636653Y-64099361D01*
X219641416Y-64040743D01*
X219622732Y-63985788D01*
X219579867Y-63941824D01*
X219508798Y-63915667D01*
X219490474Y-63914713D01*
X219414634Y-63914713D01*
X219394120Y-63914713D01*
X219320710Y-63914713D01*
X219306193Y-63914713D01*
X219229342Y-63914713D01*
X219181995Y-63914713D01*
X219105889Y-63914713D01*
X219063660Y-63914713D01*
X218995150Y-63914713D01*
X218919230Y-63909513D01*
X218895498Y-63906653D01*
X218820926Y-63914908D01*
X218809403Y-63919110D01*
X218746548Y-63959617D01*
X218743457Y-63963440D01*
X218714515Y-64031217D01*
X218723674Y-64103025D01*
X218772308Y-64161220D01*
X218774598Y-64162742D01*
X218845178Y-64192142D01*
X218887438Y-64196081D01*
X218962972Y-64196081D01*
X219004309Y-64196081D01*
X219078175Y-64196081D01*
X219156257Y-64196081D01*
X219161113Y-64196081D01*
X219239057Y-64196081D01*
X219312628Y-64196081D01*
X219317550Y-64196081D01*
X219316932Y-64272193D01*
X219316451Y-64297198D01*
X219314184Y-64372760D01*
X219313154Y-64398314D01*
X219239117Y-64387029D01*
X219199581Y-64384392D01*
X219124230Y-64386233D01*
X219085642Y-64391353D01*
X219013701Y-64409102D01*
X218967306Y-64426158D01*
X218897697Y-64459589D01*
X218855931Y-64484043D01*
X218797402Y-64528351D01*
X218748211Y-64582962D01*
X218742358Y-64591022D01*
X218702843Y-64653828D01*
X218671540Y-64720659D01*
X218667986Y-64729874D01*
X218646419Y-64804878D01*
X218638275Y-64878672D01*
X218639043Y-64912323D01*
X218649953Y-64988539D01*
X218673064Y-65061388D01*
X218681908Y-65081584D01*
X218719475Y-65148873D01*
X218767420Y-65210973D01*
X218783025Y-65227763D01*
X218837298Y-65277595D01*
X218901292Y-65322875D01*
X218925540Y-65336939D01*
X218996496Y-65369748D01*
X219071519Y-65393159D01*
X219093702Y-65398122D01*
X219166515Y-65407559D01*
X219245334Y-65404875D01*
X219273586Y-65400687D01*
X219352629Y-65382850D01*
X219429658Y-65357181D01*
X219504671Y-65323682D01*
X219568654Y-65287946D01*
X219577669Y-65282351D01*
X219586828Y-65272826D01*
G37*
G36*
X218392847Y-65182700D02*
G01*
X218404757Y-65108154D01*
X218403471Y-65094406D01*
X218377802Y-65025253D01*
X218373429Y-65019302D01*
X218312118Y-64975791D01*
X218309682Y-64974972D01*
X218236392Y-64977329D01*
X218221388Y-64983032D01*
X218158059Y-65024761D01*
X218145917Y-65037620D01*
X218089084Y-65084551D01*
X218070446Y-65094406D01*
X218001744Y-65123103D01*
X217947348Y-65138370D01*
X217873159Y-65152416D01*
X217859420Y-65153757D01*
X217786175Y-65156939D01*
X217768928Y-65157055D01*
X217708478Y-65138736D01*
X217652791Y-65099169D01*
X217610676Y-65037259D01*
X217607728Y-65026995D01*
X217605923Y-64952499D01*
X217607728Y-64944930D01*
X217639985Y-64879093D01*
X217646929Y-64870558D01*
X217707396Y-64828403D01*
X217717637Y-64825129D01*
X217788804Y-64803220D01*
X217865053Y-64785193D01*
X217880303Y-64782264D01*
X217955243Y-64766894D01*
X218028251Y-64748948D01*
X218037840Y-64746360D01*
X218107853Y-64722999D01*
X218174325Y-64692071D01*
X218182920Y-64687376D01*
X218244814Y-64643986D01*
X218298369Y-64590271D01*
X218309316Y-64577100D01*
X218348706Y-64515150D01*
X218351448Y-64507491D01*
X218370553Y-64436629D01*
X218371964Y-64430921D01*
X218379331Y-64352284D01*
X218368592Y-64278141D01*
X218354745Y-64242976D01*
X218317368Y-64178391D01*
X218272559Y-64119276D01*
X218258391Y-64103391D01*
X218204966Y-64052229D01*
X218141450Y-64006685D01*
X218090230Y-63979560D01*
X218018377Y-63951464D01*
X217944050Y-63932024D01*
X217893126Y-63923872D01*
X217815331Y-63918532D01*
X217736917Y-63921743D01*
X217684298Y-63928635D01*
X217606434Y-63945001D01*
X217531662Y-63968271D01*
X217483531Y-63987620D01*
X217424151Y-64034047D01*
X217412456Y-64059427D01*
X217406651Y-64134221D01*
X217411357Y-64154682D01*
X217450910Y-64219295D01*
X217464846Y-64231252D01*
X217534944Y-64254266D01*
X217557536Y-64252135D01*
X217630816Y-64235495D01*
X217661950Y-64227588D01*
X217735040Y-64210415D01*
X217759403Y-64205607D01*
X217834300Y-64202859D01*
X217839637Y-64203408D01*
X217913718Y-64216492D01*
X217920969Y-64218429D01*
X217991678Y-64241510D01*
X218040404Y-64268255D01*
X218076308Y-64310387D01*
X218096092Y-64368272D01*
X218065683Y-64433119D01*
X217998989Y-64467867D01*
X217991678Y-64470122D01*
X217918847Y-64485256D01*
X217843923Y-64499746D01*
X217833775Y-64501629D01*
X217758089Y-64518287D01*
X217683530Y-64540097D01*
X217673674Y-64543394D01*
X217602082Y-64571768D01*
X217534999Y-64606743D01*
X217526395Y-64611905D01*
X217466514Y-64657178D01*
X217415327Y-64714687D01*
X217409159Y-64723279D01*
X217365694Y-64783230D01*
X217335592Y-64850426D01*
X217332588Y-64859933D01*
X217317047Y-64931718D01*
X217314665Y-65008288D01*
X217315003Y-65013073D01*
X217327001Y-65088270D01*
X217351273Y-65160718D01*
X217387085Y-65227030D01*
X217434438Y-65284549D01*
X217489859Y-65332590D01*
X217512473Y-65348297D01*
X217576564Y-65387795D01*
X217599302Y-65400687D01*
X217671000Y-65430380D01*
X217746511Y-65446368D01*
X217798970Y-65449413D01*
X217872309Y-65445690D01*
X217945735Y-65434521D01*
X218012561Y-65417906D01*
X218084514Y-65393466D01*
X218153784Y-65362966D01*
X218214427Y-65329979D01*
X218276416Y-65289682D01*
X218336634Y-65242859D01*
X218376727Y-65205781D01*
X218392847Y-65182700D01*
G37*
G36*
X216970621Y-64571238D02*
G01*
X217037764Y-64541545D01*
X217050854Y-64531671D01*
X217095333Y-64471414D01*
X217097016Y-64466824D01*
X217097793Y-64392359D01*
X217097016Y-64389888D01*
X217053208Y-64328074D01*
X217040230Y-64317714D01*
X216971006Y-64290550D01*
X216956699Y-64289870D01*
X216882783Y-64289870D01*
X216866207Y-64289870D01*
X216868771Y-64218796D01*
X216870236Y-64142731D01*
X216869870Y-64099361D01*
X216866193Y-64024422D01*
X216861444Y-63975530D01*
X216842635Y-63902787D01*
X216836165Y-63892732D01*
X216780525Y-63843168D01*
X216721127Y-63831549D01*
X216648424Y-63856388D01*
X216608653Y-63897494D01*
X216591067Y-63925338D01*
X216583007Y-63955380D01*
X216581671Y-64033690D01*
X216581784Y-64112001D01*
X216581908Y-64122442D01*
X216582697Y-64200833D01*
X216582998Y-64274143D01*
X216583007Y-64289870D01*
X216399825Y-64289870D01*
X216329907Y-64316001D01*
X216328018Y-64317714D01*
X216285949Y-64379891D01*
X216285153Y-64382194D01*
X216277844Y-64455950D01*
X216278192Y-64458398D01*
X216314096Y-64522878D01*
X216379539Y-64558942D01*
X216438293Y-64569040D01*
X216514351Y-64570755D01*
X216583007Y-64571238D01*
X216583150Y-64651116D01*
X216583580Y-64730921D01*
X216584295Y-64810656D01*
X216584473Y-64826594D01*
X216584802Y-64906314D01*
X216584415Y-64986106D01*
X216583313Y-65065969D01*
X216583007Y-65081950D01*
X216580640Y-65155986D01*
X216577512Y-65195523D01*
X216578180Y-65269604D01*
X216585205Y-65306898D01*
X216623048Y-65371315D01*
X216624773Y-65372843D01*
X216687421Y-65403251D01*
X216759595Y-65398489D01*
X216825111Y-65363799D01*
X216829204Y-65360387D01*
X216853750Y-65304699D01*
X216863545Y-65229373D01*
X216864009Y-65221168D01*
X216864953Y-65147526D01*
X216864009Y-65111992D01*
X216864009Y-65035028D01*
X216864009Y-64991458D01*
X216864283Y-64915712D01*
X216865040Y-64842205D01*
X216865108Y-64837219D01*
X216865897Y-64763851D01*
X216866206Y-64689674D01*
X216866207Y-64685177D01*
X216866207Y-64610191D01*
X216866207Y-64571238D01*
X216970621Y-64571238D01*
G37*
G36*
X215588771Y-64279336D02*
G01*
X215662334Y-64286939D01*
X215679164Y-64289864D01*
X215750261Y-64307822D01*
X215807464Y-64330981D01*
X215882410Y-64370436D01*
X215951360Y-64418096D01*
X216014314Y-64473960D01*
X216063503Y-64528374D01*
X216091600Y-64564968D01*
X216132013Y-64628025D01*
X216153367Y-64667042D01*
X216184036Y-64737201D01*
X216192051Y-64760442D01*
X216213346Y-64832090D01*
X216219093Y-64856613D01*
X216230565Y-64932107D01*
X216232793Y-64998883D01*
X216227016Y-65074359D01*
X216210048Y-65148995D01*
X216199732Y-65177543D01*
X216165290Y-65244654D01*
X216115893Y-65305432D01*
X216090845Y-65327818D01*
X216029683Y-65368719D01*
X215959089Y-65399221D01*
X215904922Y-65414104D01*
X215826388Y-65425112D01*
X215748063Y-65426332D01*
X215682437Y-65420793D01*
X215607745Y-65403984D01*
X215545372Y-65377240D01*
X215481350Y-65335840D01*
X215452545Y-65369710D01*
X215388660Y-65409846D01*
X215365644Y-65416408D01*
X215289741Y-65413510D01*
X215273414Y-65406846D01*
X215219033Y-65354159D01*
X215206033Y-65317889D01*
X215212072Y-65242784D01*
X215302440Y-65057404D01*
X215587962Y-65057404D01*
X215645847Y-65102466D01*
X215703733Y-65138370D01*
X215705914Y-65139224D01*
X215779204Y-65150094D01*
X215784269Y-65149755D01*
X215855774Y-65129211D01*
X215862416Y-65125556D01*
X215917323Y-65074623D01*
X215927421Y-65058073D01*
X215945167Y-64985230D01*
X215945545Y-64977857D01*
X215938572Y-64904263D01*
X215936122Y-64893856D01*
X215915125Y-64822930D01*
X215892756Y-64770142D01*
X215850398Y-64706068D01*
X215798988Y-64653670D01*
X215755917Y-64620949D01*
X215686416Y-64584490D01*
X215611043Y-64563178D01*
X215611607Y-64578832D01*
X215613481Y-64656841D01*
X215613782Y-64734422D01*
X215612508Y-64811573D01*
X215611983Y-64826916D01*
X215607339Y-64903674D01*
X215599332Y-64980503D01*
X215587962Y-65057404D01*
X215302440Y-65057404D01*
X215304762Y-65052641D01*
X215315387Y-64998053D01*
X215321249Y-64927344D01*
X215323447Y-64856636D01*
X215323447Y-64802048D01*
X215324689Y-64751327D01*
X215324546Y-64677850D01*
X215323834Y-64627297D01*
X215323447Y-64551454D01*
X215322348Y-64485509D01*
X215322348Y-64435683D01*
X215332972Y-64391353D01*
X215363014Y-64342627D01*
X215375371Y-64328399D01*
X215440683Y-64293900D01*
X215473699Y-64286451D01*
X215549860Y-64278879D01*
X215588771Y-64279336D01*
G37*
G36*
X214537595Y-65054839D02*
G01*
X214467213Y-65024900D01*
X214427320Y-65022599D01*
X214357088Y-65046015D01*
X214341591Y-65058503D01*
X214306893Y-65123134D01*
X214304588Y-65142034D01*
X214319810Y-65216510D01*
X214340125Y-65252309D01*
X214390958Y-65307401D01*
X214413398Y-65324117D01*
X214477154Y-65362197D01*
X214504989Y-65375041D01*
X214575522Y-65400969D01*
X214653060Y-65415429D01*
X214711618Y-65416807D01*
X214787817Y-65407585D01*
X214859790Y-65386513D01*
X214905425Y-65365882D01*
X214968846Y-65325989D01*
X215025570Y-65276100D01*
X215059665Y-65237288D01*
X215102426Y-65171703D01*
X215133441Y-65098597D01*
X215147592Y-65045680D01*
X215161125Y-64967936D01*
X215166826Y-64891326D01*
X215164697Y-64815849D01*
X215154736Y-64741506D01*
X215136945Y-64668296D01*
X215129274Y-64644145D01*
X215101064Y-64575726D01*
X215067725Y-64509689D01*
X215027974Y-64447682D01*
X214980530Y-64391353D01*
X214926674Y-64341070D01*
X214866957Y-64297198D01*
X214801378Y-64263217D01*
X214729937Y-64242609D01*
X214655404Y-64238889D01*
X214600244Y-64244075D01*
X214526940Y-64258119D01*
X214455408Y-64281019D01*
X214446004Y-64284741D01*
X214379356Y-64317011D01*
X214317314Y-64360482D01*
X214313747Y-64363510D01*
X214267187Y-64420555D01*
X214249633Y-64479647D01*
X214259159Y-64548157D01*
X214298726Y-64600181D01*
X214357711Y-64629124D01*
X214426221Y-64628025D01*
X214492533Y-64596884D01*
X214551072Y-64548519D01*
X214555914Y-64544494D01*
X214591085Y-64529473D01*
X214625523Y-64521413D01*
X214688171Y-64528374D01*
X214718579Y-64544494D01*
X214746423Y-64558415D01*
X214795684Y-64614647D01*
X214838266Y-64680730D01*
X214862561Y-64733538D01*
X214882482Y-64807915D01*
X214886741Y-64886518D01*
X214880879Y-64941266D01*
X214860850Y-65014051D01*
X214835816Y-65059602D01*
X214781497Y-65111534D01*
X214757048Y-65123715D01*
X214683752Y-65132027D01*
X214657030Y-65127013D01*
X214589224Y-65096015D01*
X214548953Y-65064364D01*
X214537595Y-65054839D01*
G37*
G36*
X213826116Y-65270628D02*
G01*
X213850110Y-65339886D01*
X213886566Y-65380903D01*
X213954817Y-65410618D01*
X213982554Y-65412044D01*
X214053474Y-65386472D01*
X214070847Y-65371378D01*
X214105228Y-65305308D01*
X214108949Y-65266231D01*
X214108949Y-63943290D01*
X214089166Y-63879542D01*
X214039340Y-63832281D01*
X213973394Y-63807735D01*
X213907083Y-63809933D01*
X213855059Y-63844738D01*
X213830669Y-63915122D01*
X213830512Y-63918011D01*
X213827800Y-63995421D01*
X213825754Y-64069289D01*
X213824231Y-64149374D01*
X213823579Y-64224834D01*
X213823551Y-64242976D01*
X213823754Y-64323962D01*
X213824363Y-64405354D01*
X213825377Y-64487151D01*
X213826116Y-64532770D01*
X213767795Y-64487510D01*
X213725000Y-64450704D01*
X213668959Y-64398334D01*
X213631210Y-64361311D01*
X213582389Y-64305053D01*
X213549877Y-64262393D01*
X213495658Y-64209452D01*
X213450226Y-64186922D01*
X213374993Y-64180946D01*
X213367794Y-64182526D01*
X213302948Y-64218429D01*
X213267044Y-64283642D01*
X213269036Y-64357516D01*
X213271441Y-64365708D01*
X213309598Y-64429335D01*
X213323831Y-64447041D01*
X213372298Y-64502669D01*
X213414323Y-64547058D01*
X213466952Y-64598891D01*
X213512875Y-64640847D01*
X213568781Y-64688587D01*
X213591643Y-64706793D01*
X213541060Y-64762191D01*
X213490979Y-64818019D01*
X213441398Y-64874276D01*
X213431542Y-64885579D01*
X213382061Y-64942136D01*
X213332080Y-64998694D01*
X213281597Y-65055251D01*
X213271441Y-65066563D01*
X213221294Y-65121380D01*
X213205495Y-65137637D01*
X213159616Y-65196706D01*
X213150540Y-65212742D01*
X213138773Y-65286842D01*
X213139183Y-65289312D01*
X213170690Y-65357822D01*
X213230774Y-65400687D01*
X213305839Y-65403593D01*
X213308443Y-65402885D01*
X213373648Y-65369375D01*
X213385380Y-65360020D01*
X213439029Y-65310012D01*
X213456088Y-65291877D01*
X213504448Y-65234793D01*
X213519836Y-65215307D01*
X213567401Y-65156883D01*
X213575523Y-65147896D01*
X213626243Y-65089496D01*
X213676601Y-65031581D01*
X213699720Y-65005013D01*
X213750097Y-64948107D01*
X213801803Y-64892289D01*
X213826116Y-64866894D01*
X213826116Y-65270628D01*
G37*
G36*
X211676116Y-63844393D02*
G01*
X211747732Y-63866353D01*
X211800122Y-63919476D01*
X211801490Y-63921406D01*
X211838224Y-63987254D01*
X211839231Y-63989562D01*
X211870830Y-64056496D01*
X211899773Y-64116580D01*
X211928715Y-64178496D01*
X211949087Y-64224985D01*
X211978760Y-64295090D01*
X212007369Y-64365639D01*
X212034916Y-64436633D01*
X212061401Y-64508070D01*
X212086823Y-64579953D01*
X212111182Y-64652279D01*
X212134479Y-64725050D01*
X212156713Y-64798265D01*
X212177884Y-64871925D01*
X212197993Y-64946029D01*
X212215730Y-65011287D01*
X212237194Y-65085247D01*
X212253713Y-65151069D01*
X212265038Y-65227030D01*
X212266709Y-65254072D01*
X212250017Y-65325582D01*
X212244304Y-65335955D01*
X212192131Y-65389330D01*
X212185319Y-65393010D01*
X212111165Y-65404351D01*
X212086075Y-65397865D01*
X212026168Y-65352327D01*
X212013025Y-65335382D01*
X211984403Y-65265132D01*
X211979663Y-65240425D01*
X211963520Y-65168778D01*
X211952027Y-65119537D01*
X211934577Y-65046046D01*
X211921405Y-64995507D01*
X211898674Y-64922948D01*
X211854375Y-64922948D01*
X211774684Y-64922948D01*
X211695050Y-64922948D01*
X211615474Y-64922948D01*
X211571219Y-64922948D01*
X211491244Y-64922948D01*
X211410863Y-64922948D01*
X211330076Y-64922948D01*
X211316838Y-64964901D01*
X211295535Y-65039515D01*
X211277477Y-65112969D01*
X211262665Y-65185265D01*
X211259437Y-65201803D01*
X211250209Y-65274658D01*
X211248411Y-65288552D01*
X211216137Y-65357090D01*
X211205126Y-65370005D01*
X211141032Y-65411311D01*
X211138495Y-65411951D01*
X211064462Y-65408014D01*
X211057736Y-65405211D01*
X211000348Y-65358189D01*
X210989166Y-65341744D01*
X210965544Y-65270994D01*
X210965544Y-65254874D01*
X210968566Y-65233459D01*
X210980588Y-65158776D01*
X210994853Y-65084515D01*
X210999249Y-65063323D01*
X211016079Y-64990053D01*
X211035153Y-64918185D01*
X211029982Y-64916977D01*
X210964445Y-64883747D01*
X210922679Y-64824030D01*
X210915718Y-64752222D01*
X210916555Y-64747615D01*
X210954187Y-64682979D01*
X210968397Y-64669580D01*
X211037718Y-64641580D01*
X211058036Y-64640704D01*
X211132606Y-64641580D01*
X211439253Y-64641580D01*
X211468601Y-64641580D01*
X211542061Y-64641580D01*
X211616573Y-64641580D01*
X211653917Y-64641580D01*
X211730060Y-64641580D01*
X211808182Y-64641580D01*
X211785856Y-64578998D01*
X211759976Y-64509992D01*
X211732711Y-64440812D01*
X211706722Y-64377507D01*
X211676811Y-64307624D01*
X211645516Y-64237480D01*
X211607613Y-64296642D01*
X211568812Y-64364035D01*
X211533042Y-64433852D01*
X211502474Y-64498531D01*
X211470171Y-64569925D01*
X211439253Y-64641580D01*
X211132606Y-64641580D01*
X211142854Y-64615829D01*
X211174578Y-64538952D01*
X211207769Y-64462643D01*
X211242429Y-64386900D01*
X211278558Y-64311723D01*
X211316154Y-64237114D01*
X211329147Y-64212497D01*
X211370720Y-64140554D01*
X211416182Y-64071470D01*
X211465534Y-64005245D01*
X211518775Y-63941880D01*
X211575907Y-63881374D01*
X211599612Y-63863487D01*
X211673360Y-63844371D01*
X211676116Y-63844393D01*
G37*
G36*
X210710188Y-64571238D02*
G01*
X210777331Y-64541545D01*
X210790422Y-64531671D01*
X210834901Y-64471414D01*
X210836584Y-64466824D01*
X210837360Y-64392359D01*
X210836584Y-64389888D01*
X210792776Y-64328074D01*
X210779797Y-64317714D01*
X210710574Y-64290550D01*
X210696266Y-64289870D01*
X210622351Y-64289870D01*
X210605774Y-64289870D01*
X210608339Y-64218796D01*
X210609804Y-64142731D01*
X210609438Y-64099361D01*
X210605760Y-64024422D01*
X210601011Y-63975530D01*
X210582202Y-63902787D01*
X210575732Y-63892732D01*
X210520092Y-63843168D01*
X210460694Y-63831549D01*
X210387992Y-63856388D01*
X210348220Y-63897494D01*
X210330635Y-63925338D01*
X210322575Y-63955380D01*
X210321238Y-64033690D01*
X210321351Y-64112001D01*
X210321475Y-64122442D01*
X210322264Y-64200833D01*
X210322565Y-64274143D01*
X210322575Y-64289870D01*
X210139392Y-64289870D01*
X210069474Y-64316001D01*
X210067585Y-64317714D01*
X210025516Y-64379891D01*
X210024720Y-64382194D01*
X210017411Y-64455950D01*
X210017759Y-64458398D01*
X210053663Y-64522878D01*
X210119106Y-64558942D01*
X210177861Y-64569040D01*
X210253919Y-64570755D01*
X210322575Y-64571238D01*
X210322718Y-64651116D01*
X210323147Y-64730921D01*
X210323863Y-64810656D01*
X210324040Y-64826594D01*
X210324369Y-64906314D01*
X210323983Y-64986106D01*
X210322881Y-65065969D01*
X210322575Y-65081950D01*
X210320208Y-65155986D01*
X210317079Y-65195523D01*
X210317748Y-65269604D01*
X210324773Y-65306898D01*
X210362616Y-65371315D01*
X210364340Y-65372843D01*
X210426988Y-65403251D01*
X210499162Y-65398489D01*
X210564678Y-65363799D01*
X210568771Y-65360387D01*
X210593318Y-65304699D01*
X210603112Y-65229373D01*
X210603576Y-65221168D01*
X210604520Y-65147526D01*
X210603576Y-65111992D01*
X210603576Y-65035028D01*
X210603576Y-64991458D01*
X210603851Y-64915712D01*
X210604607Y-64842205D01*
X210604675Y-64837219D01*
X210605464Y-64763851D01*
X210605773Y-64689674D01*
X210605774Y-64685177D01*
X210605774Y-64610191D01*
X210605774Y-64571238D01*
X210710188Y-64571238D01*
G37*
G36*
X209507215Y-64296621D02*
G01*
X209580900Y-64315555D01*
X209654326Y-64347390D01*
X209709227Y-64379659D01*
X209767166Y-64426158D01*
X209813685Y-64474173D01*
X209860956Y-64534235D01*
X209897293Y-64590902D01*
X209931664Y-64658433D01*
X209956061Y-64719709D01*
X209977093Y-64790324D01*
X209979291Y-64804246D01*
X209988217Y-64859764D01*
X209995778Y-64933206D01*
X209995697Y-64990768D01*
X209984054Y-65064364D01*
X209972479Y-65108809D01*
X209948150Y-65180136D01*
X209927211Y-65224656D01*
X209886601Y-65287114D01*
X209864061Y-65314749D01*
X209808932Y-65366981D01*
X209778042Y-65389201D01*
X209712578Y-65426332D01*
X209697790Y-65433518D01*
X209623981Y-65459700D01*
X209550386Y-65469639D01*
X209477006Y-65463335D01*
X209462424Y-65460254D01*
X209391706Y-65438966D01*
X209324637Y-65407875D01*
X209261217Y-65366981D01*
X209249007Y-65357732D01*
X209191219Y-65307407D01*
X209138869Y-65250284D01*
X209091957Y-65186364D01*
X209087562Y-65179608D01*
X209048764Y-65111931D01*
X209019341Y-65044039D01*
X208997801Y-64969110D01*
X208986472Y-64898613D01*
X208982780Y-64821831D01*
X208984925Y-64780240D01*
X209262617Y-64780240D01*
X209264881Y-64856636D01*
X209270454Y-64889914D01*
X209291542Y-64960336D01*
X209324965Y-65028461D01*
X209334265Y-65043475D01*
X209382010Y-65103661D01*
X209441102Y-65150094D01*
X209467251Y-65163168D01*
X209540753Y-65179036D01*
X209552219Y-65178384D01*
X209623185Y-65152658D01*
X209636160Y-65142397D01*
X209681071Y-65083049D01*
X209692247Y-65057389D01*
X209710013Y-64985230D01*
X209710380Y-64912323D01*
X209698656Y-64839050D01*
X209687386Y-64806278D01*
X209655792Y-64737201D01*
X209640023Y-64710807D01*
X209593143Y-64652571D01*
X209571756Y-64633299D01*
X209508147Y-64594319D01*
X209476798Y-64582727D01*
X209401535Y-64572337D01*
X209385492Y-64579262D01*
X209324163Y-64622138D01*
X209283199Y-64687376D01*
X209276341Y-64707491D01*
X209262617Y-64780240D01*
X208984925Y-64780240D01*
X208986536Y-64749016D01*
X208995603Y-64671988D01*
X209012948Y-64599946D01*
X209041945Y-64528303D01*
X209081332Y-64464626D01*
X209115519Y-64423731D01*
X209173410Y-64372520D01*
X209239235Y-64333468D01*
X209286542Y-64314165D01*
X209361109Y-64295944D01*
X209440003Y-64290603D01*
X209507215Y-64296621D01*
G37*
G36*
X208318562Y-64681514D02*
G01*
X208318562Y-64648907D01*
X208361829Y-64588293D01*
X208385973Y-64573436D01*
X208456116Y-64550733D01*
X208485624Y-64546692D01*
X208534351Y-64567941D01*
X208566591Y-64593220D01*
X208592236Y-64624727D01*
X208620080Y-64660631D01*
X208620080Y-65268429D01*
X208635320Y-65342722D01*
X208663311Y-65380903D01*
X208726752Y-65420369D01*
X208758565Y-65427431D01*
X208832273Y-65415204D01*
X208854919Y-65401786D01*
X208895629Y-65338534D01*
X208901081Y-65296273D01*
X208902742Y-65215740D01*
X208903876Y-65130579D01*
X208904430Y-65053900D01*
X208904597Y-64973821D01*
X208904378Y-64890341D01*
X208904005Y-64803157D01*
X208903753Y-64727650D01*
X208903554Y-64649549D01*
X208903409Y-64568854D01*
X208903318Y-64485565D01*
X208903280Y-64399682D01*
X208903279Y-64382194D01*
X208882675Y-64311444D01*
X208874337Y-64300861D01*
X208812249Y-64259214D01*
X208804727Y-64256898D01*
X208729214Y-64255808D01*
X208721196Y-64257997D01*
X208659556Y-64298318D01*
X208650488Y-64310020D01*
X208577446Y-64280615D01*
X208504635Y-64265353D01*
X208424006Y-64264981D01*
X208391835Y-64269720D01*
X208313632Y-64291988D01*
X208247348Y-64324266D01*
X208184948Y-64368135D01*
X208158461Y-64391353D01*
X208104030Y-64342023D01*
X208058810Y-64307822D01*
X207992062Y-64272617D01*
X207942672Y-64259096D01*
X207866067Y-64254911D01*
X207797958Y-64264958D01*
X207727342Y-64287764D01*
X207662037Y-64321744D01*
X207603144Y-64365891D01*
X207551762Y-64419197D01*
X207508085Y-64483389D01*
X207481053Y-64544494D01*
X207469513Y-64618625D01*
X207469330Y-64628025D01*
X207469330Y-65259270D01*
X207476290Y-65312393D01*
X207514270Y-65376114D01*
X207542602Y-65397023D01*
X207614578Y-65416146D01*
X207635293Y-65414609D01*
X207703869Y-65383223D01*
X207717358Y-65370279D01*
X207749410Y-65303839D01*
X207752163Y-65270628D01*
X207752163Y-64646709D01*
X207791834Y-64582178D01*
X207812613Y-64565376D01*
X207883459Y-64542095D01*
X207893946Y-64542295D01*
X207964511Y-64565777D01*
X207974180Y-64572337D01*
X208024546Y-64628589D01*
X208035362Y-64648907D01*
X208035362Y-65256706D01*
X208052876Y-65329938D01*
X208076029Y-65361120D01*
X208135755Y-65404348D01*
X208165422Y-65414609D01*
X208240732Y-65412134D01*
X208257013Y-65405450D01*
X208302075Y-65347329D01*
X208306838Y-65321919D01*
X208318562Y-64681514D01*
G37*
G36*
X207144364Y-65016737D02*
G01*
X207212002Y-64986246D01*
X207227896Y-64973140D01*
X207270291Y-64911030D01*
X207273325Y-64901332D01*
X207269375Y-64827831D01*
X207267463Y-64822930D01*
X207217938Y-64766968D01*
X207200052Y-64756252D01*
X207128954Y-64735232D01*
X207101500Y-64734270D01*
X207028110Y-64735262D01*
X206998185Y-64735369D01*
X206920454Y-64734114D01*
X206842509Y-64733323D01*
X206764349Y-64732997D01*
X206685974Y-64733137D01*
X206607385Y-64733741D01*
X206528581Y-64734811D01*
X206496999Y-64735369D01*
X206466957Y-64743429D01*
X206438747Y-64760648D01*
X206390387Y-64812672D01*
X206372801Y-64874954D01*
X206386723Y-64936137D01*
X206434351Y-64986695D01*
X206504242Y-65012920D01*
X206528140Y-65016737D01*
X206603303Y-65022876D01*
X206643178Y-65023698D01*
X206718442Y-65022140D01*
X206749790Y-65020401D01*
X206817201Y-65016737D01*
X207144364Y-65016737D01*
G37*
G36*
X206162142Y-65182700D02*
G01*
X206174053Y-65108154D01*
X206172766Y-65094406D01*
X206147097Y-65025253D01*
X206142725Y-65019302D01*
X206081413Y-64975791D01*
X206078977Y-64974972D01*
X206005687Y-64977329D01*
X205990683Y-64983032D01*
X205927354Y-65024761D01*
X205915212Y-65037620D01*
X205858379Y-65084551D01*
X205839741Y-65094406D01*
X205771039Y-65123103D01*
X205716643Y-65138370D01*
X205642454Y-65152416D01*
X205628715Y-65153757D01*
X205555470Y-65156939D01*
X205538224Y-65157055D01*
X205477773Y-65138736D01*
X205422086Y-65099169D01*
X205379971Y-65037259D01*
X205377023Y-65026995D01*
X205375218Y-64952499D01*
X205377023Y-64944930D01*
X205409280Y-64879093D01*
X205416224Y-64870558D01*
X205476691Y-64828403D01*
X205486933Y-64825129D01*
X205558099Y-64803220D01*
X205634348Y-64785193D01*
X205649598Y-64782264D01*
X205724538Y-64766894D01*
X205797546Y-64748948D01*
X205807135Y-64746360D01*
X205877148Y-64722999D01*
X205943620Y-64692071D01*
X205952215Y-64687376D01*
X206014109Y-64643986D01*
X206067664Y-64590271D01*
X206078611Y-64577100D01*
X206118001Y-64515150D01*
X206120743Y-64507491D01*
X206139848Y-64436629D01*
X206141259Y-64430921D01*
X206148626Y-64352284D01*
X206137887Y-64278141D01*
X206124040Y-64242976D01*
X206086664Y-64178391D01*
X206041854Y-64119276D01*
X206027686Y-64103391D01*
X205974261Y-64052229D01*
X205910745Y-64006685D01*
X205859525Y-63979560D01*
X205787672Y-63951464D01*
X205713346Y-63932024D01*
X205662421Y-63923872D01*
X205584626Y-63918532D01*
X205506212Y-63921743D01*
X205453593Y-63928635D01*
X205375730Y-63945001D01*
X205300957Y-63968271D01*
X205252826Y-63987620D01*
X205193446Y-64034047D01*
X205181751Y-64059427D01*
X205175946Y-64134221D01*
X205180652Y-64154682D01*
X205220205Y-64219295D01*
X205234141Y-64231252D01*
X205304239Y-64254266D01*
X205326831Y-64252135D01*
X205400111Y-64235495D01*
X205431245Y-64227588D01*
X205504335Y-64210415D01*
X205528698Y-64205607D01*
X205603595Y-64202859D01*
X205608932Y-64203408D01*
X205683013Y-64216492D01*
X205690265Y-64218429D01*
X205760973Y-64241510D01*
X205809699Y-64268255D01*
X205845603Y-64310387D01*
X205865387Y-64368272D01*
X205834979Y-64433119D01*
X205768285Y-64467867D01*
X205760973Y-64470122D01*
X205688142Y-64485256D01*
X205613218Y-64499746D01*
X205603070Y-64501629D01*
X205527384Y-64518287D01*
X205452825Y-64540097D01*
X205442969Y-64543394D01*
X205371377Y-64571768D01*
X205304294Y-64606743D01*
X205295690Y-64611905D01*
X205235809Y-64657178D01*
X205184622Y-64714687D01*
X205178454Y-64723279D01*
X205134989Y-64783230D01*
X205104888Y-64850426D01*
X205101884Y-64859933D01*
X205086342Y-64931718D01*
X205083960Y-65008288D01*
X205084298Y-65013073D01*
X205096297Y-65088270D01*
X205120568Y-65160718D01*
X205156380Y-65227030D01*
X205203733Y-65284549D01*
X205259154Y-65332590D01*
X205281769Y-65348297D01*
X205345859Y-65387795D01*
X205368597Y-65400687D01*
X205440295Y-65430380D01*
X205515807Y-65446368D01*
X205568265Y-65449413D01*
X205641604Y-65445690D01*
X205715030Y-65434521D01*
X205781856Y-65417906D01*
X205853809Y-65393466D01*
X205923079Y-65362966D01*
X205983722Y-65329979D01*
X206045711Y-65289682D01*
X206105930Y-65242859D01*
X206146022Y-65205781D01*
X206162142Y-65182700D01*
G37*
G36*
X204389864Y-63844393D02*
G01*
X204461479Y-63866353D01*
X204513869Y-63919476D01*
X204515237Y-63921406D01*
X204551971Y-63987254D01*
X204552979Y-63989562D01*
X204584577Y-64056496D01*
X204613520Y-64116580D01*
X204642463Y-64178496D01*
X204662835Y-64224985D01*
X204692507Y-64295090D01*
X204721117Y-64365639D01*
X204748664Y-64436633D01*
X204775148Y-64508070D01*
X204800570Y-64579953D01*
X204824929Y-64652279D01*
X204848226Y-64725050D01*
X204870460Y-64798265D01*
X204891632Y-64871925D01*
X204911741Y-64946029D01*
X204929477Y-65011287D01*
X204950942Y-65085247D01*
X204967460Y-65151069D01*
X204978785Y-65227030D01*
X204980457Y-65254072D01*
X204963764Y-65325582D01*
X204958051Y-65335955D01*
X204905879Y-65389330D01*
X204899066Y-65393010D01*
X204824912Y-65404351D01*
X204799822Y-65397865D01*
X204739916Y-65352327D01*
X204726772Y-65335382D01*
X204698150Y-65265132D01*
X204693410Y-65240425D01*
X204677267Y-65168778D01*
X204665775Y-65119537D01*
X204648325Y-65046046D01*
X204635153Y-64995507D01*
X204612421Y-64922948D01*
X204568123Y-64922948D01*
X204488431Y-64922948D01*
X204408797Y-64922948D01*
X204329221Y-64922948D01*
X204284966Y-64922948D01*
X204204991Y-64922948D01*
X204124610Y-64922948D01*
X204043824Y-64922948D01*
X204030586Y-64964901D01*
X204009282Y-65039515D01*
X203991225Y-65112969D01*
X203976413Y-65185265D01*
X203973184Y-65201803D01*
X203963956Y-65274658D01*
X203962158Y-65288552D01*
X203929884Y-65357090D01*
X203918874Y-65370005D01*
X203854780Y-65411311D01*
X203852243Y-65411951D01*
X203778210Y-65408014D01*
X203771483Y-65405211D01*
X203714096Y-65358189D01*
X203702913Y-65341744D01*
X203679291Y-65270994D01*
X203679291Y-65254874D01*
X203682314Y-65233459D01*
X203694335Y-65158776D01*
X203708600Y-65084515D01*
X203712997Y-65063323D01*
X203729827Y-64990053D01*
X203748900Y-64918185D01*
X203743730Y-64916977D01*
X203678192Y-64883747D01*
X203636427Y-64824030D01*
X203629466Y-64752222D01*
X203630303Y-64747615D01*
X203667934Y-64682979D01*
X203682145Y-64669580D01*
X203751465Y-64641580D01*
X203771784Y-64640704D01*
X203846353Y-64641580D01*
X204153000Y-64641580D01*
X204182349Y-64641580D01*
X204255808Y-64641580D01*
X204330321Y-64641580D01*
X204367664Y-64641580D01*
X204443808Y-64641580D01*
X204521929Y-64641580D01*
X204499604Y-64578998D01*
X204473723Y-64509992D01*
X204446458Y-64440812D01*
X204420469Y-64377507D01*
X204390559Y-64307624D01*
X204359263Y-64237480D01*
X204321360Y-64296642D01*
X204282560Y-64364035D01*
X204246789Y-64433852D01*
X204216221Y-64498531D01*
X204183918Y-64569925D01*
X204153000Y-64641580D01*
X203846353Y-64641580D01*
X203856601Y-64615829D01*
X203888325Y-64538952D01*
X203921517Y-64462643D01*
X203956177Y-64386900D01*
X203992305Y-64311723D01*
X204029902Y-64237114D01*
X204042895Y-64212497D01*
X204084467Y-64140554D01*
X204129929Y-64071470D01*
X204179281Y-64005245D01*
X204232523Y-63941880D01*
X204289654Y-63881374D01*
X204313360Y-63863487D01*
X204387107Y-63844371D01*
X204389864Y-63844393D01*
G37*
G36*
X202807915Y-63849347D02*
G01*
X202884647Y-63858293D01*
X202961263Y-63877482D01*
X203033574Y-63904638D01*
X203101581Y-63939764D01*
X203165282Y-63982857D01*
X203224221Y-64032087D01*
X203277939Y-64085989D01*
X203326437Y-64144561D01*
X203369713Y-64207805D01*
X203407472Y-64274895D01*
X203439781Y-64345008D01*
X203466640Y-64418144D01*
X203488049Y-64494302D01*
X203503505Y-64571696D01*
X203512870Y-64648541D01*
X203516145Y-64724836D01*
X203513328Y-64800582D01*
X203510733Y-64827525D01*
X203498992Y-64904581D01*
X203482187Y-64978269D01*
X203472222Y-65012255D01*
X203445418Y-65083417D01*
X203411479Y-65151193D01*
X203393258Y-65180873D01*
X203348477Y-65240495D01*
X203296441Y-65293709D01*
X203269809Y-65315604D01*
X203205656Y-65354916D01*
X203132676Y-65383101D01*
X203095721Y-65399009D01*
X203022766Y-65421203D01*
X203019155Y-65421997D01*
X202945718Y-65433079D01*
X202868161Y-65438789D01*
X202821920Y-65437313D01*
X202742788Y-65427218D01*
X202668931Y-65407560D01*
X202600348Y-65378339D01*
X202578621Y-65366679D01*
X202509870Y-65323116D01*
X202446773Y-65272326D01*
X202394818Y-65220436D01*
X202367888Y-65189338D01*
X202322750Y-65130115D01*
X202281901Y-65066720D01*
X202245341Y-64999152D01*
X202226644Y-64960197D01*
X202195693Y-64889357D01*
X202168220Y-64817590D01*
X202144225Y-64744895D01*
X202135509Y-64678262D01*
X202129063Y-64604967D01*
X202125907Y-64531671D01*
X202126322Y-64507491D01*
X202402878Y-64507491D01*
X202403535Y-64536349D01*
X202408172Y-64610376D01*
X202417899Y-64688475D01*
X202440247Y-64757809D01*
X202465526Y-64826594D01*
X202493417Y-64888788D01*
X202531838Y-64955188D01*
X202571750Y-65009525D01*
X202623796Y-65065464D01*
X202680216Y-65110343D01*
X202745429Y-65145331D01*
X202810929Y-65166433D01*
X202885746Y-65172442D01*
X202946073Y-65164187D01*
X203019103Y-65138736D01*
X203075018Y-65105238D01*
X203131577Y-65055205D01*
X203172975Y-65002483D01*
X203207048Y-64936503D01*
X203218051Y-64903196D01*
X203233498Y-64828731D01*
X203237456Y-64751123D01*
X203235773Y-64714900D01*
X203227178Y-64638627D01*
X203211810Y-64565376D01*
X203191796Y-64497699D01*
X203163748Y-64427717D01*
X203129378Y-64362411D01*
X203091969Y-64306690D01*
X203043216Y-64249448D01*
X202986496Y-64196448D01*
X202978598Y-64190192D01*
X202915073Y-64153221D01*
X202843981Y-64133799D01*
X202833957Y-64132457D01*
X202759146Y-64130235D01*
X202684979Y-64141859D01*
X202675181Y-64144450D01*
X202604803Y-64171358D01*
X202539898Y-64211468D01*
X202535787Y-64214602D01*
X202482104Y-64266240D01*
X202441346Y-64330903D01*
X202427938Y-64362562D01*
X202408697Y-64433454D01*
X202402878Y-64507491D01*
X202126322Y-64507491D01*
X202127059Y-64464595D01*
X202134690Y-64390315D01*
X202148988Y-64315516D01*
X202156140Y-64288895D01*
X202182827Y-64216166D01*
X202216399Y-64151018D01*
X202231343Y-64126745D01*
X202275054Y-64067904D01*
X202329972Y-64011434D01*
X202372134Y-63976587D01*
X202436584Y-63935230D01*
X202487133Y-63910025D01*
X202557484Y-63881741D01*
X202567348Y-63878350D01*
X202642519Y-63858671D01*
X202719783Y-63849134D01*
X202730216Y-63848612D01*
X202807915Y-63849347D01*
G37*
G36*
X227991503Y-91682351D02*
G01*
X228015498Y-91751609D01*
X228051953Y-91792627D01*
X228120393Y-91822341D01*
X228148307Y-91823768D01*
X228219228Y-91798196D01*
X228236601Y-91783101D01*
X228270982Y-91716858D01*
X228274703Y-91677588D01*
X228274703Y-90387620D01*
X228251210Y-90316660D01*
X228232937Y-90297128D01*
X228168168Y-90257983D01*
X228140247Y-90250600D01*
X228064577Y-90257532D01*
X228044993Y-90267086D01*
X228001098Y-90329940D01*
X227996266Y-90361974D01*
X227991543Y-90436771D01*
X227988824Y-90510495D01*
X227988147Y-90590351D01*
X227988206Y-90597547D01*
X227989092Y-90676722D01*
X227990237Y-90756071D01*
X227991503Y-90828356D01*
X227926228Y-90790300D01*
X227853303Y-90761165D01*
X227813084Y-90750687D01*
X227738685Y-90741324D01*
X227661267Y-90746253D01*
X227634298Y-90751786D01*
X227561459Y-90778053D01*
X227497715Y-90816759D01*
X227474197Y-90835317D01*
X227422385Y-90889155D01*
X227381861Y-90950546D01*
X227353663Y-91009340D01*
X227327683Y-91081318D01*
X227310880Y-91157803D01*
X227309333Y-91168342D01*
X227301108Y-91242884D01*
X227296951Y-91318408D01*
X227296510Y-91340167D01*
X227296460Y-91416002D01*
X227298233Y-91491556D01*
X227299075Y-91513091D01*
X227301329Y-91586351D01*
X227302343Y-91660953D01*
X227302372Y-91675390D01*
X227319302Y-91748282D01*
X227328018Y-91763318D01*
X227380423Y-91815221D01*
X227392131Y-91821570D01*
X227465103Y-91834373D01*
X227473098Y-91833293D01*
X227537432Y-91797312D01*
X227550767Y-91782002D01*
X227584930Y-91714315D01*
X227593632Y-91673192D01*
X227599199Y-91595956D01*
X227598394Y-91539836D01*
X227593571Y-91463491D01*
X227587770Y-91394755D01*
X227583372Y-91317389D01*
X227584473Y-91251873D01*
X227594558Y-91178161D01*
X227611217Y-91125478D01*
X227653664Y-91061135D01*
X227692184Y-91030223D01*
X227766596Y-91033188D01*
X227776081Y-91036085D01*
X227841241Y-91072963D01*
X227843126Y-91074553D01*
X227896556Y-91128391D01*
X227899912Y-91132438D01*
X227947557Y-91189219D01*
X227954501Y-91197285D01*
X227970987Y-91219633D01*
X227991503Y-91241615D01*
X227991503Y-91682351D01*
G37*
G36*
X226981437Y-90971238D02*
G01*
X227048580Y-90941545D01*
X227061671Y-90931671D01*
X227106150Y-90871414D01*
X227107833Y-90866824D01*
X227108609Y-90792359D01*
X227107833Y-90789888D01*
X227064025Y-90728074D01*
X227051046Y-90717714D01*
X226981823Y-90690550D01*
X226967515Y-90689870D01*
X226893600Y-90689870D01*
X226877023Y-90689870D01*
X226879588Y-90618796D01*
X226881053Y-90542731D01*
X226880687Y-90499361D01*
X226877009Y-90424422D01*
X226872260Y-90375530D01*
X226853451Y-90302787D01*
X226846981Y-90292732D01*
X226791341Y-90243168D01*
X226731943Y-90231549D01*
X226659241Y-90256388D01*
X226619469Y-90297494D01*
X226601884Y-90325338D01*
X226593824Y-90355380D01*
X226592487Y-90433690D01*
X226592600Y-90512001D01*
X226592725Y-90522442D01*
X226593513Y-90600833D01*
X226593814Y-90674143D01*
X226593824Y-90689870D01*
X226410642Y-90689870D01*
X226340723Y-90716001D01*
X226338834Y-90717714D01*
X226296766Y-90779891D01*
X226295969Y-90782194D01*
X226288660Y-90855950D01*
X226289009Y-90858398D01*
X226324912Y-90922878D01*
X226390356Y-90958942D01*
X226449110Y-90969040D01*
X226525168Y-90970755D01*
X226593824Y-90971238D01*
X226593967Y-91051116D01*
X226594396Y-91130921D01*
X226595112Y-91210656D01*
X226595289Y-91226594D01*
X226595618Y-91306314D01*
X226595232Y-91386106D01*
X226594130Y-91465969D01*
X226593824Y-91481950D01*
X226591457Y-91555986D01*
X226588328Y-91595523D01*
X226588997Y-91669604D01*
X226596022Y-91706898D01*
X226633865Y-91771315D01*
X226635589Y-91772843D01*
X226698237Y-91803251D01*
X226770411Y-91798489D01*
X226835927Y-91763799D01*
X226840020Y-91760387D01*
X226864567Y-91704699D01*
X226874361Y-91629373D01*
X226874825Y-91621168D01*
X226875770Y-91547526D01*
X226874825Y-91511992D01*
X226874825Y-91435028D01*
X226874825Y-91391458D01*
X226875100Y-91315712D01*
X226875857Y-91242205D01*
X226875924Y-91237219D01*
X226876713Y-91163851D01*
X226877022Y-91089674D01*
X226877023Y-91085177D01*
X226877023Y-91010191D01*
X226877023Y-90971238D01*
X226981437Y-90971238D01*
G37*
G36*
X226053803Y-90971238D02*
G01*
X226120946Y-90941545D01*
X226134036Y-90931671D01*
X226178515Y-90871414D01*
X226180198Y-90866824D01*
X226180975Y-90792359D01*
X226180198Y-90789888D01*
X226136390Y-90728074D01*
X226123412Y-90717714D01*
X226054188Y-90690550D01*
X226039881Y-90689870D01*
X225965965Y-90689870D01*
X225949389Y-90689870D01*
X225951953Y-90618796D01*
X225953419Y-90542731D01*
X225953053Y-90499361D01*
X225949375Y-90424422D01*
X225944626Y-90375530D01*
X225925817Y-90302787D01*
X225919347Y-90292732D01*
X225863707Y-90243168D01*
X225804309Y-90231549D01*
X225731606Y-90256388D01*
X225691835Y-90297494D01*
X225674249Y-90325338D01*
X225666189Y-90355380D01*
X225664853Y-90433690D01*
X225664966Y-90512001D01*
X225665090Y-90522442D01*
X225665879Y-90600833D01*
X225666180Y-90674143D01*
X225666189Y-90689870D01*
X225483007Y-90689870D01*
X225413089Y-90716001D01*
X225411200Y-90717714D01*
X225369131Y-90779891D01*
X225368335Y-90782194D01*
X225361026Y-90855950D01*
X225361374Y-90858398D01*
X225397278Y-90922878D01*
X225462721Y-90958942D01*
X225521475Y-90969040D01*
X225597534Y-90970755D01*
X225666189Y-90971238D01*
X225666332Y-91051116D01*
X225666762Y-91130921D01*
X225667477Y-91210656D01*
X225667655Y-91226594D01*
X225667984Y-91306314D01*
X225667598Y-91386106D01*
X225666496Y-91465969D01*
X225666189Y-91481950D01*
X225663823Y-91555986D01*
X225660694Y-91595523D01*
X225661363Y-91669604D01*
X225668387Y-91706898D01*
X225706230Y-91771315D01*
X225707955Y-91772843D01*
X225770603Y-91803251D01*
X225842777Y-91798489D01*
X225908293Y-91763799D01*
X225912386Y-91760387D01*
X225936933Y-91704699D01*
X225946727Y-91629373D01*
X225947191Y-91621168D01*
X225948135Y-91547526D01*
X225947191Y-91511992D01*
X225947191Y-91435028D01*
X225947191Y-91391458D01*
X225947465Y-91315712D01*
X225948222Y-91242205D01*
X225948290Y-91237219D01*
X225949079Y-91163851D01*
X225949388Y-91089674D01*
X225949389Y-91085177D01*
X225949389Y-91010191D01*
X225949389Y-90971238D01*
X226053803Y-90971238D01*
G37*
G36*
X225114645Y-90674586D02*
G01*
X225181123Y-90706723D01*
X225199783Y-90725119D01*
X225233513Y-90791353D01*
X225235711Y-90805275D01*
X225235711Y-92218342D01*
X225234694Y-92236911D01*
X225206769Y-92305170D01*
X225199367Y-92313906D01*
X225138258Y-92356461D01*
X225128298Y-92359799D01*
X225054727Y-92359759D01*
X225036017Y-92353212D01*
X224980355Y-92304071D01*
X224963136Y-92242522D01*
X224959723Y-92213070D01*
X224953977Y-92139207D01*
X224951745Y-92095124D01*
X224950314Y-92018674D01*
X224950314Y-91976685D01*
X224950314Y-91902536D01*
X224950331Y-91889542D01*
X224951413Y-91814609D01*
X224952512Y-91777606D01*
X224916765Y-91779598D01*
X224839138Y-91779672D01*
X224761270Y-91773942D01*
X224725420Y-91769065D01*
X224649691Y-91751428D01*
X224576622Y-91724117D01*
X224536134Y-91704019D01*
X224470965Y-91661756D01*
X224415706Y-91611669D01*
X224370359Y-91553757D01*
X224361552Y-91539910D01*
X224323957Y-91468784D01*
X224297095Y-91394509D01*
X224280966Y-91317086D01*
X224278964Y-91301242D01*
X224276128Y-91246858D01*
X224548444Y-91246858D01*
X224560663Y-91319450D01*
X224597505Y-91386695D01*
X224626055Y-91417187D01*
X224690241Y-91461256D01*
X224762369Y-91487445D01*
X224784438Y-91492870D01*
X224859822Y-91501367D01*
X224877145Y-91501123D01*
X224952512Y-91494406D01*
X224952512Y-91111556D01*
X224943353Y-91103496D01*
X224936392Y-91092871D01*
X224927610Y-91082787D01*
X224877407Y-91028025D01*
X224869404Y-91020131D01*
X224806332Y-90979298D01*
X224782530Y-90970971D01*
X224706681Y-90970139D01*
X224690483Y-90976094D01*
X224630111Y-91018866D01*
X224614609Y-91037207D01*
X224577721Y-91103496D01*
X224568631Y-91128202D01*
X224550976Y-91199849D01*
X224548444Y-91246858D01*
X224276128Y-91246858D01*
X224274835Y-91222066D01*
X224280509Y-91142961D01*
X224295987Y-91063928D01*
X224300190Y-91048256D01*
X224326401Y-90973717D01*
X224361270Y-90905546D01*
X224404797Y-90843743D01*
X224414519Y-90832166D01*
X224467634Y-90780030D01*
X224528263Y-90737483D01*
X224596406Y-90704525D01*
X224633072Y-90692403D01*
X224711397Y-90680611D01*
X224787579Y-90684192D01*
X224859822Y-90698663D01*
X224917707Y-90719546D01*
X224968632Y-90744825D01*
X224972692Y-90737655D01*
X225026884Y-90686939D01*
X225031523Y-90684696D01*
X225104553Y-90673018D01*
X225114645Y-90674586D01*
G37*
G36*
X224152739Y-91589661D02*
G01*
X224164674Y-91516760D01*
X224164462Y-91511992D01*
X224144678Y-91442383D01*
X224094853Y-91393656D01*
X224021480Y-91380325D01*
X224015718Y-91380833D01*
X223969556Y-91394755D01*
X223931454Y-91422599D01*
X223896650Y-91457404D01*
X223860380Y-91489644D01*
X223795873Y-91527094D01*
X223776849Y-91533974D01*
X223705249Y-91551478D01*
X223684159Y-91554856D01*
X223631769Y-91538736D01*
X223605024Y-91499169D01*
X223601727Y-91449344D01*
X223618946Y-91406113D01*
X223681490Y-91365199D01*
X223715300Y-91355188D01*
X223789571Y-91336990D01*
X223820812Y-91327344D01*
X223889872Y-91301058D01*
X223957833Y-91268360D01*
X224018832Y-91225495D01*
X224067009Y-91169441D01*
X224101997Y-91102580D01*
X224119033Y-91031688D01*
X224119842Y-90954870D01*
X224107676Y-90888806D01*
X224079108Y-90818155D01*
X224041364Y-90761311D01*
X223990256Y-90708372D01*
X223929989Y-90666057D01*
X223862091Y-90638032D01*
X223823377Y-90630153D01*
X223750276Y-90624772D01*
X223706140Y-90626489D01*
X223632524Y-90637452D01*
X223588904Y-90648838D01*
X223516874Y-90673015D01*
X223482292Y-90686939D01*
X223421193Y-90729593D01*
X223398761Y-90759113D01*
X223373276Y-90829180D01*
X223372016Y-90852903D01*
X223395519Y-90924145D01*
X223404623Y-90935334D01*
X223471169Y-90968474D01*
X223496214Y-90970139D01*
X223563625Y-90957316D01*
X223625907Y-90932770D01*
X223698371Y-90913347D01*
X223716399Y-90910788D01*
X223789671Y-90914606D01*
X223795533Y-90916650D01*
X223816416Y-90931671D01*
X223833635Y-90963178D01*
X223836200Y-91000181D01*
X223811653Y-91030223D01*
X223743071Y-91061295D01*
X223693318Y-91076751D01*
X223619827Y-91097573D01*
X223570586Y-91113754D01*
X223501772Y-91142685D01*
X223458112Y-91167243D01*
X223402098Y-91215650D01*
X223370917Y-91259933D01*
X223339507Y-91327287D01*
X223321410Y-91402812D01*
X223318527Y-91444581D01*
X223324346Y-91520752D01*
X223343587Y-91592691D01*
X223356995Y-91624466D01*
X223395013Y-91688284D01*
X223445366Y-91743999D01*
X223472766Y-91766981D01*
X223539212Y-91807283D01*
X223614123Y-91831743D01*
X223651552Y-91837690D01*
X223727227Y-91838882D01*
X223792969Y-91829630D01*
X223865688Y-91808397D01*
X223927791Y-91780903D01*
X223994105Y-91741576D01*
X224048325Y-91701036D01*
X224103563Y-91650359D01*
X224145778Y-91603583D01*
X224152739Y-91589661D01*
G37*
G36*
X222774110Y-90904926D02*
G01*
X222785863Y-90980344D01*
X222827599Y-91043046D01*
X222891535Y-91082716D01*
X222947034Y-91094337D01*
X223022115Y-91081978D01*
X223069766Y-91054769D01*
X223116039Y-90995784D01*
X223133513Y-90921413D01*
X223126382Y-90847645D01*
X223114096Y-90820296D01*
X223063566Y-90766548D01*
X223048883Y-90757648D01*
X222978447Y-90734988D01*
X222960956Y-90733468D01*
X222887431Y-90743328D01*
X222871563Y-90749588D01*
X222810994Y-90795202D01*
X222801953Y-90806741D01*
X222775850Y-90876258D01*
X222774110Y-90904926D01*
G37*
G36*
X222769347Y-91610544D02*
G01*
X222781342Y-91685881D01*
X222823935Y-91748297D01*
X222889404Y-91787503D01*
X222945935Y-91798122D01*
X223021934Y-91785540D01*
X223069766Y-91758921D01*
X223116039Y-91700794D01*
X223133513Y-91626664D01*
X223126273Y-91549668D01*
X223084787Y-91486346D01*
X223021380Y-91448253D01*
X222958391Y-91435422D01*
X222882554Y-91446486D01*
X222828698Y-91476088D01*
X222782388Y-91535931D01*
X222769347Y-91610544D01*
G37*
G36*
X221791521Y-90132264D02*
G01*
X221739518Y-90078123D01*
X221721912Y-90069616D01*
X221648822Y-90059918D01*
X221638381Y-90061556D01*
X221571406Y-90096324D01*
X221565474Y-90102222D01*
X221531930Y-90168640D01*
X221529204Y-90187951D01*
X221538729Y-90251699D01*
X221564516Y-90321606D01*
X221565474Y-90323872D01*
X221596615Y-90389818D01*
X221617498Y-90431584D01*
X221647952Y-90502539D01*
X221678406Y-90573075D01*
X221687107Y-90593150D01*
X221717561Y-90663315D01*
X221748015Y-90734040D01*
X221756716Y-90754351D01*
X221787474Y-90825648D01*
X221818197Y-90896843D01*
X221848885Y-90967935D01*
X221879540Y-91038924D01*
X221910160Y-91109810D01*
X221940746Y-91180592D01*
X221971297Y-91251272D01*
X222001814Y-91321849D01*
X222032279Y-91392265D01*
X222062859Y-91462647D01*
X222093554Y-91532995D01*
X222124363Y-91603308D01*
X222155286Y-91673587D01*
X222186324Y-91743832D01*
X222217476Y-91814042D01*
X222248743Y-91884218D01*
X222300300Y-91939758D01*
X222307728Y-91943203D01*
X222380577Y-91953220D01*
X222391259Y-91951263D01*
X222459260Y-91918124D01*
X222467829Y-91910596D01*
X222503494Y-91843788D01*
X222506297Y-91823768D01*
X222499772Y-91750037D01*
X222484316Y-91710195D01*
X222451314Y-91642818D01*
X222431926Y-91598820D01*
X222401471Y-91527934D01*
X222371017Y-91457610D01*
X222362316Y-91437620D01*
X222331862Y-91367275D01*
X222301408Y-91296650D01*
X222292707Y-91276420D01*
X222263764Y-91211573D01*
X222233622Y-91143306D01*
X222220900Y-91114120D01*
X222191304Y-91045971D01*
X222173272Y-91003845D01*
X222142633Y-90933565D01*
X222127843Y-90900530D01*
X222098602Y-90832968D01*
X222094504Y-90822861D01*
X222081681Y-90791353D01*
X222050228Y-90720257D01*
X222019020Y-90649301D01*
X221988058Y-90578486D01*
X221957341Y-90507810D01*
X221939898Y-90467487D01*
X221909444Y-90397015D01*
X221878990Y-90326647D01*
X221848536Y-90256385D01*
X221818082Y-90186228D01*
X221800680Y-90146186D01*
X221791521Y-90132264D01*
G37*
G36*
X220774494Y-90132264D02*
G01*
X220722491Y-90078123D01*
X220704884Y-90069616D01*
X220631795Y-90059918D01*
X220621353Y-90061556D01*
X220554379Y-90096324D01*
X220548447Y-90102222D01*
X220514903Y-90168640D01*
X220512177Y-90187951D01*
X220521702Y-90251699D01*
X220547489Y-90321606D01*
X220548447Y-90323872D01*
X220579588Y-90389818D01*
X220600471Y-90431584D01*
X220630925Y-90502539D01*
X220661379Y-90573075D01*
X220670080Y-90593150D01*
X220700534Y-90663315D01*
X220730988Y-90734040D01*
X220739689Y-90754351D01*
X220770446Y-90825648D01*
X220801169Y-90896843D01*
X220831858Y-90967935D01*
X220862513Y-91038924D01*
X220893133Y-91109810D01*
X220923718Y-91180592D01*
X220954270Y-91251272D01*
X220984787Y-91321849D01*
X221015252Y-91392265D01*
X221045832Y-91462647D01*
X221076527Y-91532995D01*
X221107336Y-91603308D01*
X221138259Y-91673587D01*
X221169297Y-91743832D01*
X221200449Y-91814042D01*
X221231716Y-91884218D01*
X221283272Y-91939758D01*
X221290701Y-91943203D01*
X221363550Y-91953220D01*
X221374232Y-91951263D01*
X221442233Y-91918124D01*
X221450802Y-91910596D01*
X221486467Y-91843788D01*
X221489270Y-91823768D01*
X221482744Y-91750037D01*
X221467288Y-91710195D01*
X221434287Y-91642818D01*
X221414898Y-91598820D01*
X221384444Y-91527934D01*
X221353990Y-91457610D01*
X221345289Y-91437620D01*
X221314835Y-91367275D01*
X221284381Y-91296650D01*
X221275680Y-91276420D01*
X221246737Y-91211573D01*
X221216595Y-91143306D01*
X221203872Y-91114120D01*
X221174277Y-91045971D01*
X221156245Y-91003845D01*
X221125606Y-90933565D01*
X221110816Y-90900530D01*
X221081575Y-90832968D01*
X221077477Y-90822861D01*
X221064654Y-90791353D01*
X221033201Y-90720257D01*
X221001993Y-90649301D01*
X220971030Y-90578486D01*
X220940313Y-90507810D01*
X220922871Y-90467487D01*
X220892417Y-90397015D01*
X220861963Y-90326647D01*
X220831509Y-90256385D01*
X220801055Y-90186228D01*
X220783653Y-90146186D01*
X220774494Y-90132264D01*
G37*
G36*
X220245097Y-91682351D02*
G01*
X220269092Y-91751609D01*
X220305547Y-91792627D01*
X220373987Y-91822341D01*
X220401901Y-91823768D01*
X220472822Y-91798196D01*
X220490195Y-91783101D01*
X220524576Y-91716858D01*
X220528297Y-91677588D01*
X220528297Y-90387620D01*
X220504804Y-90316660D01*
X220486531Y-90297128D01*
X220421762Y-90257983D01*
X220393841Y-90250600D01*
X220318171Y-90257532D01*
X220298586Y-90267086D01*
X220254691Y-90329940D01*
X220249860Y-90361974D01*
X220245137Y-90436771D01*
X220242418Y-90510495D01*
X220241741Y-90590351D01*
X220241800Y-90597547D01*
X220242685Y-90676722D01*
X220243831Y-90756071D01*
X220245097Y-90828356D01*
X220179821Y-90790300D01*
X220106897Y-90761165D01*
X220066678Y-90750687D01*
X219992279Y-90741324D01*
X219914861Y-90746253D01*
X219887892Y-90751786D01*
X219815053Y-90778053D01*
X219751309Y-90816759D01*
X219727791Y-90835317D01*
X219675979Y-90889155D01*
X219635455Y-90950546D01*
X219607257Y-91009340D01*
X219581277Y-91081318D01*
X219564474Y-91157803D01*
X219562927Y-91168342D01*
X219554702Y-91242884D01*
X219550545Y-91318408D01*
X219550104Y-91340167D01*
X219550054Y-91416002D01*
X219551827Y-91491556D01*
X219552669Y-91513091D01*
X219554923Y-91586351D01*
X219555937Y-91660953D01*
X219555966Y-91675390D01*
X219572896Y-91748282D01*
X219581612Y-91763318D01*
X219634017Y-91815221D01*
X219645725Y-91821570D01*
X219718696Y-91834373D01*
X219726692Y-91833293D01*
X219791026Y-91797312D01*
X219804361Y-91782002D01*
X219838524Y-91714315D01*
X219847226Y-91673192D01*
X219852793Y-91595956D01*
X219851988Y-91539836D01*
X219847165Y-91463491D01*
X219841364Y-91394755D01*
X219836966Y-91317389D01*
X219838066Y-91251873D01*
X219848152Y-91178161D01*
X219864811Y-91125478D01*
X219907258Y-91061135D01*
X219945778Y-91030223D01*
X220020190Y-91033188D01*
X220029675Y-91036085D01*
X220094835Y-91072963D01*
X220096720Y-91074553D01*
X220150150Y-91128391D01*
X220153506Y-91132438D01*
X220201151Y-91189219D01*
X220208094Y-91197285D01*
X220224581Y-91219633D01*
X220245097Y-91241615D01*
X220245097Y-91682351D01*
G37*
G36*
X218774954Y-90679336D02*
G01*
X218848517Y-90686939D01*
X218865346Y-90689864D01*
X218936444Y-90707822D01*
X218993647Y-90730981D01*
X219068593Y-90770436D01*
X219137543Y-90818096D01*
X219200497Y-90873960D01*
X219249685Y-90928374D01*
X219277783Y-90964968D01*
X219318196Y-91028025D01*
X219339550Y-91067042D01*
X219370219Y-91137201D01*
X219378234Y-91160442D01*
X219399528Y-91232090D01*
X219405276Y-91256613D01*
X219416748Y-91332107D01*
X219418976Y-91398883D01*
X219413198Y-91474359D01*
X219396231Y-91548995D01*
X219385915Y-91577543D01*
X219351473Y-91644654D01*
X219302076Y-91705432D01*
X219277028Y-91727818D01*
X219215866Y-91768719D01*
X219145272Y-91799221D01*
X219091105Y-91814104D01*
X219012571Y-91825112D01*
X218934246Y-91826332D01*
X218868619Y-91820793D01*
X218793928Y-91803984D01*
X218731555Y-91777240D01*
X218667533Y-91735840D01*
X218638728Y-91769710D01*
X218574842Y-91809846D01*
X218551827Y-91816408D01*
X218475924Y-91813510D01*
X218459597Y-91806846D01*
X218405216Y-91754159D01*
X218392216Y-91717889D01*
X218398255Y-91642784D01*
X218488623Y-91457404D01*
X218774145Y-91457404D01*
X218832030Y-91502466D01*
X218889916Y-91538370D01*
X218892097Y-91539224D01*
X218965387Y-91550094D01*
X218970451Y-91549755D01*
X219041957Y-91529211D01*
X219048599Y-91525556D01*
X219103506Y-91474623D01*
X219113604Y-91458073D01*
X219131350Y-91385230D01*
X219131728Y-91377857D01*
X219124755Y-91304263D01*
X219122305Y-91293856D01*
X219101308Y-91222930D01*
X219078939Y-91170142D01*
X219036581Y-91106068D01*
X218985170Y-91053670D01*
X218942100Y-91020949D01*
X218872599Y-90984490D01*
X218797226Y-90963178D01*
X218797789Y-90978832D01*
X218799664Y-91056841D01*
X218799965Y-91134422D01*
X218798691Y-91211573D01*
X218798166Y-91226916D01*
X218793522Y-91303674D01*
X218785515Y-91380503D01*
X218774145Y-91457404D01*
X218488623Y-91457404D01*
X218490945Y-91452641D01*
X218501570Y-91398053D01*
X218507431Y-91327344D01*
X218509630Y-91256636D01*
X218509630Y-91202048D01*
X218510871Y-91151327D01*
X218510729Y-91077850D01*
X218510017Y-91027297D01*
X218509630Y-90951454D01*
X218508531Y-90885509D01*
X218508531Y-90835683D01*
X218519155Y-90791353D01*
X218549197Y-90742627D01*
X218561554Y-90728399D01*
X218626866Y-90693900D01*
X218659882Y-90686451D01*
X218736043Y-90678879D01*
X218774954Y-90679336D01*
G37*
G36*
X217640247Y-91454839D02*
G01*
X217569865Y-91424900D01*
X217529972Y-91422599D01*
X217459740Y-91446015D01*
X217444242Y-91458503D01*
X217409545Y-91523134D01*
X217407240Y-91542034D01*
X217422462Y-91616510D01*
X217442777Y-91652309D01*
X217493610Y-91707401D01*
X217516050Y-91724117D01*
X217579806Y-91762197D01*
X217607641Y-91775041D01*
X217678174Y-91800969D01*
X217755711Y-91815429D01*
X217814270Y-91816807D01*
X217890468Y-91807585D01*
X217962442Y-91786513D01*
X218008077Y-91765882D01*
X218071498Y-91725989D01*
X218128222Y-91676100D01*
X218162316Y-91637288D01*
X218205078Y-91571703D01*
X218236093Y-91498597D01*
X218250244Y-91445680D01*
X218263776Y-91367936D01*
X218269478Y-91291326D01*
X218267348Y-91215849D01*
X218257388Y-91141506D01*
X218239596Y-91068296D01*
X218231926Y-91044145D01*
X218203715Y-90975726D01*
X218170376Y-90909689D01*
X218130626Y-90847682D01*
X218083182Y-90791353D01*
X218029326Y-90741070D01*
X217969609Y-90697198D01*
X217904030Y-90663217D01*
X217832588Y-90642609D01*
X217758056Y-90638889D01*
X217702896Y-90644075D01*
X217629592Y-90658119D01*
X217558060Y-90681019D01*
X217548656Y-90684741D01*
X217482008Y-90717011D01*
X217419966Y-90760482D01*
X217416399Y-90763510D01*
X217369839Y-90820555D01*
X217352285Y-90879647D01*
X217361810Y-90948157D01*
X217401378Y-91000181D01*
X217460362Y-91029124D01*
X217528872Y-91028025D01*
X217595184Y-90996884D01*
X217653724Y-90948519D01*
X217658565Y-90944494D01*
X217693736Y-90929473D01*
X217728175Y-90921413D01*
X217790823Y-90928374D01*
X217821231Y-90944494D01*
X217849075Y-90958415D01*
X217898336Y-91014647D01*
X217940917Y-91080730D01*
X217965212Y-91133538D01*
X217985133Y-91207915D01*
X217989392Y-91286518D01*
X217983531Y-91341266D01*
X217963502Y-91414051D01*
X217938468Y-91459602D01*
X217884149Y-91511534D01*
X217859699Y-91523715D01*
X217786404Y-91532027D01*
X217759682Y-91527013D01*
X217691876Y-91496015D01*
X217651605Y-91464364D01*
X217640247Y-91454839D01*
G37*
G36*
X216928768Y-91670628D02*
G01*
X216952762Y-91739886D01*
X216989218Y-91780903D01*
X217057468Y-91810618D01*
X217085205Y-91812044D01*
X217156126Y-91786472D01*
X217173499Y-91771378D01*
X217207880Y-91705308D01*
X217211601Y-91666231D01*
X217211601Y-90343290D01*
X217191817Y-90279542D01*
X217141992Y-90232281D01*
X217076046Y-90207735D01*
X217009734Y-90209933D01*
X216957711Y-90244738D01*
X216933321Y-90315122D01*
X216933164Y-90318011D01*
X216930452Y-90395421D01*
X216928406Y-90469289D01*
X216926883Y-90549374D01*
X216926230Y-90624834D01*
X216926203Y-90642976D01*
X216926406Y-90723962D01*
X216927015Y-90805354D01*
X216928029Y-90887151D01*
X216928768Y-90932770D01*
X216870447Y-90887510D01*
X216827651Y-90850704D01*
X216771610Y-90798334D01*
X216733862Y-90761311D01*
X216685040Y-90705053D01*
X216652529Y-90662393D01*
X216598310Y-90609452D01*
X216552878Y-90586922D01*
X216477645Y-90580946D01*
X216470446Y-90582526D01*
X216405600Y-90618429D01*
X216369696Y-90683642D01*
X216371688Y-90757516D01*
X216374092Y-90765708D01*
X216412250Y-90829335D01*
X216426482Y-90847041D01*
X216474950Y-90902669D01*
X216516974Y-90947058D01*
X216569604Y-90998891D01*
X216615526Y-91040847D01*
X216671433Y-91088587D01*
X216694295Y-91106793D01*
X216643712Y-91162191D01*
X216593630Y-91218019D01*
X216544050Y-91274276D01*
X216534193Y-91285579D01*
X216484713Y-91342136D01*
X216434731Y-91398694D01*
X216384249Y-91455251D01*
X216374092Y-91466563D01*
X216323946Y-91521380D01*
X216308147Y-91537637D01*
X216262268Y-91596706D01*
X216253192Y-91612742D01*
X216241424Y-91686842D01*
X216241835Y-91689312D01*
X216273342Y-91757822D01*
X216333426Y-91800687D01*
X216408490Y-91803593D01*
X216411095Y-91802885D01*
X216476300Y-91769375D01*
X216488032Y-91760020D01*
X216541681Y-91710012D01*
X216558740Y-91691877D01*
X216607100Y-91634793D01*
X216622487Y-91615307D01*
X216670053Y-91556883D01*
X216678175Y-91547896D01*
X216728895Y-91489496D01*
X216779253Y-91431581D01*
X216802372Y-91405013D01*
X216852748Y-91348107D01*
X216904455Y-91292289D01*
X216928768Y-91266894D01*
X216928768Y-91670628D01*
G37*
G36*
X215512846Y-90679336D02*
G01*
X215586409Y-90686939D01*
X215603239Y-90689864D01*
X215674337Y-90707822D01*
X215731540Y-90730981D01*
X215806485Y-90770436D01*
X215875435Y-90818096D01*
X215938389Y-90873960D01*
X215987578Y-90928374D01*
X216015675Y-90964968D01*
X216056088Y-91028025D01*
X216077442Y-91067042D01*
X216108112Y-91137201D01*
X216116126Y-91160442D01*
X216137421Y-91232090D01*
X216143168Y-91256613D01*
X216154640Y-91332107D01*
X216156868Y-91398883D01*
X216151091Y-91474359D01*
X216134124Y-91548995D01*
X216123807Y-91577543D01*
X216089366Y-91644654D01*
X216039968Y-91705432D01*
X216014921Y-91727818D01*
X215953759Y-91768719D01*
X215883164Y-91799221D01*
X215828997Y-91814104D01*
X215750464Y-91825112D01*
X215672138Y-91826332D01*
X215606512Y-91820793D01*
X215531821Y-91803984D01*
X215469447Y-91777240D01*
X215405425Y-91735840D01*
X215376621Y-91769710D01*
X215312735Y-91809846D01*
X215289719Y-91816408D01*
X215213817Y-91813510D01*
X215197489Y-91806846D01*
X215143108Y-91754159D01*
X215130108Y-91717889D01*
X215136147Y-91642784D01*
X215226516Y-91457404D01*
X215512037Y-91457404D01*
X215569923Y-91502466D01*
X215627808Y-91538370D01*
X215629989Y-91539224D01*
X215703279Y-91550094D01*
X215708344Y-91549755D01*
X215779849Y-91529211D01*
X215786491Y-91525556D01*
X215841399Y-91474623D01*
X215851497Y-91458073D01*
X215869242Y-91385230D01*
X215869620Y-91377857D01*
X215862648Y-91304263D01*
X215860198Y-91293856D01*
X215839200Y-91222930D01*
X215816831Y-91170142D01*
X215774473Y-91106068D01*
X215723063Y-91053670D01*
X215679992Y-91020949D01*
X215610492Y-90984490D01*
X215535118Y-90963178D01*
X215535682Y-90978832D01*
X215537557Y-91056841D01*
X215537857Y-91134422D01*
X215536584Y-91211573D01*
X215536058Y-91226916D01*
X215531414Y-91303674D01*
X215523407Y-91380503D01*
X215512037Y-91457404D01*
X215226516Y-91457404D01*
X215228838Y-91452641D01*
X215239462Y-91398053D01*
X215245324Y-91327344D01*
X215247522Y-91256636D01*
X215247522Y-91202048D01*
X215248764Y-91151327D01*
X215248621Y-91077850D01*
X215247910Y-91027297D01*
X215247522Y-90951454D01*
X215246423Y-90885509D01*
X215246423Y-90835683D01*
X215257048Y-90791353D01*
X215287090Y-90742627D01*
X215299446Y-90728399D01*
X215364759Y-90693900D01*
X215397774Y-90686451D01*
X215473935Y-90678879D01*
X215512846Y-90679336D01*
G37*
G36*
X214211078Y-90235579D02*
G01*
X214217243Y-90239874D01*
X214260903Y-90299326D01*
X214272627Y-90370034D01*
X214275306Y-90409207D01*
X214277023Y-90482508D01*
X214276813Y-90538027D01*
X214275924Y-90611468D01*
X214275039Y-90655240D01*
X214272627Y-90728705D01*
X214338127Y-90720290D01*
X214412944Y-90716981D01*
X214478992Y-90720040D01*
X214553262Y-90730903D01*
X214624181Y-90750545D01*
X214695166Y-90780499D01*
X214758792Y-90819197D01*
X214800123Y-90852124D01*
X214854305Y-90907525D01*
X214899110Y-90970139D01*
X214926731Y-91021105D01*
X214956527Y-91093748D01*
X214976779Y-91165045D01*
X214988850Y-91232608D01*
X214995104Y-91309075D01*
X214993998Y-91387794D01*
X214989167Y-91439062D01*
X214972045Y-91512444D01*
X214943073Y-91581601D01*
X214924659Y-91613981D01*
X214878134Y-91677246D01*
X214822540Y-91731078D01*
X214788950Y-91755894D01*
X214720988Y-91793331D01*
X214651814Y-91817906D01*
X214603133Y-91828164D01*
X214528223Y-91831874D01*
X214451046Y-91821570D01*
X214393715Y-91806272D01*
X214323918Y-91783101D01*
X214271936Y-91760571D01*
X214207780Y-91721919D01*
X214167200Y-91755115D01*
X214097505Y-91780903D01*
X214073359Y-91781907D01*
X214001151Y-91760020D01*
X213983039Y-91745000D01*
X213948761Y-91680153D01*
X213947569Y-91630685D01*
X213975505Y-91559253D01*
X213991625Y-91536172D01*
X213991608Y-91460266D01*
X213991557Y-91384589D01*
X213991471Y-91309141D01*
X213991351Y-91233921D01*
X213991297Y-91207909D01*
X214267864Y-91207909D01*
X214267864Y-91243209D01*
X214267864Y-91320576D01*
X214267864Y-91399152D01*
X214280687Y-91417836D01*
X214297906Y-91431758D01*
X214309392Y-91444008D01*
X214366994Y-91490871D01*
X214436025Y-91522250D01*
X214450662Y-91526314D01*
X214526069Y-91538711D01*
X214599790Y-91538370D01*
X214649616Y-91506130D01*
X214671598Y-91487445D01*
X214678307Y-91478137D01*
X214711165Y-91409776D01*
X214713185Y-91402142D01*
X214721423Y-91327344D01*
X214720829Y-91314239D01*
X214708967Y-91241615D01*
X214704493Y-91225004D01*
X214683321Y-91153321D01*
X214661841Y-91115095D01*
X214607850Y-91060631D01*
X214574024Y-91040422D01*
X214503436Y-91014103D01*
X214460331Y-91005980D01*
X214386200Y-91002745D01*
X214345203Y-91005339D01*
X214270062Y-91016301D01*
X214269315Y-91052730D01*
X214268227Y-91130864D01*
X214267864Y-91207909D01*
X213991297Y-91207909D01*
X213991196Y-91158931D01*
X213991007Y-91084170D01*
X213990784Y-91009638D01*
X213990526Y-90935334D01*
X213990303Y-90860945D01*
X213990183Y-90786339D01*
X213990166Y-90711515D01*
X213990252Y-90636473D01*
X213990441Y-90561214D01*
X213990732Y-90485737D01*
X213991127Y-90410043D01*
X213991625Y-90334131D01*
X213998586Y-90312149D01*
X214010310Y-90290167D01*
X214014358Y-90282922D01*
X214067096Y-90230816D01*
X214140369Y-90212498D01*
X214211078Y-90235579D01*
G37*
G36*
X213058206Y-90679336D02*
G01*
X213131769Y-90686939D01*
X213148598Y-90689864D01*
X213219696Y-90707822D01*
X213276899Y-90730981D01*
X213351845Y-90770436D01*
X213420795Y-90818096D01*
X213483749Y-90873960D01*
X213532937Y-90928374D01*
X213561035Y-90964968D01*
X213601448Y-91028025D01*
X213622802Y-91067042D01*
X213653471Y-91137201D01*
X213661485Y-91160442D01*
X213682780Y-91232090D01*
X213688528Y-91256613D01*
X213700000Y-91332107D01*
X213702228Y-91398883D01*
X213696450Y-91474359D01*
X213679483Y-91548995D01*
X213669167Y-91577543D01*
X213634725Y-91644654D01*
X213585327Y-91705432D01*
X213560280Y-91727818D01*
X213499118Y-91768719D01*
X213428524Y-91799221D01*
X213374357Y-91814104D01*
X213295823Y-91825112D01*
X213217498Y-91826332D01*
X213151871Y-91820793D01*
X213077180Y-91803984D01*
X213014807Y-91777240D01*
X212950785Y-91735840D01*
X212921980Y-91769710D01*
X212858094Y-91809846D01*
X212835079Y-91816408D01*
X212759176Y-91813510D01*
X212742849Y-91806846D01*
X212688468Y-91754159D01*
X212675468Y-91717889D01*
X212681507Y-91642784D01*
X212771875Y-91457404D01*
X213057397Y-91457404D01*
X213115282Y-91502466D01*
X213173168Y-91538370D01*
X213175349Y-91539224D01*
X213248639Y-91550094D01*
X213253703Y-91549755D01*
X213325209Y-91529211D01*
X213331851Y-91525556D01*
X213386758Y-91474623D01*
X213396856Y-91458073D01*
X213414602Y-91385230D01*
X213414980Y-91377857D01*
X213408007Y-91304263D01*
X213405557Y-91293856D01*
X213384560Y-91222930D01*
X213362191Y-91170142D01*
X213319833Y-91106068D01*
X213268422Y-91053670D01*
X213225352Y-91020949D01*
X213155851Y-90984490D01*
X213080478Y-90963178D01*
X213081041Y-90978832D01*
X213082916Y-91056841D01*
X213083217Y-91134422D01*
X213081943Y-91211573D01*
X213081418Y-91226916D01*
X213076774Y-91303674D01*
X213068767Y-91380503D01*
X213057397Y-91457404D01*
X212771875Y-91457404D01*
X212774197Y-91452641D01*
X212784822Y-91398053D01*
X212790683Y-91327344D01*
X212792882Y-91256636D01*
X212792882Y-91202048D01*
X212794123Y-91151327D01*
X212793981Y-91077850D01*
X212793269Y-91027297D01*
X212792882Y-90951454D01*
X212791782Y-90885509D01*
X212791782Y-90835683D01*
X212802407Y-90791353D01*
X212832449Y-90742627D01*
X212844806Y-90728399D01*
X212910118Y-90693900D01*
X212943134Y-90686451D01*
X213019295Y-90678879D01*
X213058206Y-90679336D01*
G37*
G36*
X211750575Y-90721744D02*
G01*
X211698572Y-90666933D01*
X211680966Y-90657997D01*
X211606169Y-90648389D01*
X211598534Y-90649937D01*
X211532649Y-90685795D01*
X211526727Y-90691702D01*
X211491732Y-90758120D01*
X211488258Y-90777431D01*
X211494093Y-90850965D01*
X211503279Y-90888806D01*
X211525353Y-90961804D01*
X211550206Y-91032403D01*
X211552006Y-91037184D01*
X211579462Y-91107439D01*
X211609458Y-91179006D01*
X211611357Y-91183363D01*
X211641560Y-91252168D01*
X211660083Y-91292540D01*
X211695228Y-91368342D01*
X211731740Y-91443477D01*
X211769620Y-91517947D01*
X211808867Y-91591750D01*
X211831908Y-91633625D01*
X211872688Y-91706609D01*
X211913924Y-91779383D01*
X211955615Y-91851947D01*
X211997762Y-91924300D01*
X212022051Y-91965551D01*
X212054658Y-92027833D01*
X212087836Y-92094631D01*
X212092759Y-92104403D01*
X212128222Y-92169999D01*
X212133426Y-92178775D01*
X212172627Y-92230066D01*
X212236718Y-92270732D01*
X212258722Y-92276228D01*
X212331787Y-92267782D01*
X212338590Y-92264504D01*
X212392532Y-92213851D01*
X212396842Y-92206618D01*
X212414865Y-92135304D01*
X212414061Y-92111730D01*
X212395743Y-92057142D01*
X212360967Y-91992012D01*
X212358374Y-91987533D01*
X212319218Y-91923111D01*
X212316608Y-91919023D01*
X212284002Y-91865533D01*
X212244241Y-91798534D01*
X212205743Y-91731536D01*
X212194975Y-91712393D01*
X212157008Y-91645394D01*
X212118760Y-91578395D01*
X212107780Y-91559253D01*
X212163778Y-91510425D01*
X212216917Y-91459562D01*
X212275298Y-91397649D01*
X212329787Y-91332967D01*
X212373394Y-91275321D01*
X212420112Y-91205229D01*
X212461851Y-91132157D01*
X212498612Y-91056104D01*
X212530393Y-90977071D01*
X212546318Y-90930572D01*
X212569766Y-90865725D01*
X212576360Y-90798314D01*
X212554745Y-90727606D01*
X212509316Y-90676315D01*
X212445568Y-90654333D01*
X212372295Y-90670453D01*
X212325034Y-90715882D01*
X212295725Y-90778531D01*
X212275942Y-90847041D01*
X212256158Y-90909689D01*
X212224867Y-90979828D01*
X212188924Y-91046675D01*
X212148331Y-91110230D01*
X212103086Y-91170495D01*
X212053191Y-91227467D01*
X211998644Y-91281148D01*
X211975523Y-91301699D01*
X211942710Y-91232021D01*
X211911684Y-91162206D01*
X211882443Y-91092253D01*
X211854989Y-91022163D01*
X211828977Y-90951638D01*
X211804431Y-90880380D01*
X211781350Y-90808389D01*
X211759734Y-90735666D01*
X211750575Y-90721744D01*
G37*
G36*
X211009787Y-91617505D02*
G01*
X211023603Y-91691820D01*
X211036531Y-91716057D01*
X211088456Y-91769079D01*
X211102843Y-91777606D01*
X211174994Y-91798761D01*
X211189672Y-91799588D01*
X211263196Y-91789039D01*
X211279064Y-91783101D01*
X211340415Y-91739960D01*
X211349773Y-91728879D01*
X211379586Y-91661285D01*
X211383478Y-91633625D01*
X211375135Y-91560030D01*
X211361496Y-91532875D01*
X211308120Y-91479852D01*
X211292986Y-91471325D01*
X211220522Y-91450451D01*
X211202494Y-91449344D01*
X211127184Y-91459539D01*
X211110903Y-91465464D01*
X211050085Y-91507472D01*
X211038729Y-91521151D01*
X211011596Y-91589638D01*
X211009787Y-91617505D01*
G37*
G36*
X210534612Y-91680153D02*
G01*
X210559081Y-91750748D01*
X210567219Y-91762219D01*
X210624305Y-91811409D01*
X210630966Y-91814609D01*
X210706031Y-91822117D01*
X210708635Y-91821570D01*
X210772594Y-91782901D01*
X210783007Y-91770645D01*
X210809752Y-91718255D01*
X210820010Y-91658171D01*
X210821109Y-91595523D01*
X210820010Y-91538370D01*
X210820986Y-91461676D01*
X210821440Y-91385330D01*
X210821372Y-91309332D01*
X210821109Y-91267260D01*
X210820752Y-91191249D01*
X210820916Y-91114890D01*
X210821602Y-91038183D01*
X210822208Y-90995418D01*
X210825206Y-90921855D01*
X210829169Y-90882944D01*
X210829312Y-90808885D01*
X210822208Y-90770471D01*
X210786817Y-90704399D01*
X210781542Y-90698663D01*
X210718932Y-90657626D01*
X210716695Y-90656898D01*
X210642690Y-90654333D01*
X210581692Y-90695908D01*
X210576378Y-90703060D01*
X210542302Y-90769376D01*
X210539375Y-90795017D01*
X210539375Y-90870015D01*
X210539375Y-90904926D01*
X210539375Y-90979034D01*
X210539375Y-91052982D01*
X210539375Y-91062829D01*
X210538811Y-91136192D01*
X210536968Y-91213380D01*
X210536810Y-91218168D01*
X210535559Y-91294738D01*
X210534827Y-91371308D01*
X210534612Y-91440917D01*
X210534612Y-91517487D01*
X210534612Y-91594057D01*
X210534612Y-91663667D01*
X210534612Y-91680153D01*
G37*
G36*
X210840893Y-90359776D02*
G01*
X210821567Y-90285129D01*
X210781908Y-90233381D01*
X210717022Y-90198862D01*
X210676029Y-90193813D01*
X210603441Y-90214546D01*
X210573080Y-90236678D01*
X210532409Y-90298544D01*
X210522889Y-90355013D01*
X210532279Y-90428675D01*
X210563921Y-90477013D01*
X210628589Y-90517337D01*
X210666870Y-90525739D01*
X210740004Y-90514650D01*
X210776046Y-90494232D01*
X210822699Y-90434663D01*
X210838695Y-90375896D01*
X210840893Y-90359776D01*
G37*
G36*
X209847480Y-90696621D02*
G01*
X209921166Y-90715555D01*
X209994591Y-90747390D01*
X210049492Y-90779659D01*
X210107431Y-90826158D01*
X210153950Y-90874173D01*
X210201221Y-90934235D01*
X210237558Y-90990902D01*
X210271929Y-91058433D01*
X210296326Y-91119709D01*
X210317358Y-91190324D01*
X210319556Y-91204246D01*
X210328482Y-91259764D01*
X210336043Y-91333206D01*
X210335963Y-91390768D01*
X210324319Y-91464364D01*
X210312744Y-91508809D01*
X210288415Y-91580136D01*
X210267476Y-91624656D01*
X210226866Y-91687114D01*
X210204326Y-91714749D01*
X210149197Y-91766981D01*
X210118307Y-91789201D01*
X210052843Y-91826332D01*
X210038056Y-91833518D01*
X209964246Y-91859700D01*
X209890651Y-91869639D01*
X209817271Y-91863335D01*
X209802689Y-91860254D01*
X209731971Y-91838966D01*
X209664902Y-91807875D01*
X209601482Y-91766981D01*
X209589272Y-91757732D01*
X209531484Y-91707407D01*
X209479134Y-91650284D01*
X209432222Y-91586364D01*
X209427827Y-91579608D01*
X209389029Y-91511931D01*
X209359606Y-91444039D01*
X209338066Y-91369110D01*
X209326737Y-91298613D01*
X209323046Y-91221831D01*
X209325191Y-91180240D01*
X209602882Y-91180240D01*
X209605146Y-91256636D01*
X209610719Y-91289914D01*
X209631807Y-91360336D01*
X209665230Y-91428461D01*
X209674530Y-91443475D01*
X209722275Y-91503661D01*
X209781367Y-91550094D01*
X209807517Y-91563168D01*
X209881018Y-91579036D01*
X209892484Y-91578384D01*
X209963450Y-91552658D01*
X209976425Y-91542397D01*
X210021336Y-91483049D01*
X210032512Y-91457389D01*
X210050279Y-91385230D01*
X210050645Y-91312323D01*
X210038921Y-91239050D01*
X210027651Y-91206278D01*
X209996057Y-91137201D01*
X209980288Y-91110807D01*
X209933408Y-91052571D01*
X209912021Y-91033299D01*
X209848412Y-90994319D01*
X209817063Y-90982727D01*
X209741800Y-90972337D01*
X209725757Y-90979262D01*
X209664428Y-91022138D01*
X209623464Y-91087376D01*
X209616606Y-91107491D01*
X209602882Y-91180240D01*
X209325191Y-91180240D01*
X209326801Y-91149016D01*
X209335868Y-91071988D01*
X209353213Y-90999946D01*
X209382211Y-90928303D01*
X209421598Y-90864626D01*
X209455784Y-90823731D01*
X209513675Y-90772520D01*
X209579501Y-90733468D01*
X209626807Y-90714165D01*
X209701374Y-90695944D01*
X209780268Y-90690603D01*
X209847480Y-90696621D01*
G37*
G36*
X208463189Y-90132264D02*
G01*
X208411186Y-90078123D01*
X208393579Y-90069616D01*
X208320490Y-90059918D01*
X208310048Y-90061556D01*
X208243074Y-90096324D01*
X208237142Y-90102222D01*
X208203598Y-90168640D01*
X208200872Y-90187951D01*
X208210397Y-90251699D01*
X208236184Y-90321606D01*
X208237142Y-90323872D01*
X208268283Y-90389818D01*
X208289166Y-90431584D01*
X208319620Y-90502539D01*
X208350074Y-90573075D01*
X208358775Y-90593150D01*
X208389229Y-90663315D01*
X208419683Y-90734040D01*
X208428384Y-90754351D01*
X208459141Y-90825648D01*
X208489865Y-90896843D01*
X208520553Y-90967935D01*
X208551208Y-91038924D01*
X208581828Y-91109810D01*
X208612413Y-91180592D01*
X208642965Y-91251272D01*
X208673482Y-91321849D01*
X208703947Y-91392265D01*
X208734527Y-91462647D01*
X208765222Y-91532995D01*
X208796031Y-91603308D01*
X208826954Y-91673587D01*
X208857992Y-91743832D01*
X208889144Y-91814042D01*
X208920411Y-91884218D01*
X208971967Y-91939758D01*
X208979396Y-91943203D01*
X209052245Y-91953220D01*
X209062927Y-91951263D01*
X209130928Y-91918124D01*
X209139497Y-91910596D01*
X209175162Y-91843788D01*
X209177965Y-91823768D01*
X209171439Y-91750037D01*
X209155983Y-91710195D01*
X209122982Y-91642818D01*
X209103593Y-91598820D01*
X209073139Y-91527934D01*
X209042685Y-91457610D01*
X209033984Y-91437620D01*
X209003530Y-91367275D01*
X208973076Y-91296650D01*
X208964375Y-91276420D01*
X208935432Y-91211573D01*
X208905290Y-91143306D01*
X208892568Y-91114120D01*
X208862972Y-91045971D01*
X208844940Y-91003845D01*
X208814301Y-90933565D01*
X208799511Y-90900530D01*
X208770270Y-90832968D01*
X208766172Y-90822861D01*
X208753349Y-90791353D01*
X208721896Y-90720257D01*
X208690688Y-90649301D01*
X208659726Y-90578486D01*
X208629009Y-90507810D01*
X208611566Y-90467487D01*
X208581112Y-90397015D01*
X208550658Y-90326647D01*
X208520204Y-90256385D01*
X208489750Y-90186228D01*
X208472348Y-90146186D01*
X208463189Y-90132264D01*
G37*
G36*
X207964401Y-90674586D02*
G01*
X208030879Y-90706723D01*
X208049539Y-90725119D01*
X208083269Y-90791353D01*
X208085467Y-90805275D01*
X208085467Y-92218342D01*
X208084450Y-92236911D01*
X208056524Y-92305170D01*
X208049123Y-92313906D01*
X207988014Y-92356461D01*
X207978054Y-92359799D01*
X207904483Y-92359759D01*
X207885772Y-92353212D01*
X207830111Y-92304071D01*
X207812892Y-92242522D01*
X207809479Y-92213070D01*
X207803733Y-92139207D01*
X207801500Y-92095124D01*
X207800069Y-92018674D01*
X207800069Y-91976685D01*
X207800069Y-91902536D01*
X207800086Y-91889542D01*
X207801168Y-91814609D01*
X207802267Y-91777606D01*
X207766521Y-91779598D01*
X207688894Y-91779672D01*
X207611025Y-91773942D01*
X207575176Y-91769065D01*
X207499447Y-91751428D01*
X207426378Y-91724117D01*
X207385890Y-91704019D01*
X207320720Y-91661756D01*
X207265462Y-91611669D01*
X207220115Y-91553757D01*
X207211308Y-91539910D01*
X207173712Y-91468784D01*
X207146850Y-91394509D01*
X207130722Y-91317086D01*
X207128720Y-91301242D01*
X207125884Y-91246858D01*
X207398200Y-91246858D01*
X207410419Y-91319450D01*
X207447260Y-91386695D01*
X207475811Y-91417187D01*
X207539996Y-91461256D01*
X207612124Y-91487445D01*
X207634194Y-91492870D01*
X207709577Y-91501367D01*
X207726901Y-91501123D01*
X207802267Y-91494406D01*
X207802267Y-91111556D01*
X207793108Y-91103496D01*
X207786147Y-91092871D01*
X207777366Y-91082787D01*
X207727163Y-91028025D01*
X207719160Y-91020131D01*
X207656088Y-90979298D01*
X207632286Y-90970971D01*
X207556437Y-90970139D01*
X207540238Y-90976094D01*
X207479867Y-91018866D01*
X207464365Y-91037207D01*
X207427477Y-91103496D01*
X207418386Y-91128202D01*
X207400732Y-91199849D01*
X207398200Y-91246858D01*
X207125884Y-91246858D01*
X207124591Y-91222066D01*
X207130265Y-91142961D01*
X207145743Y-91063928D01*
X207149946Y-91048256D01*
X207176157Y-90973717D01*
X207211026Y-90905546D01*
X207254553Y-90843743D01*
X207264274Y-90832166D01*
X207317390Y-90780030D01*
X207378019Y-90737483D01*
X207446161Y-90704525D01*
X207482828Y-90692403D01*
X207561153Y-90680611D01*
X207637335Y-90684192D01*
X207709577Y-90698663D01*
X207767463Y-90719546D01*
X207818387Y-90744825D01*
X207822448Y-90737655D01*
X207876639Y-90686939D01*
X207881279Y-90684696D01*
X207954309Y-90673018D01*
X207964401Y-90674586D01*
G37*
G36*
X206555523Y-90690404D02*
G01*
X206628996Y-90705529D01*
X206701343Y-90728705D01*
X206764777Y-90756154D01*
X206830339Y-90792628D01*
X206891486Y-90835683D01*
X206926784Y-90865699D01*
X206977015Y-90920336D01*
X207016782Y-90984061D01*
X207018647Y-90988130D01*
X207044876Y-91057613D01*
X207063311Y-91130240D01*
X207065254Y-91140371D01*
X207075268Y-91216991D01*
X207077233Y-91294738D01*
X207076836Y-91305166D01*
X207069028Y-91382559D01*
X207052686Y-91458503D01*
X207049843Y-91468419D01*
X207022403Y-91538502D01*
X206984176Y-91601018D01*
X206954336Y-91639714D01*
X206900815Y-91696670D01*
X206839462Y-91745000D01*
X206814808Y-91760064D01*
X206748195Y-91791277D01*
X206672400Y-91812044D01*
X206632677Y-91817679D01*
X206555650Y-91819772D01*
X206480792Y-91812044D01*
X206409176Y-91797931D01*
X206334877Y-91777758D01*
X206265003Y-91754159D01*
X206232236Y-91741691D01*
X206165352Y-91710195D01*
X206137090Y-91693605D01*
X206081454Y-91642784D01*
X206066931Y-91621694D01*
X206042254Y-91550094D01*
X206042119Y-91547360D01*
X206063136Y-91476088D01*
X206066100Y-91472356D01*
X206129448Y-91432857D01*
X206154574Y-91427760D01*
X206228000Y-91433956D01*
X206241922Y-91440917D01*
X206304387Y-91474348D01*
X206371615Y-91505031D01*
X206436632Y-91527818D01*
X206509734Y-91543133D01*
X206564431Y-91546584D01*
X206640893Y-91537271D01*
X206696567Y-91514253D01*
X206752267Y-91466563D01*
X206747774Y-91465124D01*
X206674318Y-91443280D01*
X206602791Y-91424797D01*
X206593052Y-91422432D01*
X206521015Y-91402773D01*
X206450750Y-91379734D01*
X206441472Y-91376355D01*
X206373074Y-91348733D01*
X206306769Y-91317086D01*
X206298113Y-91312468D01*
X206236117Y-91272449D01*
X206179274Y-91222930D01*
X206175540Y-91219140D01*
X206130181Y-91159366D01*
X206103803Y-91089574D01*
X206098969Y-91041946D01*
X206374180Y-91041946D01*
X206374225Y-91043980D01*
X206420708Y-91102397D01*
X206465167Y-91125848D01*
X206534281Y-91153321D01*
X206603432Y-91175853D01*
X206676796Y-91197285D01*
X206739958Y-91215137D01*
X206812718Y-91236852D01*
X206802019Y-91180953D01*
X206775715Y-91110457D01*
X206754793Y-91081042D01*
X206696580Y-91034986D01*
X206654815Y-91011905D01*
X206609685Y-90991709D01*
X206538677Y-90972337D01*
X206478681Y-90967238D01*
X206404221Y-90981496D01*
X206380041Y-91006043D01*
X206374180Y-91041946D01*
X206098969Y-91041946D01*
X206096864Y-91021203D01*
X206107100Y-90944494D01*
X206133570Y-90875251D01*
X206175610Y-90811137D01*
X206230382Y-90756823D01*
X206295045Y-90716981D01*
X206332817Y-90701987D01*
X206409476Y-90685583D01*
X206487752Y-90683642D01*
X206555523Y-90690404D01*
G37*
G36*
X205079815Y-90235579D02*
G01*
X205085980Y-90239874D01*
X205129640Y-90299326D01*
X205141364Y-90370034D01*
X205144043Y-90409207D01*
X205145760Y-90482508D01*
X205145550Y-90538027D01*
X205144661Y-90611468D01*
X205143776Y-90655240D01*
X205141364Y-90728705D01*
X205206864Y-90720290D01*
X205281681Y-90716981D01*
X205347729Y-90720040D01*
X205421999Y-90730903D01*
X205492917Y-90750545D01*
X205563903Y-90780499D01*
X205627529Y-90819197D01*
X205668860Y-90852124D01*
X205723041Y-90907525D01*
X205767847Y-90970139D01*
X205795468Y-91021105D01*
X205825264Y-91093748D01*
X205845516Y-91165045D01*
X205857587Y-91232608D01*
X205863841Y-91309075D01*
X205862735Y-91387794D01*
X205857904Y-91439062D01*
X205840782Y-91512444D01*
X205811810Y-91581601D01*
X205793396Y-91613981D01*
X205746871Y-91677246D01*
X205691277Y-91731078D01*
X205657687Y-91755894D01*
X205589725Y-91793331D01*
X205520551Y-91817906D01*
X205471870Y-91828164D01*
X205396960Y-91831874D01*
X205319783Y-91821570D01*
X205262451Y-91806272D01*
X205192655Y-91783101D01*
X205140673Y-91760571D01*
X205076517Y-91721919D01*
X205035937Y-91755115D01*
X204966242Y-91780903D01*
X204942096Y-91781907D01*
X204869888Y-91760020D01*
X204851776Y-91745000D01*
X204817498Y-91680153D01*
X204816306Y-91630685D01*
X204844242Y-91559253D01*
X204860362Y-91536172D01*
X204860345Y-91460266D01*
X204860294Y-91384589D01*
X204860208Y-91309141D01*
X204860088Y-91233921D01*
X204860034Y-91207909D01*
X205136601Y-91207909D01*
X205136601Y-91243209D01*
X205136601Y-91320576D01*
X205136601Y-91399152D01*
X205149424Y-91417836D01*
X205166643Y-91431758D01*
X205178129Y-91444008D01*
X205235731Y-91490871D01*
X205304762Y-91522250D01*
X205319399Y-91526314D01*
X205394806Y-91538711D01*
X205468527Y-91538370D01*
X205518353Y-91506130D01*
X205540334Y-91487445D01*
X205547044Y-91478137D01*
X205579902Y-91409776D01*
X205581922Y-91402142D01*
X205590160Y-91327344D01*
X205589566Y-91314239D01*
X205577704Y-91241615D01*
X205573230Y-91225004D01*
X205552058Y-91153321D01*
X205530578Y-91115095D01*
X205476587Y-91060631D01*
X205442761Y-91040422D01*
X205372173Y-91014103D01*
X205329068Y-91005980D01*
X205254937Y-91002745D01*
X205213940Y-91005339D01*
X205138799Y-91016301D01*
X205138052Y-91052730D01*
X205136964Y-91130864D01*
X205136601Y-91207909D01*
X204860034Y-91207909D01*
X204859933Y-91158931D01*
X204859744Y-91084170D01*
X204859521Y-91009638D01*
X204859263Y-90935334D01*
X204859040Y-90860945D01*
X204858920Y-90786339D01*
X204858903Y-90711515D01*
X204858989Y-90636473D01*
X204859177Y-90561214D01*
X204859469Y-90485737D01*
X204859864Y-90410043D01*
X204860362Y-90334131D01*
X204867323Y-90312149D01*
X204879047Y-90290167D01*
X204883094Y-90282922D01*
X204935833Y-90230816D01*
X205009106Y-90212498D01*
X205079815Y-90235579D01*
G37*
G36*
X204482274Y-91034986D02*
G01*
X204480076Y-91029124D01*
X204482274Y-90974535D01*
X204537487Y-90925398D01*
X204540160Y-90921413D01*
X204564706Y-90851803D01*
X204550785Y-90781095D01*
X204498814Y-90726913D01*
X204493998Y-90723942D01*
X204419376Y-90705497D01*
X204376762Y-90712585D01*
X204306955Y-90741054D01*
X204266486Y-90768272D01*
X204203456Y-90725204D01*
X204145952Y-90693900D01*
X204074777Y-90666067D01*
X204018457Y-90653234D01*
X203944513Y-90649048D01*
X203886200Y-90656531D01*
X203815196Y-90679905D01*
X203753576Y-90714783D01*
X203696990Y-90763276D01*
X203693492Y-90767173D01*
X203659639Y-90832969D01*
X203658688Y-90837882D01*
X203658679Y-90913332D01*
X203667847Y-90938632D01*
X203717014Y-90995973D01*
X203726099Y-91001280D01*
X203800989Y-91014270D01*
X203809630Y-91013004D01*
X203876400Y-90981954D01*
X203897557Y-90963178D01*
X203917341Y-90948157D01*
X203941521Y-90932770D01*
X204014794Y-90937533D01*
X204080181Y-90972974D01*
X204084403Y-90976001D01*
X204141583Y-91023739D01*
X204147051Y-91029124D01*
X204199075Y-91081514D01*
X204199075Y-91673192D01*
X204212997Y-91740237D01*
X204255696Y-91800283D01*
X204279309Y-91814609D01*
X204352778Y-91828469D01*
X204369801Y-91825966D01*
X204435530Y-91792701D01*
X204448569Y-91779804D01*
X204480168Y-91712347D01*
X204482274Y-91684549D01*
X204482274Y-91034986D01*
G37*
G36*
X203164996Y-90696621D02*
G01*
X203238681Y-90715555D01*
X203312107Y-90747390D01*
X203367008Y-90779659D01*
X203424947Y-90826158D01*
X203471465Y-90874173D01*
X203518736Y-90934235D01*
X203555074Y-90990902D01*
X203589445Y-91058433D01*
X203613842Y-91119709D01*
X203634874Y-91190324D01*
X203637072Y-91204246D01*
X203645998Y-91259764D01*
X203653558Y-91333206D01*
X203653478Y-91390768D01*
X203641835Y-91464364D01*
X203630260Y-91508809D01*
X203605931Y-91580136D01*
X203584992Y-91624656D01*
X203544382Y-91687114D01*
X203521842Y-91714749D01*
X203466713Y-91766981D01*
X203435823Y-91789201D01*
X203370359Y-91826332D01*
X203355571Y-91833518D01*
X203281762Y-91859700D01*
X203208167Y-91869639D01*
X203134787Y-91863335D01*
X203120205Y-91860254D01*
X203049487Y-91838966D01*
X202982418Y-91807875D01*
X202918998Y-91766981D01*
X202906788Y-91757732D01*
X202849000Y-91707407D01*
X202796650Y-91650284D01*
X202749738Y-91586364D01*
X202745343Y-91579608D01*
X202706545Y-91511931D01*
X202677121Y-91444039D01*
X202655582Y-91369110D01*
X202644253Y-91298613D01*
X202640561Y-91221831D01*
X202642706Y-91180240D01*
X202920398Y-91180240D01*
X202922662Y-91256636D01*
X202928234Y-91289914D01*
X202949323Y-91360336D01*
X202982745Y-91428461D01*
X202992046Y-91443475D01*
X203039791Y-91503661D01*
X203098883Y-91550094D01*
X203125032Y-91563168D01*
X203198534Y-91579036D01*
X203210000Y-91578384D01*
X203280966Y-91552658D01*
X203293940Y-91542397D01*
X203338852Y-91483049D01*
X203350028Y-91457389D01*
X203367794Y-91385230D01*
X203368161Y-91312323D01*
X203356437Y-91239050D01*
X203345167Y-91206278D01*
X203313572Y-91137201D01*
X203297804Y-91110807D01*
X203250924Y-91052571D01*
X203229537Y-91033299D01*
X203165928Y-90994319D01*
X203134579Y-90982727D01*
X203059316Y-90972337D01*
X203043273Y-90979262D01*
X202981944Y-91022138D01*
X202940980Y-91087376D01*
X202934122Y-91107491D01*
X202920398Y-91180240D01*
X202642706Y-91180240D01*
X202644316Y-91149016D01*
X202653384Y-91071988D01*
X202670729Y-90999946D01*
X202699726Y-90928303D01*
X202739113Y-90864626D01*
X202773300Y-90823731D01*
X202831191Y-90772520D01*
X202897016Y-90733468D01*
X202944323Y-90714165D01*
X203018890Y-90695944D01*
X203097784Y-90690603D01*
X203164996Y-90696621D01*
G37*
G36*
X201945568Y-91081514D02*
G01*
X201945568Y-91048907D01*
X201988836Y-90988293D01*
X202012979Y-90973436D01*
X202083122Y-90950733D01*
X202112630Y-90946692D01*
X202161357Y-90967941D01*
X202193597Y-90993220D01*
X202219242Y-91024727D01*
X202247086Y-91060631D01*
X202247086Y-91668429D01*
X202262327Y-91742722D01*
X202290317Y-91780903D01*
X202353758Y-91820369D01*
X202385572Y-91827431D01*
X202459280Y-91815204D01*
X202481926Y-91801786D01*
X202522635Y-91738534D01*
X202528087Y-91696273D01*
X202529748Y-91615740D01*
X202530882Y-91530579D01*
X202531436Y-91453900D01*
X202531604Y-91373821D01*
X202531385Y-91290341D01*
X202531011Y-91203157D01*
X202530759Y-91127650D01*
X202530560Y-91049549D01*
X202530415Y-90968854D01*
X202530324Y-90885565D01*
X202530287Y-90799682D01*
X202530286Y-90782194D01*
X202509681Y-90711444D01*
X202501343Y-90700861D01*
X202439256Y-90659214D01*
X202431734Y-90656898D01*
X202356220Y-90655808D01*
X202348203Y-90657997D01*
X202286562Y-90698318D01*
X202277494Y-90710020D01*
X202204452Y-90680615D01*
X202131641Y-90665353D01*
X202051012Y-90664981D01*
X202018841Y-90669720D01*
X201940638Y-90691988D01*
X201874354Y-90724266D01*
X201811954Y-90768135D01*
X201785467Y-90791353D01*
X201731036Y-90742023D01*
X201685816Y-90707822D01*
X201619069Y-90672617D01*
X201569678Y-90659096D01*
X201493073Y-90654911D01*
X201424965Y-90664958D01*
X201354348Y-90687764D01*
X201289043Y-90721744D01*
X201230150Y-90765891D01*
X201178768Y-90819197D01*
X201135091Y-90883389D01*
X201108060Y-90944494D01*
X201096519Y-91018625D01*
X201096336Y-91028025D01*
X201096336Y-91659270D01*
X201103297Y-91712393D01*
X201141277Y-91776114D01*
X201169609Y-91797023D01*
X201241585Y-91816146D01*
X201262299Y-91814609D01*
X201330875Y-91783223D01*
X201344364Y-91770279D01*
X201376416Y-91703839D01*
X201379169Y-91670628D01*
X201379169Y-91046709D01*
X201418841Y-90982178D01*
X201439619Y-90965376D01*
X201510465Y-90942095D01*
X201520952Y-90942295D01*
X201591517Y-90965777D01*
X201601186Y-90972337D01*
X201651552Y-91028589D01*
X201662369Y-91048907D01*
X201662369Y-91656706D01*
X201679882Y-91729938D01*
X201703035Y-91761120D01*
X201762761Y-91804348D01*
X201792428Y-91814609D01*
X201867739Y-91812134D01*
X201884019Y-91805450D01*
X201929081Y-91747329D01*
X201933845Y-91721919D01*
X201945568Y-91081514D01*
G37*
G36*
X200553384Y-91680153D02*
G01*
X200577853Y-91750748D01*
X200585990Y-91762219D01*
X200643077Y-91811409D01*
X200649738Y-91814609D01*
X200724802Y-91822117D01*
X200727407Y-91821570D01*
X200791366Y-91782901D01*
X200801779Y-91770645D01*
X200828524Y-91718255D01*
X200838782Y-91658171D01*
X200839881Y-91595523D01*
X200838782Y-91538370D01*
X200839757Y-91461676D01*
X200840211Y-91385330D01*
X200840144Y-91309332D01*
X200839881Y-91267260D01*
X200839523Y-91191249D01*
X200839688Y-91114890D01*
X200840374Y-91038183D01*
X200840980Y-90995418D01*
X200843978Y-90921855D01*
X200847941Y-90882944D01*
X200848084Y-90808885D01*
X200840980Y-90770471D01*
X200805589Y-90704399D01*
X200800314Y-90698663D01*
X200737704Y-90657626D01*
X200735467Y-90656898D01*
X200661461Y-90654333D01*
X200600464Y-90695908D01*
X200595150Y-90703060D01*
X200561074Y-90769376D01*
X200558147Y-90795017D01*
X200558147Y-90870015D01*
X200558147Y-90904926D01*
X200558147Y-90979034D01*
X200558147Y-91052982D01*
X200558147Y-91062829D01*
X200557583Y-91136192D01*
X200555740Y-91213380D01*
X200555582Y-91218168D01*
X200554331Y-91294738D01*
X200553599Y-91371308D01*
X200553384Y-91440917D01*
X200553384Y-91517487D01*
X200553384Y-91594057D01*
X200553384Y-91663667D01*
X200553384Y-91680153D01*
G37*
G36*
X200859665Y-90359776D02*
G01*
X200840339Y-90285129D01*
X200800680Y-90233381D01*
X200735793Y-90198862D01*
X200694801Y-90193813D01*
X200622213Y-90214546D01*
X200591852Y-90236678D01*
X200551181Y-90298544D01*
X200541660Y-90355013D01*
X200551051Y-90428675D01*
X200582693Y-90477013D01*
X200647360Y-90517337D01*
X200685642Y-90525739D01*
X200758776Y-90514650D01*
X200794818Y-90494232D01*
X200841471Y-90434663D01*
X200857466Y-90375896D01*
X200859665Y-90359776D01*
G37*
G36*
X199354640Y-91684549D02*
G01*
X199377891Y-91754602D01*
X199397505Y-91779804D01*
X199459418Y-91820627D01*
X199478838Y-91825966D01*
X199552534Y-91820392D01*
X199565666Y-91814609D01*
X199616837Y-91757829D01*
X199626116Y-91733276D01*
X199641611Y-91658469D01*
X199642602Y-91597721D01*
X199638751Y-91521420D01*
X199637840Y-91466563D01*
X199637732Y-91388360D01*
X199637410Y-91310371D01*
X199636874Y-91232598D01*
X199636741Y-91217069D01*
X199637113Y-91139338D01*
X199640061Y-91061392D01*
X199645585Y-90983232D01*
X199646999Y-90967575D01*
X199651762Y-90959881D01*
X199660921Y-90949256D01*
X199734123Y-90945973D01*
X199774860Y-90956217D01*
X199842809Y-90986757D01*
X199876709Y-91009340D01*
X199929670Y-91064408D01*
X199949982Y-91092138D01*
X199981643Y-91158999D01*
X199985886Y-91192889D01*
X199985886Y-91513091D01*
X199983954Y-91588911D01*
X199983688Y-91594424D01*
X199985651Y-91669677D01*
X199986985Y-91680153D01*
X200009946Y-91750136D01*
X200013729Y-91756723D01*
X200072642Y-91804461D01*
X200081140Y-91807648D01*
X200128401Y-91814609D01*
X200176029Y-91802885D01*
X200235289Y-91757345D01*
X200236479Y-91755258D01*
X200261312Y-91686193D01*
X200261758Y-91683817D01*
X200267620Y-91609445D01*
X200266521Y-91552292D01*
X200266869Y-91477459D01*
X200267620Y-91398419D01*
X200268290Y-91321139D01*
X200268632Y-91247764D01*
X200268719Y-91185928D01*
X200268719Y-91110613D01*
X200268719Y-91031315D01*
X200268719Y-90973803D01*
X200268719Y-90899506D01*
X200268719Y-90826069D01*
X200268719Y-90819197D01*
X200248887Y-90747812D01*
X200238677Y-90734567D01*
X200177889Y-90693534D01*
X200167969Y-90690603D01*
X200093437Y-90691645D01*
X200082240Y-90695000D01*
X200020648Y-90737700D01*
X200006769Y-90756549D01*
X199940628Y-90719665D01*
X199870158Y-90692132D01*
X199802337Y-90675216D01*
X199727282Y-90666617D01*
X199648860Y-90670369D01*
X199592411Y-90682177D01*
X199523082Y-90709912D01*
X199458324Y-90755423D01*
X199427913Y-90786591D01*
X199387195Y-90852210D01*
X199365711Y-90926753D01*
X199359403Y-90997983D01*
X199357205Y-91025826D01*
X199354640Y-91090673D01*
X199354640Y-91684549D01*
G37*
G36*
X198529664Y-90679336D02*
G01*
X198603227Y-90686939D01*
X198620057Y-90689864D01*
X198691154Y-90707822D01*
X198748358Y-90730981D01*
X198823303Y-90770436D01*
X198892253Y-90818096D01*
X198955207Y-90873960D01*
X199004396Y-90928374D01*
X199032493Y-90964968D01*
X199072906Y-91028025D01*
X199094260Y-91067042D01*
X199124930Y-91137201D01*
X199132944Y-91160442D01*
X199154239Y-91232090D01*
X199159986Y-91256613D01*
X199171458Y-91332107D01*
X199173686Y-91398883D01*
X199167909Y-91474359D01*
X199150942Y-91548995D01*
X199140625Y-91577543D01*
X199106184Y-91644654D01*
X199056786Y-91705432D01*
X199031739Y-91727818D01*
X198970577Y-91768719D01*
X198899982Y-91799221D01*
X198845815Y-91814104D01*
X198767282Y-91825112D01*
X198688956Y-91826332D01*
X198623330Y-91820793D01*
X198548639Y-91803984D01*
X198486265Y-91777240D01*
X198422243Y-91735840D01*
X198393439Y-91769710D01*
X198329553Y-91809846D01*
X198306537Y-91816408D01*
X198230635Y-91813510D01*
X198214307Y-91806846D01*
X198159926Y-91754159D01*
X198146926Y-91717889D01*
X198152965Y-91642784D01*
X198243333Y-91457404D01*
X198528855Y-91457404D01*
X198586741Y-91502466D01*
X198644626Y-91538370D01*
X198646807Y-91539224D01*
X198720097Y-91550094D01*
X198725162Y-91549755D01*
X198796667Y-91529211D01*
X198803309Y-91525556D01*
X198858217Y-91474623D01*
X198868314Y-91458073D01*
X198886060Y-91385230D01*
X198886438Y-91377857D01*
X198879466Y-91304263D01*
X198877016Y-91293856D01*
X198856018Y-91222930D01*
X198833649Y-91170142D01*
X198791291Y-91106068D01*
X198739881Y-91053670D01*
X198696810Y-91020949D01*
X198627310Y-90984490D01*
X198551936Y-90963178D01*
X198552500Y-90978832D01*
X198554375Y-91056841D01*
X198554675Y-91134422D01*
X198553401Y-91211573D01*
X198552876Y-91226916D01*
X198548232Y-91303674D01*
X198540225Y-91380503D01*
X198528855Y-91457404D01*
X198243333Y-91457404D01*
X198245655Y-91452641D01*
X198256280Y-91398053D01*
X198262142Y-91327344D01*
X198264340Y-91256636D01*
X198264340Y-91202048D01*
X198265582Y-91151327D01*
X198265439Y-91077850D01*
X198264728Y-91027297D01*
X198264340Y-90951454D01*
X198263241Y-90885509D01*
X198263241Y-90835683D01*
X198273866Y-90791353D01*
X198303907Y-90742627D01*
X198316264Y-90728399D01*
X198381577Y-90693900D01*
X198414592Y-90686451D01*
X198490753Y-90678879D01*
X198529664Y-90679336D01*
G37*
G36*
X197889183Y-90971238D02*
G01*
X197956326Y-90941545D01*
X197969417Y-90931671D01*
X198013896Y-90871414D01*
X198015579Y-90866824D01*
X198016355Y-90792359D01*
X198015579Y-90789888D01*
X197971771Y-90728074D01*
X197958792Y-90717714D01*
X197889569Y-90690550D01*
X197875261Y-90689870D01*
X197801346Y-90689870D01*
X197784769Y-90689870D01*
X197787334Y-90618796D01*
X197788799Y-90542731D01*
X197788433Y-90499361D01*
X197784755Y-90424422D01*
X197780006Y-90375530D01*
X197761197Y-90302787D01*
X197754727Y-90292732D01*
X197699087Y-90243168D01*
X197639689Y-90231549D01*
X197566987Y-90256388D01*
X197527215Y-90297494D01*
X197509630Y-90325338D01*
X197501570Y-90355380D01*
X197500233Y-90433690D01*
X197500346Y-90512001D01*
X197500471Y-90522442D01*
X197501259Y-90600833D01*
X197501560Y-90674143D01*
X197501570Y-90689870D01*
X197318387Y-90689870D01*
X197248469Y-90716001D01*
X197246580Y-90717714D01*
X197204512Y-90779891D01*
X197203715Y-90782194D01*
X197196406Y-90855950D01*
X197196755Y-90858398D01*
X197232658Y-90922878D01*
X197298102Y-90958942D01*
X197356856Y-90969040D01*
X197432914Y-90970755D01*
X197501570Y-90971238D01*
X197501713Y-91051116D01*
X197502142Y-91130921D01*
X197502858Y-91210656D01*
X197503035Y-91226594D01*
X197503364Y-91306314D01*
X197502978Y-91386106D01*
X197501876Y-91465969D01*
X197501570Y-91481950D01*
X197499203Y-91555986D01*
X197496074Y-91595523D01*
X197496743Y-91669604D01*
X197503768Y-91706898D01*
X197541611Y-91771315D01*
X197543335Y-91772843D01*
X197605983Y-91803251D01*
X197678157Y-91798489D01*
X197743673Y-91763799D01*
X197747766Y-91760387D01*
X197772313Y-91704699D01*
X197782107Y-91629373D01*
X197782571Y-91621168D01*
X197783516Y-91547526D01*
X197782571Y-91511992D01*
X197782571Y-91435028D01*
X197782571Y-91391458D01*
X197782846Y-91315712D01*
X197783603Y-91242205D01*
X197783670Y-91237219D01*
X197784459Y-91163851D01*
X197784768Y-91089674D01*
X197784769Y-91085177D01*
X197784769Y-91010191D01*
X197784769Y-90971238D01*
X197889183Y-90971238D01*
G37*
G36*
X196671015Y-90690404D02*
G01*
X196744488Y-90705529D01*
X196816835Y-90728705D01*
X196880269Y-90756154D01*
X196945831Y-90792628D01*
X197006978Y-90835683D01*
X197042275Y-90865699D01*
X197092507Y-90920336D01*
X197132274Y-90984061D01*
X197134139Y-90988130D01*
X197160368Y-91057613D01*
X197178803Y-91130240D01*
X197180746Y-91140371D01*
X197190760Y-91216991D01*
X197192725Y-91294738D01*
X197192328Y-91305166D01*
X197184520Y-91382559D01*
X197168178Y-91458503D01*
X197165335Y-91468419D01*
X197137895Y-91538502D01*
X197099668Y-91601018D01*
X197069828Y-91639714D01*
X197016307Y-91696670D01*
X196954954Y-91745000D01*
X196930300Y-91760064D01*
X196863687Y-91791277D01*
X196787892Y-91812044D01*
X196748169Y-91817679D01*
X196671142Y-91819772D01*
X196596284Y-91812044D01*
X196524668Y-91797931D01*
X196450369Y-91777758D01*
X196380495Y-91754159D01*
X196347728Y-91741691D01*
X196280844Y-91710195D01*
X196252582Y-91693605D01*
X196196946Y-91642784D01*
X196182423Y-91621694D01*
X196157745Y-91550094D01*
X196157611Y-91547360D01*
X196178628Y-91476088D01*
X196181592Y-91472356D01*
X196244940Y-91432857D01*
X196270066Y-91427760D01*
X196343492Y-91433956D01*
X196357414Y-91440917D01*
X196419879Y-91474348D01*
X196487107Y-91505031D01*
X196552124Y-91527818D01*
X196625226Y-91543133D01*
X196679923Y-91546584D01*
X196756385Y-91537271D01*
X196812058Y-91514253D01*
X196867759Y-91466563D01*
X196863266Y-91465124D01*
X196789810Y-91443280D01*
X196718283Y-91424797D01*
X196708544Y-91422432D01*
X196636507Y-91402773D01*
X196566242Y-91379734D01*
X196556964Y-91376355D01*
X196488566Y-91348733D01*
X196422260Y-91317086D01*
X196413605Y-91312468D01*
X196351609Y-91272449D01*
X196294766Y-91222930D01*
X196291032Y-91219140D01*
X196245673Y-91159366D01*
X196219295Y-91089574D01*
X196214461Y-91041946D01*
X196489672Y-91041946D01*
X196489717Y-91043980D01*
X196536200Y-91102397D01*
X196580659Y-91125848D01*
X196649773Y-91153321D01*
X196718924Y-91175853D01*
X196792288Y-91197285D01*
X196855450Y-91215137D01*
X196928210Y-91236852D01*
X196917511Y-91180953D01*
X196891207Y-91110457D01*
X196870285Y-91081042D01*
X196812072Y-91034986D01*
X196770307Y-91011905D01*
X196725176Y-90991709D01*
X196654169Y-90972337D01*
X196594173Y-90967238D01*
X196519713Y-90981496D01*
X196495533Y-91006043D01*
X196489672Y-91041946D01*
X196214461Y-91041946D01*
X196212356Y-91021203D01*
X196222592Y-90944494D01*
X196249062Y-90875251D01*
X196291102Y-90811137D01*
X196345874Y-90756823D01*
X196410537Y-90716981D01*
X196448309Y-90701987D01*
X196524968Y-90685583D01*
X196603244Y-90683642D01*
X196671015Y-90690404D01*
G37*
G36*
X195738625Y-91601018D02*
G01*
X195695760Y-91660369D01*
X195677076Y-91732177D01*
X195693562Y-91799221D01*
X195752023Y-91846170D01*
X195754745Y-91847215D01*
X195828711Y-91852029D01*
X195831315Y-91851612D01*
X195903563Y-91828771D01*
X195913747Y-91823768D01*
X195975851Y-91782790D01*
X195985921Y-91773942D01*
X196029176Y-91714523D01*
X196030983Y-91710195D01*
X196037944Y-91683450D01*
X196040143Y-91656706D01*
X196040143Y-90368935D01*
X196017268Y-90297975D01*
X195999476Y-90278443D01*
X195933943Y-90239838D01*
X195910083Y-90234480D01*
X195860258Y-90241441D01*
X195810432Y-90268185D01*
X195771964Y-90308852D01*
X195756943Y-90357212D01*
X195756943Y-90432607D01*
X195756943Y-90511467D01*
X195756943Y-90517679D01*
X195756788Y-90595045D01*
X195756375Y-90670580D01*
X195755844Y-90735666D01*
X195755264Y-90810413D01*
X195754899Y-90886734D01*
X195754749Y-90964629D01*
X195754745Y-90980397D01*
X195754852Y-91058393D01*
X195755174Y-91134385D01*
X195755711Y-91208373D01*
X195755844Y-91222930D01*
X195756470Y-91300437D01*
X195756856Y-91379658D01*
X195756943Y-91435422D01*
X195757434Y-91512188D01*
X195759350Y-91585983D01*
X195759508Y-91589661D01*
X195738625Y-91601018D01*
G37*
D10*
X223152381Y-74924200D02*
X223038095Y-74962295D01*
X223038095Y-74962295D02*
X222847619Y-74962295D01*
X222847619Y-74962295D02*
X222771428Y-74924200D01*
X222771428Y-74924200D02*
X222733333Y-74886104D01*
X222733333Y-74886104D02*
X222695238Y-74809914D01*
X222695238Y-74809914D02*
X222695238Y-74733723D01*
X222695238Y-74733723D02*
X222733333Y-74657533D01*
X222733333Y-74657533D02*
X222771428Y-74619438D01*
X222771428Y-74619438D02*
X222847619Y-74581342D01*
X222847619Y-74581342D02*
X223000000Y-74543247D01*
X223000000Y-74543247D02*
X223076190Y-74505152D01*
X223076190Y-74505152D02*
X223114285Y-74467057D01*
X223114285Y-74467057D02*
X223152381Y-74390866D01*
X223152381Y-74390866D02*
X223152381Y-74314676D01*
X223152381Y-74314676D02*
X223114285Y-74238485D01*
X223114285Y-74238485D02*
X223076190Y-74200390D01*
X223076190Y-74200390D02*
X223000000Y-74162295D01*
X223000000Y-74162295D02*
X222809523Y-74162295D01*
X222809523Y-74162295D02*
X222695238Y-74200390D01*
X221895237Y-74886104D02*
X221933333Y-74924200D01*
X221933333Y-74924200D02*
X222047618Y-74962295D01*
X222047618Y-74962295D02*
X222123809Y-74962295D01*
X222123809Y-74962295D02*
X222238095Y-74924200D01*
X222238095Y-74924200D02*
X222314285Y-74848009D01*
X222314285Y-74848009D02*
X222352380Y-74771819D01*
X222352380Y-74771819D02*
X222390476Y-74619438D01*
X222390476Y-74619438D02*
X222390476Y-74505152D01*
X222390476Y-74505152D02*
X222352380Y-74352771D01*
X222352380Y-74352771D02*
X222314285Y-74276580D01*
X222314285Y-74276580D02*
X222238095Y-74200390D01*
X222238095Y-74200390D02*
X222123809Y-74162295D01*
X222123809Y-74162295D02*
X222047618Y-74162295D01*
X222047618Y-74162295D02*
X221933333Y-74200390D01*
X221933333Y-74200390D02*
X221895237Y-74238485D01*
X221171428Y-74962295D02*
X221552380Y-74962295D01*
X221552380Y-74962295D02*
X221552380Y-74162295D01*
D11*
X217677358Y-79627819D02*
X217798576Y-79668225D01*
X217798576Y-79668225D02*
X217919794Y-79789444D01*
X217919794Y-79789444D02*
X218000606Y-79951068D01*
X218000606Y-79951068D02*
X218000606Y-80112693D01*
X218000606Y-80112693D02*
X217960200Y-80233911D01*
X217960200Y-80233911D02*
X217838982Y-80435941D01*
X217838982Y-80435941D02*
X217717764Y-80557160D01*
X217717764Y-80557160D02*
X217515733Y-80678378D01*
X217515733Y-80678378D02*
X217394515Y-80718784D01*
X217394515Y-80718784D02*
X217232890Y-80718784D01*
X217232890Y-80718784D02*
X217071266Y-80637972D01*
X217071266Y-80637972D02*
X216990454Y-80557160D01*
X216990454Y-80557160D02*
X216909642Y-80395535D01*
X216909642Y-80395535D02*
X216909642Y-80314723D01*
X216909642Y-80314723D02*
X217192484Y-80031880D01*
X217192484Y-80031880D02*
X217354109Y-80193505D01*
X216465175Y-80031880D02*
X217313703Y-79183352D01*
X217313703Y-79183352D02*
X216990454Y-78860103D01*
X216990454Y-78860103D02*
X216869236Y-78819697D01*
X216869236Y-78819697D02*
X216788423Y-78819697D01*
X216788423Y-78819697D02*
X216667205Y-78860103D01*
X216667205Y-78860103D02*
X216545987Y-78981322D01*
X216545987Y-78981322D02*
X216505581Y-79102540D01*
X216505581Y-79102540D02*
X216505581Y-79183352D01*
X216505581Y-79183352D02*
X216545987Y-79304570D01*
X216545987Y-79304570D02*
X216869236Y-79627819D01*
X215616646Y-79183352D02*
X216465175Y-78334824D01*
X215899489Y-77769138D02*
X215737864Y-77607514D01*
X215737864Y-77607514D02*
X215616646Y-77567108D01*
X215616646Y-77567108D02*
X215455022Y-77567108D01*
X215455022Y-77567108D02*
X215252991Y-77688326D01*
X215252991Y-77688326D02*
X214970148Y-77971169D01*
X214970148Y-77971169D02*
X214848930Y-78173199D01*
X214848930Y-78173199D02*
X214848930Y-78334824D01*
X214848930Y-78334824D02*
X214889336Y-78456042D01*
X214889336Y-78456042D02*
X215050961Y-78617666D01*
X215050961Y-78617666D02*
X215172179Y-78658073D01*
X215172179Y-78658073D02*
X215333803Y-78658073D01*
X215333803Y-78658073D02*
X215535834Y-78536854D01*
X215535834Y-78536854D02*
X215818677Y-78254012D01*
X215818677Y-78254012D02*
X215939895Y-78051981D01*
X215939895Y-78051981D02*
X215939895Y-77890357D01*
X215939895Y-77890357D02*
X215899489Y-77769138D01*
X214687306Y-77284265D02*
X214808524Y-77324671D01*
X214808524Y-77324671D02*
X214889336Y-77324671D01*
X214889336Y-77324671D02*
X215010554Y-77284265D01*
X215010554Y-77284265D02*
X215050961Y-77243859D01*
X215050961Y-77243859D02*
X215091367Y-77122641D01*
X215091367Y-77122641D02*
X215091367Y-77041828D01*
X215091367Y-77041828D02*
X215050961Y-76920610D01*
X215050961Y-76920610D02*
X214889336Y-76758986D01*
X214889336Y-76758986D02*
X214768118Y-76718580D01*
X214768118Y-76718580D02*
X214687306Y-76718580D01*
X214687306Y-76718580D02*
X214566087Y-76758986D01*
X214566087Y-76758986D02*
X214525681Y-76799392D01*
X214525681Y-76799392D02*
X214485275Y-76920610D01*
X214485275Y-76920610D02*
X214485275Y-77001422D01*
X214485275Y-77001422D02*
X214525681Y-77122641D01*
X214525681Y-77122641D02*
X214687306Y-77284265D01*
X214687306Y-77284265D02*
X214727712Y-77405483D01*
X214727712Y-77405483D02*
X214727712Y-77486296D01*
X214727712Y-77486296D02*
X214687306Y-77607514D01*
X214687306Y-77607514D02*
X214525681Y-77769138D01*
X214525681Y-77769138D02*
X214404463Y-77809544D01*
X214404463Y-77809544D02*
X214323651Y-77809544D01*
X214323651Y-77809544D02*
X214202432Y-77769138D01*
X214202432Y-77769138D02*
X214040808Y-77607514D01*
X214040808Y-77607514D02*
X214000402Y-77486296D01*
X214000402Y-77486296D02*
X214000402Y-77405483D01*
X214000402Y-77405483D02*
X214040808Y-77284265D01*
X214040808Y-77284265D02*
X214202432Y-77122641D01*
X214202432Y-77122641D02*
X214323651Y-77082234D01*
X214323651Y-77082234D02*
X214404463Y-77082234D01*
X214404463Y-77082234D02*
X214525681Y-77122641D01*
X217677358Y-71827819D02*
X217798576Y-71868225D01*
X217798576Y-71868225D02*
X217919794Y-71989444D01*
X217919794Y-71989444D02*
X218000606Y-72151068D01*
X218000606Y-72151068D02*
X218000606Y-72312693D01*
X218000606Y-72312693D02*
X217960200Y-72433911D01*
X217960200Y-72433911D02*
X217838982Y-72635941D01*
X217838982Y-72635941D02*
X217717764Y-72757160D01*
X217717764Y-72757160D02*
X217515733Y-72878378D01*
X217515733Y-72878378D02*
X217394515Y-72918784D01*
X217394515Y-72918784D02*
X217232890Y-72918784D01*
X217232890Y-72918784D02*
X217071266Y-72837972D01*
X217071266Y-72837972D02*
X216990454Y-72757160D01*
X216990454Y-72757160D02*
X216909642Y-72595535D01*
X216909642Y-72595535D02*
X216909642Y-72514723D01*
X216909642Y-72514723D02*
X217192484Y-72231880D01*
X217192484Y-72231880D02*
X217354109Y-72393505D01*
X216465175Y-72231880D02*
X217313703Y-71383352D01*
X217313703Y-71383352D02*
X216990454Y-71060103D01*
X216990454Y-71060103D02*
X216869236Y-71019697D01*
X216869236Y-71019697D02*
X216788423Y-71019697D01*
X216788423Y-71019697D02*
X216667205Y-71060103D01*
X216667205Y-71060103D02*
X216545987Y-71181322D01*
X216545987Y-71181322D02*
X216505581Y-71302540D01*
X216505581Y-71302540D02*
X216505581Y-71383352D01*
X216505581Y-71383352D02*
X216545987Y-71504570D01*
X216545987Y-71504570D02*
X216869236Y-71827819D01*
X215616646Y-71383352D02*
X216465175Y-70534824D01*
X215899489Y-69969138D02*
X215737864Y-69807514D01*
X215737864Y-69807514D02*
X215616646Y-69767108D01*
X215616646Y-69767108D02*
X215455022Y-69767108D01*
X215455022Y-69767108D02*
X215252991Y-69888326D01*
X215252991Y-69888326D02*
X214970148Y-70171169D01*
X214970148Y-70171169D02*
X214848930Y-70373199D01*
X214848930Y-70373199D02*
X214848930Y-70534824D01*
X214848930Y-70534824D02*
X214889336Y-70656042D01*
X214889336Y-70656042D02*
X215050961Y-70817666D01*
X215050961Y-70817666D02*
X215172179Y-70858073D01*
X215172179Y-70858073D02*
X215333803Y-70858073D01*
X215333803Y-70858073D02*
X215535834Y-70736854D01*
X215535834Y-70736854D02*
X215818677Y-70454012D01*
X215818677Y-70454012D02*
X215939895Y-70251981D01*
X215939895Y-70251981D02*
X215939895Y-70090357D01*
X215939895Y-70090357D02*
X215899489Y-69969138D01*
X214768118Y-68837767D02*
X215172179Y-69241828D01*
X215172179Y-69241828D02*
X214808524Y-69686296D01*
X214808524Y-69686296D02*
X214808524Y-69605483D01*
X214808524Y-69605483D02*
X214768118Y-69484265D01*
X214768118Y-69484265D02*
X214566087Y-69282234D01*
X214566087Y-69282234D02*
X214444869Y-69241828D01*
X214444869Y-69241828D02*
X214364057Y-69241828D01*
X214364057Y-69241828D02*
X214242839Y-69282234D01*
X214242839Y-69282234D02*
X214040808Y-69484265D01*
X214040808Y-69484265D02*
X214000402Y-69605483D01*
X214000402Y-69605483D02*
X214000402Y-69686296D01*
X214000402Y-69686296D02*
X214040808Y-69807514D01*
X214040808Y-69807514D02*
X214242839Y-70009544D01*
X214242839Y-70009544D02*
X214364057Y-70049950D01*
X214364057Y-70049950D02*
X214444869Y-70049950D01*
X210678378Y-72391271D02*
X211244063Y-73522642D01*
X211244063Y-73522642D02*
X210112692Y-72956956D01*
X210112693Y-74492388D02*
X210193505Y-74492388D01*
X210193505Y-74492388D02*
X210355129Y-74411575D01*
X210355129Y-74411575D02*
X210435942Y-74330763D01*
X210435942Y-74330763D02*
X210516754Y-74169139D01*
X210516754Y-74169139D02*
X210516754Y-74007514D01*
X210516754Y-74007514D02*
X210476348Y-73886296D01*
X210476348Y-73886296D02*
X210355129Y-73684266D01*
X210355129Y-73684266D02*
X210233911Y-73563047D01*
X210233911Y-73563047D02*
X210031881Y-73441829D01*
X210031881Y-73441829D02*
X209910662Y-73401423D01*
X209910662Y-73401423D02*
X209749038Y-73401423D01*
X209749038Y-73401423D02*
X209587413Y-73482235D01*
X209587413Y-73482235D02*
X209506601Y-73563047D01*
X209506601Y-73563047D02*
X209425789Y-73724672D01*
X209425789Y-73724672D02*
X209425789Y-73805484D01*
X209264165Y-75340916D02*
X209344977Y-75340916D01*
X209344977Y-75340916D02*
X209506601Y-75260104D01*
X209506601Y-75260104D02*
X209587413Y-75179291D01*
X209587413Y-75179291D02*
X209668226Y-75017667D01*
X209668226Y-75017667D02*
X209668226Y-74856043D01*
X209668226Y-74856043D02*
X209627820Y-74734824D01*
X209627820Y-74734824D02*
X209506601Y-74532794D01*
X209506601Y-74532794D02*
X209385383Y-74411575D01*
X209385383Y-74411575D02*
X209183352Y-74290357D01*
X209183352Y-74290357D02*
X209062134Y-74249951D01*
X209062134Y-74249951D02*
X208900510Y-74249951D01*
X208900510Y-74249951D02*
X208738885Y-74330763D01*
X208738885Y-74330763D02*
X208658073Y-74411575D01*
X208658073Y-74411575D02*
X208577261Y-74573200D01*
X208577261Y-74573200D02*
X208577261Y-74654012D01*
X207486296Y-75502540D02*
X209304571Y-75866195D01*
X206839798Y-76229850D02*
X207243859Y-75825789D01*
X207243859Y-75825789D02*
X207688327Y-76189444D01*
X207688327Y-76189444D02*
X207607514Y-76189444D01*
X207607514Y-76189444D02*
X207486296Y-76229850D01*
X207486296Y-76229850D02*
X207284266Y-76431881D01*
X207284266Y-76431881D02*
X207243859Y-76553099D01*
X207243859Y-76553099D02*
X207243859Y-76633911D01*
X207243859Y-76633911D02*
X207284266Y-76755129D01*
X207284266Y-76755129D02*
X207486296Y-76957160D01*
X207486296Y-76957160D02*
X207607514Y-76997566D01*
X207607514Y-76997566D02*
X207688327Y-76997566D01*
X207688327Y-76997566D02*
X207809545Y-76957160D01*
X207809545Y-76957160D02*
X208011575Y-76755129D01*
X208011575Y-76755129D02*
X208051981Y-76633911D01*
X208051981Y-76633911D02*
X208051981Y-76553099D01*
X206556956Y-76512693D02*
X207122641Y-77644064D01*
X207122641Y-77644064D02*
X205991270Y-77078378D01*
D10*
X223171428Y-72324200D02*
X223057142Y-72362295D01*
X223057142Y-72362295D02*
X222866666Y-72362295D01*
X222866666Y-72362295D02*
X222790475Y-72324200D01*
X222790475Y-72324200D02*
X222752380Y-72286104D01*
X222752380Y-72286104D02*
X222714285Y-72209914D01*
X222714285Y-72209914D02*
X222714285Y-72133723D01*
X222714285Y-72133723D02*
X222752380Y-72057533D01*
X222752380Y-72057533D02*
X222790475Y-72019438D01*
X222790475Y-72019438D02*
X222866666Y-71981342D01*
X222866666Y-71981342D02*
X223019047Y-71943247D01*
X223019047Y-71943247D02*
X223095237Y-71905152D01*
X223095237Y-71905152D02*
X223133332Y-71867057D01*
X223133332Y-71867057D02*
X223171428Y-71790866D01*
X223171428Y-71790866D02*
X223171428Y-71714676D01*
X223171428Y-71714676D02*
X223133332Y-71638485D01*
X223133332Y-71638485D02*
X223095237Y-71600390D01*
X223095237Y-71600390D02*
X223019047Y-71562295D01*
X223019047Y-71562295D02*
X222828570Y-71562295D01*
X222828570Y-71562295D02*
X222714285Y-71600390D01*
X222371427Y-72362295D02*
X222371427Y-71562295D01*
X222371427Y-71562295D02*
X222180951Y-71562295D01*
X222180951Y-71562295D02*
X222066665Y-71600390D01*
X222066665Y-71600390D02*
X221990475Y-71676580D01*
X221990475Y-71676580D02*
X221952380Y-71752771D01*
X221952380Y-71752771D02*
X221914284Y-71905152D01*
X221914284Y-71905152D02*
X221914284Y-72019438D01*
X221914284Y-72019438D02*
X221952380Y-72171819D01*
X221952380Y-72171819D02*
X221990475Y-72248009D01*
X221990475Y-72248009D02*
X222066665Y-72324200D01*
X222066665Y-72324200D02*
X222180951Y-72362295D01*
X222180951Y-72362295D02*
X222371427Y-72362295D01*
X221609523Y-72133723D02*
X221228570Y-72133723D01*
X221685713Y-72362295D02*
X221419046Y-71562295D01*
X221419046Y-71562295D02*
X221152380Y-72362295D01*
X222999999Y-79962295D02*
X222999999Y-79162295D01*
X222466666Y-79162295D02*
X222314285Y-79162295D01*
X222314285Y-79162295D02*
X222238095Y-79200390D01*
X222238095Y-79200390D02*
X222161904Y-79276580D01*
X222161904Y-79276580D02*
X222123809Y-79428961D01*
X222123809Y-79428961D02*
X222123809Y-79695628D01*
X222123809Y-79695628D02*
X222161904Y-79848009D01*
X222161904Y-79848009D02*
X222238095Y-79924200D01*
X222238095Y-79924200D02*
X222314285Y-79962295D01*
X222314285Y-79962295D02*
X222466666Y-79962295D01*
X222466666Y-79962295D02*
X222542857Y-79924200D01*
X222542857Y-79924200D02*
X222619047Y-79848009D01*
X222619047Y-79848009D02*
X222657143Y-79695628D01*
X222657143Y-79695628D02*
X222657143Y-79428961D01*
X222657143Y-79428961D02*
X222619047Y-79276580D01*
X222619047Y-79276580D02*
X222542857Y-79200390D01*
X222542857Y-79200390D02*
X222466666Y-79162295D01*
X221819048Y-79238485D02*
X221780952Y-79200390D01*
X221780952Y-79200390D02*
X221704762Y-79162295D01*
X221704762Y-79162295D02*
X221514286Y-79162295D01*
X221514286Y-79162295D02*
X221438095Y-79200390D01*
X221438095Y-79200390D02*
X221400000Y-79238485D01*
X221400000Y-79238485D02*
X221361905Y-79314676D01*
X221361905Y-79314676D02*
X221361905Y-79390866D01*
X221361905Y-79390866D02*
X221400000Y-79505152D01*
X221400000Y-79505152D02*
X221857143Y-79962295D01*
X221857143Y-79962295D02*
X221361905Y-79962295D01*
D11*
X217677358Y-74427819D02*
X217798576Y-74468225D01*
X217798576Y-74468225D02*
X217919794Y-74589444D01*
X217919794Y-74589444D02*
X218000606Y-74751068D01*
X218000606Y-74751068D02*
X218000606Y-74912693D01*
X218000606Y-74912693D02*
X217960200Y-75033911D01*
X217960200Y-75033911D02*
X217838982Y-75235941D01*
X217838982Y-75235941D02*
X217717764Y-75357160D01*
X217717764Y-75357160D02*
X217515733Y-75478378D01*
X217515733Y-75478378D02*
X217394515Y-75518784D01*
X217394515Y-75518784D02*
X217232890Y-75518784D01*
X217232890Y-75518784D02*
X217071266Y-75437972D01*
X217071266Y-75437972D02*
X216990454Y-75357160D01*
X216990454Y-75357160D02*
X216909642Y-75195535D01*
X216909642Y-75195535D02*
X216909642Y-75114723D01*
X216909642Y-75114723D02*
X217192484Y-74831880D01*
X217192484Y-74831880D02*
X217354109Y-74993505D01*
X216465175Y-74831880D02*
X217313703Y-73983352D01*
X217313703Y-73983352D02*
X216990454Y-73660103D01*
X216990454Y-73660103D02*
X216869236Y-73619697D01*
X216869236Y-73619697D02*
X216788423Y-73619697D01*
X216788423Y-73619697D02*
X216667205Y-73660103D01*
X216667205Y-73660103D02*
X216545987Y-73781322D01*
X216545987Y-73781322D02*
X216505581Y-73902540D01*
X216505581Y-73902540D02*
X216505581Y-73983352D01*
X216505581Y-73983352D02*
X216545987Y-74104570D01*
X216545987Y-74104570D02*
X216869236Y-74427819D01*
X215616646Y-73983352D02*
X216465175Y-73134824D01*
X215899489Y-72569138D02*
X215737864Y-72407514D01*
X215737864Y-72407514D02*
X215616646Y-72367108D01*
X215616646Y-72367108D02*
X215455022Y-72367108D01*
X215455022Y-72367108D02*
X215252991Y-72488326D01*
X215252991Y-72488326D02*
X214970148Y-72771169D01*
X214970148Y-72771169D02*
X214848930Y-72973199D01*
X214848930Y-72973199D02*
X214848930Y-73134824D01*
X214848930Y-73134824D02*
X214889336Y-73256042D01*
X214889336Y-73256042D02*
X215050961Y-73417666D01*
X215050961Y-73417666D02*
X215172179Y-73458073D01*
X215172179Y-73458073D02*
X215333803Y-73458073D01*
X215333803Y-73458073D02*
X215535834Y-73336854D01*
X215535834Y-73336854D02*
X215818677Y-73054012D01*
X215818677Y-73054012D02*
X215939895Y-72851981D01*
X215939895Y-72851981D02*
X215939895Y-72690357D01*
X215939895Y-72690357D02*
X215899489Y-72569138D01*
X214808524Y-71478173D02*
X214970148Y-71639798D01*
X214970148Y-71639798D02*
X215010554Y-71761016D01*
X215010554Y-71761016D02*
X215010554Y-71841828D01*
X215010554Y-71841828D02*
X214970148Y-72043859D01*
X214970148Y-72043859D02*
X214848930Y-72245889D01*
X214848930Y-72245889D02*
X214525681Y-72569138D01*
X214525681Y-72569138D02*
X214404463Y-72609544D01*
X214404463Y-72609544D02*
X214323651Y-72609544D01*
X214323651Y-72609544D02*
X214202432Y-72569138D01*
X214202432Y-72569138D02*
X214040808Y-72407514D01*
X214040808Y-72407514D02*
X214000402Y-72286296D01*
X214000402Y-72286296D02*
X214000402Y-72205483D01*
X214000402Y-72205483D02*
X214040808Y-72084265D01*
X214040808Y-72084265D02*
X214242839Y-71882234D01*
X214242839Y-71882234D02*
X214364057Y-71841828D01*
X214364057Y-71841828D02*
X214444869Y-71841828D01*
X214444869Y-71841828D02*
X214566087Y-71882234D01*
X214566087Y-71882234D02*
X214727712Y-72043859D01*
X214727712Y-72043859D02*
X214768118Y-72165077D01*
X214768118Y-72165077D02*
X214768118Y-72245889D01*
X214768118Y-72245889D02*
X214727712Y-72367108D01*
X209631881Y-70718580D02*
X209672287Y-70597362D01*
X209672287Y-70597362D02*
X209793505Y-70476143D01*
X209793505Y-70476143D02*
X209955129Y-70395331D01*
X209955129Y-70395331D02*
X210116754Y-70395331D01*
X210116754Y-70395331D02*
X210237972Y-70435737D01*
X210237972Y-70435737D02*
X210440003Y-70556956D01*
X210440003Y-70556956D02*
X210561221Y-70678174D01*
X210561221Y-70678174D02*
X210682439Y-70880204D01*
X210682439Y-70880204D02*
X210722845Y-71001423D01*
X210722845Y-71001423D02*
X210722845Y-71163047D01*
X210722845Y-71163047D02*
X210642033Y-71324672D01*
X210642033Y-71324672D02*
X210561221Y-71405484D01*
X210561221Y-71405484D02*
X210399597Y-71486296D01*
X210399597Y-71486296D02*
X210318784Y-71486296D01*
X210318784Y-71486296D02*
X210035942Y-71203453D01*
X210035942Y-71203453D02*
X210197566Y-71041829D01*
X210035942Y-71930763D02*
X209187414Y-71082235D01*
X209187414Y-71082235D02*
X208864165Y-71405484D01*
X208864165Y-71405484D02*
X208823759Y-71526702D01*
X208823759Y-71526702D02*
X208823759Y-71607514D01*
X208823759Y-71607514D02*
X208864165Y-71728733D01*
X208864165Y-71728733D02*
X208985383Y-71849951D01*
X208985383Y-71849951D02*
X209106601Y-71890357D01*
X209106601Y-71890357D02*
X209187414Y-71890357D01*
X209187414Y-71890357D02*
X209308632Y-71849951D01*
X209308632Y-71849951D02*
X209631881Y-71526702D01*
X209187414Y-72779291D02*
X208338885Y-71930763D01*
X207773200Y-72496449D02*
X207611575Y-72658073D01*
X207611575Y-72658073D02*
X207571169Y-72779292D01*
X207571169Y-72779292D02*
X207571169Y-72940916D01*
X207571169Y-72940916D02*
X207692387Y-73142946D01*
X207692387Y-73142946D02*
X207975230Y-73425789D01*
X207975230Y-73425789D02*
X208177261Y-73547008D01*
X208177261Y-73547008D02*
X208338885Y-73547008D01*
X208338885Y-73547008D02*
X208460103Y-73506601D01*
X208460103Y-73506601D02*
X208621728Y-73344977D01*
X208621728Y-73344977D02*
X208662134Y-73223759D01*
X208662134Y-73223759D02*
X208662134Y-73062134D01*
X208662134Y-73062134D02*
X208540916Y-72860104D01*
X208540916Y-72860104D02*
X208258073Y-72577261D01*
X208258073Y-72577261D02*
X208056042Y-72456043D01*
X208056042Y-72456043D02*
X207894418Y-72456043D01*
X207894418Y-72456043D02*
X207773200Y-72496449D01*
X207126702Y-73142947D02*
X206601423Y-73668226D01*
X206601423Y-73668226D02*
X207207514Y-73708632D01*
X207207514Y-73708632D02*
X207086296Y-73829850D01*
X207086296Y-73829850D02*
X207045890Y-73951069D01*
X207045890Y-73951069D02*
X207045890Y-74031881D01*
X207045890Y-74031881D02*
X207086296Y-74153099D01*
X207086296Y-74153099D02*
X207288326Y-74355130D01*
X207288326Y-74355130D02*
X207409545Y-74395536D01*
X207409545Y-74395536D02*
X207490357Y-74395536D01*
X207490357Y-74395536D02*
X207611575Y-74355130D01*
X207611575Y-74355130D02*
X207854012Y-74112693D01*
X207854012Y-74112693D02*
X207894418Y-73991475D01*
X207894418Y-73991475D02*
X207894418Y-73910663D01*
X206480204Y-74516754D02*
X206520610Y-74395536D01*
X206520610Y-74395536D02*
X206520610Y-74314723D01*
X206520610Y-74314723D02*
X206480204Y-74193505D01*
X206480204Y-74193505D02*
X206439798Y-74153099D01*
X206439798Y-74153099D02*
X206318580Y-74112693D01*
X206318580Y-74112693D02*
X206237768Y-74112693D01*
X206237768Y-74112693D02*
X206116549Y-74153099D01*
X206116549Y-74153099D02*
X205954925Y-74314723D01*
X205954925Y-74314723D02*
X205914519Y-74435942D01*
X205914519Y-74435942D02*
X205914519Y-74516754D01*
X205914519Y-74516754D02*
X205954925Y-74637972D01*
X205954925Y-74637972D02*
X205995331Y-74678378D01*
X205995331Y-74678378D02*
X206116549Y-74718784D01*
X206116549Y-74718784D02*
X206197362Y-74718784D01*
X206197362Y-74718784D02*
X206318580Y-74678378D01*
X206318580Y-74678378D02*
X206480204Y-74516754D01*
X206480204Y-74516754D02*
X206601423Y-74476348D01*
X206601423Y-74476348D02*
X206682235Y-74476348D01*
X206682235Y-74476348D02*
X206803453Y-74516754D01*
X206803453Y-74516754D02*
X206965078Y-74678378D01*
X206965078Y-74678378D02*
X207005484Y-74799597D01*
X207005484Y-74799597D02*
X207005484Y-74880409D01*
X207005484Y-74880409D02*
X206965078Y-75001627D01*
X206965078Y-75001627D02*
X206803453Y-75163252D01*
X206803453Y-75163252D02*
X206682235Y-75203658D01*
X206682235Y-75203658D02*
X206601423Y-75203658D01*
X206601423Y-75203658D02*
X206480204Y-75163252D01*
X206480204Y-75163252D02*
X206318580Y-75001627D01*
X206318580Y-75001627D02*
X206278174Y-74880409D01*
X206278174Y-74880409D02*
X206278174Y-74799597D01*
X206278174Y-74799597D02*
X206318580Y-74678378D01*
X218115733Y-69185382D02*
X217590453Y-68660103D01*
X217590453Y-68660103D02*
X217550047Y-69266194D01*
X217550047Y-69266194D02*
X217428829Y-69144976D01*
X217428829Y-69144976D02*
X217307611Y-69104570D01*
X217307611Y-69104570D02*
X217226799Y-69104570D01*
X217226799Y-69104570D02*
X217105580Y-69144976D01*
X217105580Y-69144976D02*
X216903550Y-69347007D01*
X216903550Y-69347007D02*
X216863144Y-69468225D01*
X216863144Y-69468225D02*
X216863144Y-69549037D01*
X216863144Y-69549037D02*
X216903550Y-69670256D01*
X216903550Y-69670256D02*
X217145986Y-69912692D01*
X217145986Y-69912692D02*
X217267205Y-69953098D01*
X217267205Y-69953098D02*
X217348017Y-69953098D01*
X217348017Y-68417666D02*
X216216646Y-68983352D01*
X216216646Y-68983352D02*
X216782332Y-67851981D01*
X216580301Y-67649951D02*
X216055022Y-67124672D01*
X216055022Y-67124672D02*
X216014616Y-67730763D01*
X216014616Y-67730763D02*
X215893398Y-67609545D01*
X215893398Y-67609545D02*
X215772179Y-67569139D01*
X215772179Y-67569139D02*
X215691367Y-67569139D01*
X215691367Y-67569139D02*
X215570149Y-67609545D01*
X215570149Y-67609545D02*
X215368118Y-67811575D01*
X215368118Y-67811575D02*
X215327712Y-67932794D01*
X215327712Y-67932794D02*
X215327712Y-68013606D01*
X215327712Y-68013606D02*
X215368118Y-68134824D01*
X215368118Y-68134824D02*
X215610555Y-68377261D01*
X215610555Y-68377261D02*
X215731773Y-68417667D01*
X215731773Y-68417667D02*
X215812585Y-68417667D01*
X209631881Y-67918580D02*
X209672287Y-67797362D01*
X209672287Y-67797362D02*
X209793505Y-67676143D01*
X209793505Y-67676143D02*
X209955129Y-67595331D01*
X209955129Y-67595331D02*
X210116754Y-67595331D01*
X210116754Y-67595331D02*
X210237972Y-67635737D01*
X210237972Y-67635737D02*
X210440003Y-67756956D01*
X210440003Y-67756956D02*
X210561221Y-67878174D01*
X210561221Y-67878174D02*
X210682439Y-68080204D01*
X210682439Y-68080204D02*
X210722845Y-68201423D01*
X210722845Y-68201423D02*
X210722845Y-68363047D01*
X210722845Y-68363047D02*
X210642033Y-68524672D01*
X210642033Y-68524672D02*
X210561221Y-68605484D01*
X210561221Y-68605484D02*
X210399597Y-68686296D01*
X210399597Y-68686296D02*
X210318784Y-68686296D01*
X210318784Y-68686296D02*
X210035942Y-68403453D01*
X210035942Y-68403453D02*
X210197566Y-68241829D01*
X210035942Y-69130763D02*
X209187414Y-68282235D01*
X209187414Y-68282235D02*
X208864165Y-68605484D01*
X208864165Y-68605484D02*
X208823759Y-68726702D01*
X208823759Y-68726702D02*
X208823759Y-68807514D01*
X208823759Y-68807514D02*
X208864165Y-68928733D01*
X208864165Y-68928733D02*
X208985383Y-69049951D01*
X208985383Y-69049951D02*
X209106601Y-69090357D01*
X209106601Y-69090357D02*
X209187414Y-69090357D01*
X209187414Y-69090357D02*
X209308632Y-69049951D01*
X209308632Y-69049951D02*
X209631881Y-68726702D01*
X209187414Y-69979291D02*
X208338885Y-69130763D01*
X207773200Y-69696449D02*
X207611575Y-69858073D01*
X207611575Y-69858073D02*
X207571169Y-69979292D01*
X207571169Y-69979292D02*
X207571169Y-70140916D01*
X207571169Y-70140916D02*
X207692387Y-70342946D01*
X207692387Y-70342946D02*
X207975230Y-70625789D01*
X207975230Y-70625789D02*
X208177261Y-70747008D01*
X208177261Y-70747008D02*
X208338885Y-70747008D01*
X208338885Y-70747008D02*
X208460103Y-70706601D01*
X208460103Y-70706601D02*
X208621728Y-70544977D01*
X208621728Y-70544977D02*
X208662134Y-70423759D01*
X208662134Y-70423759D02*
X208662134Y-70262134D01*
X208662134Y-70262134D02*
X208540916Y-70060104D01*
X208540916Y-70060104D02*
X208258073Y-69777261D01*
X208258073Y-69777261D02*
X208056042Y-69656043D01*
X208056042Y-69656043D02*
X207894418Y-69656043D01*
X207894418Y-69656043D02*
X207773200Y-69696449D01*
X207126702Y-70342947D02*
X206601423Y-70868226D01*
X206601423Y-70868226D02*
X207207514Y-70908632D01*
X207207514Y-70908632D02*
X207086296Y-71029850D01*
X207086296Y-71029850D02*
X207045890Y-71151069D01*
X207045890Y-71151069D02*
X207045890Y-71231881D01*
X207045890Y-71231881D02*
X207086296Y-71353099D01*
X207086296Y-71353099D02*
X207288326Y-71555130D01*
X207288326Y-71555130D02*
X207409545Y-71595536D01*
X207409545Y-71595536D02*
X207490357Y-71595536D01*
X207490357Y-71595536D02*
X207611575Y-71555130D01*
X207611575Y-71555130D02*
X207854012Y-71312693D01*
X207854012Y-71312693D02*
X207894418Y-71191475D01*
X207894418Y-71191475D02*
X207894418Y-71110663D01*
X207045890Y-72120815D02*
X206884265Y-72282439D01*
X206884265Y-72282439D02*
X206763047Y-72322845D01*
X206763047Y-72322845D02*
X206682235Y-72322845D01*
X206682235Y-72322845D02*
X206480204Y-72282439D01*
X206480204Y-72282439D02*
X206278174Y-72161221D01*
X206278174Y-72161221D02*
X205954925Y-71837972D01*
X205954925Y-71837972D02*
X205914519Y-71716754D01*
X205914519Y-71716754D02*
X205914519Y-71635942D01*
X205914519Y-71635942D02*
X205954925Y-71514723D01*
X205954925Y-71514723D02*
X206116549Y-71353099D01*
X206116549Y-71353099D02*
X206237768Y-71312693D01*
X206237768Y-71312693D02*
X206318580Y-71312693D01*
X206318580Y-71312693D02*
X206439798Y-71353099D01*
X206439798Y-71353099D02*
X206641829Y-71555130D01*
X206641829Y-71555130D02*
X206682235Y-71676348D01*
X206682235Y-71676348D02*
X206682235Y-71757160D01*
X206682235Y-71757160D02*
X206641829Y-71878378D01*
X206641829Y-71878378D02*
X206480204Y-72040003D01*
X206480204Y-72040003D02*
X206358986Y-72080409D01*
X206358986Y-72080409D02*
X206278174Y-72080409D01*
X206278174Y-72080409D02*
X206156956Y-72040003D01*
X217677358Y-77027819D02*
X217798576Y-77068225D01*
X217798576Y-77068225D02*
X217919794Y-77189444D01*
X217919794Y-77189444D02*
X218000606Y-77351068D01*
X218000606Y-77351068D02*
X218000606Y-77512693D01*
X218000606Y-77512693D02*
X217960200Y-77633911D01*
X217960200Y-77633911D02*
X217838982Y-77835941D01*
X217838982Y-77835941D02*
X217717764Y-77957160D01*
X217717764Y-77957160D02*
X217515733Y-78078378D01*
X217515733Y-78078378D02*
X217394515Y-78118784D01*
X217394515Y-78118784D02*
X217232890Y-78118784D01*
X217232890Y-78118784D02*
X217071266Y-78037972D01*
X217071266Y-78037972D02*
X216990454Y-77957160D01*
X216990454Y-77957160D02*
X216909642Y-77795535D01*
X216909642Y-77795535D02*
X216909642Y-77714723D01*
X216909642Y-77714723D02*
X217192484Y-77431880D01*
X217192484Y-77431880D02*
X217354109Y-77593505D01*
X216465175Y-77431880D02*
X217313703Y-76583352D01*
X217313703Y-76583352D02*
X216990454Y-76260103D01*
X216990454Y-76260103D02*
X216869236Y-76219697D01*
X216869236Y-76219697D02*
X216788423Y-76219697D01*
X216788423Y-76219697D02*
X216667205Y-76260103D01*
X216667205Y-76260103D02*
X216545987Y-76381322D01*
X216545987Y-76381322D02*
X216505581Y-76502540D01*
X216505581Y-76502540D02*
X216505581Y-76583352D01*
X216505581Y-76583352D02*
X216545987Y-76704570D01*
X216545987Y-76704570D02*
X216869236Y-77027819D01*
X215616646Y-76583352D02*
X216465175Y-75734824D01*
X215899489Y-75169138D02*
X215737864Y-75007514D01*
X215737864Y-75007514D02*
X215616646Y-74967108D01*
X215616646Y-74967108D02*
X215455022Y-74967108D01*
X215455022Y-74967108D02*
X215252991Y-75088326D01*
X215252991Y-75088326D02*
X214970148Y-75371169D01*
X214970148Y-75371169D02*
X214848930Y-75573199D01*
X214848930Y-75573199D02*
X214848930Y-75734824D01*
X214848930Y-75734824D02*
X214889336Y-75856042D01*
X214889336Y-75856042D02*
X215050961Y-76017666D01*
X215050961Y-76017666D02*
X215172179Y-76058073D01*
X215172179Y-76058073D02*
X215333803Y-76058073D01*
X215333803Y-76058073D02*
X215535834Y-75936854D01*
X215535834Y-75936854D02*
X215818677Y-75654012D01*
X215818677Y-75654012D02*
X215939895Y-75451981D01*
X215939895Y-75451981D02*
X215939895Y-75290357D01*
X215939895Y-75290357D02*
X215899489Y-75169138D01*
X215252991Y-74522641D02*
X214687306Y-73956955D01*
X214687306Y-73956955D02*
X214202432Y-75169138D01*
D13*
%TO.C,J2*%
X204250000Y-95170000D02*
X219750000Y-95170000D01*
X204250000Y-104290000D02*
X204250000Y-95170000D01*
X205550000Y-96480000D02*
X209950000Y-96480000D01*
X205550000Y-102980000D02*
X205550000Y-96480000D01*
X208960000Y-93780000D02*
X209460000Y-94780000D01*
X209460000Y-94780000D02*
X209960000Y-93780000D01*
X209950000Y-96480000D02*
X209950000Y-95170000D01*
X209960000Y-93780000D02*
X208960000Y-93780000D01*
X214050000Y-95170000D02*
X214050000Y-96480000D01*
X214050000Y-96480000D02*
X214050000Y-96480000D01*
X214050000Y-96480000D02*
X218450000Y-96480000D01*
X218450000Y-96480000D02*
X218450000Y-102980000D01*
X218450000Y-102980000D02*
X205550000Y-102980000D01*
X219750000Y-95170000D02*
X219750000Y-104290000D01*
X219750000Y-104290000D02*
X204250000Y-104290000D01*
%TD*%
M02*
