%TF.GenerationSoftware,KiCad,Pcbnew,8.0.8*%
%TF.CreationDate,2025-02-13T13:38:45+00:00*%
%TF.ProjectId,hackaday-sao-m5stack-atoms3,6861636b-6164-4617-992d-73616f2d6d35,rev?*%
%TF.SameCoordinates,Original*%
%TF.FileFunction,Copper,L1,Top*%
%TF.FilePolarity,Positive*%
%FSLAX46Y46*%
G04 Gerber Fmt 4.6, Leading zero omitted, Abs format (unit mm)*
G04 Created by KiCad (PCBNEW 8.0.8) date 2025-02-13 13:38:45*
%MOMM*%
%LPD*%
G01*
G04 APERTURE LIST*
G04 Aperture macros list*
%AMRoundRect*
0 Rectangle with rounded corners*
0 $1 Rounding radius*
0 $2 $3 $4 $5 $6 $7 $8 $9 X,Y pos of 4 corners*
0 Add a 4 corners polygon primitive as box body*
4,1,4,$2,$3,$4,$5,$6,$7,$8,$9,$2,$3,0*
0 Add four circle primitives for the rounded corners*
1,1,$1+$1,$2,$3*
1,1,$1+$1,$4,$5*
1,1,$1+$1,$6,$7*
1,1,$1+$1,$8,$9*
0 Add four rect primitives between the rounded corners*
20,1,$1+$1,$2,$3,$4,$5,0*
20,1,$1+$1,$4,$5,$6,$7,0*
20,1,$1+$1,$6,$7,$8,$9,0*
20,1,$1+$1,$8,$9,$2,$3,0*%
G04 Aperture macros list end*
%TA.AperFunction,SMDPad,CuDef*%
%ADD10RoundRect,0.218750X-0.218750X-0.256250X0.218750X-0.256250X0.218750X0.256250X-0.218750X0.256250X0*%
%TD*%
%TA.AperFunction,ComponentPad*%
%ADD11C,1.524000*%
%TD*%
%TA.AperFunction,SMDPad,CuDef*%
%ADD12RoundRect,0.200000X-0.200000X-0.275000X0.200000X-0.275000X0.200000X0.275000X-0.200000X0.275000X0*%
%TD*%
%TA.AperFunction,ComponentPad*%
%ADD13RoundRect,0.250000X-0.600000X0.600000X-0.600000X-0.600000X0.600000X-0.600000X0.600000X0.600000X0*%
%TD*%
%TA.AperFunction,ComponentPad*%
%ADD14C,1.700000*%
%TD*%
%TA.AperFunction,ViaPad*%
%ADD15C,0.600000*%
%TD*%
%TA.AperFunction,Conductor*%
%ADD16C,0.406400*%
%TD*%
%TA.AperFunction,Conductor*%
%ADD17C,0.203200*%
%TD*%
G04 APERTURE END LIST*
D10*
%TO.P,D1,1,K*%
%TO.N,GND*%
X198325000Y-87200000D03*
%TO.P,D1,2,A*%
%TO.N,Net-(D1-A)*%
X199900000Y-87200000D03*
%TD*%
D11*
%TO.P,U1,1,IO39*%
%TO.N,unconnected-(U1-IO39-Pad1)*%
X204368800Y-72011200D03*
%TO.P,U1,2,IO38*%
%TO.N,unconnected-(U1-IO38-Pad2)*%
X204368800Y-74551200D03*
%TO.P,U1,3,5V*%
%TO.N,VCC*%
X204368800Y-77091200D03*
%TO.P,U1,4,GND*%
%TO.N,GND*%
X204368800Y-79631200D03*
%TO.P,U1,5,IO8*%
%TO.N,GPIO2*%
X219608800Y-79631200D03*
%TO.P,U1,6,IO7*%
%TO.N,GPIO1*%
X219608800Y-77091200D03*
%TO.P,U1,7,IO6*%
%TO.N,SCL*%
X219608800Y-74551200D03*
%TO.P,U1,8,IO5*%
%TO.N,SDA*%
X219608800Y-72011200D03*
%TO.P,U1,9,3V3*%
%TO.N,unconnected-(U1-3V3-Pad9)*%
X219608800Y-69471200D03*
%TD*%
D12*
%TO.P,R1,1*%
%TO.N,Net-(D1-A)*%
X201475000Y-87200000D03*
%TO.P,R1,2*%
%TO.N,VCC*%
X203125000Y-87200000D03*
%TD*%
D13*
%TO.P,J2,1,Pin_1*%
%TO.N,VCC*%
X209460000Y-98460000D03*
D14*
%TO.P,J2,2,Pin_2*%
%TO.N,GND*%
X209460000Y-101000000D03*
%TO.P,J2,3,Pin_3*%
%TO.N,SDA*%
X212000000Y-98460000D03*
%TO.P,J2,4,Pin_4*%
%TO.N,SCL*%
X212000000Y-101000000D03*
%TO.P,J2,5,Pin_5*%
%TO.N,GPIO1*%
X214540000Y-98460000D03*
%TO.P,J2,6,Pin_6*%
%TO.N,GPIO2*%
X214540000Y-101000000D03*
%TD*%
D15*
%TO.N,GND*%
X206400000Y-98300000D03*
X226400000Y-98200000D03*
X227700000Y-93500000D03*
X202100000Y-103800000D03*
X227500000Y-87200000D03*
X191900000Y-103800000D03*
X196500000Y-87200000D03*
X201800000Y-61800000D03*
X196200000Y-93500000D03*
X210800000Y-82700000D03*
X221000000Y-103800000D03*
X232100000Y-103800000D03*
X210800000Y-80100000D03*
X201800000Y-82000000D03*
X222100000Y-61800000D03*
X197500000Y-98200000D03*
X207500000Y-98300000D03*
X210800000Y-93400000D03*
X219000000Y-98300000D03*
X222100000Y-82000000D03*
%TO.N,VCC*%
X204300000Y-87200000D03*
%TD*%
D16*
%TO.N,Net-(D1-A)*%
X199900000Y-87200000D02*
X201475000Y-87200000D01*
D17*
%TO.N,GPIO2*%
X214540000Y-101000000D02*
X221800000Y-101000000D01*
%TO.N,GPIO1*%
X213300000Y-99700000D02*
X213000000Y-99700000D01*
X214540000Y-98460000D02*
X213300000Y-99700000D01*
X213000000Y-99700000D02*
X204300000Y-99700000D01*
D16*
%TO.N,VCC*%
X203125000Y-87200000D02*
X204300000Y-87200000D01*
%TD*%
%TA.AperFunction,Conductor*%
%TO.N,GPIO1*%
G36*
X205367677Y-99119685D02*
G01*
X205413432Y-99172489D01*
X205423376Y-99241647D01*
X205394351Y-99305203D01*
X205388319Y-99311681D01*
X201036319Y-103663681D01*
X200974996Y-103697166D01*
X200948638Y-103700000D01*
X193390202Y-103700000D01*
X193323163Y-103680315D01*
X193277408Y-103627511D01*
X193267464Y-103558353D01*
X193296489Y-103494797D01*
X193300594Y-103490288D01*
X197463377Y-99138288D01*
X197523941Y-99103449D01*
X197552985Y-99100000D01*
X205300638Y-99100000D01*
X205367677Y-99119685D01*
G37*
%TD.AperFunction*%
%TD*%
%TA.AperFunction,Conductor*%
%TO.N,GPIO2*%
G36*
X226315677Y-99119685D02*
G01*
X226336319Y-99136319D01*
X230688319Y-103488319D01*
X230721804Y-103549642D01*
X230716820Y-103619334D01*
X230674948Y-103675267D01*
X230609484Y-103699684D01*
X230600638Y-103700000D01*
X221976636Y-103700000D01*
X221909597Y-103680315D01*
X221865727Y-103631454D01*
X221794160Y-103488319D01*
X219689727Y-99279454D01*
X219677352Y-99210689D01*
X219704120Y-99146150D01*
X219761530Y-99106328D01*
X219800636Y-99100000D01*
X226248638Y-99100000D01*
X226315677Y-99119685D01*
G37*
%TD.AperFunction*%
%TD*%
%TA.AperFunction,Conductor*%
%TO.N,GND*%
G36*
X221253736Y-60500726D02*
G01*
X221513662Y-60516448D01*
X221528524Y-60518253D01*
X221599528Y-60531264D01*
X221780969Y-60564515D01*
X221795498Y-60568096D01*
X222040523Y-60644449D01*
X222054516Y-60649755D01*
X222288562Y-60755091D01*
X222301808Y-60762044D01*
X222521449Y-60894821D01*
X222533760Y-60903319D01*
X222628089Y-60977221D01*
X222735792Y-61061601D01*
X222747000Y-61071531D01*
X222928468Y-61252999D01*
X222938398Y-61264207D01*
X223096676Y-61466233D01*
X223105182Y-61478556D01*
X223237952Y-61698185D01*
X223244911Y-61711444D01*
X223350242Y-61945480D01*
X223355551Y-61959480D01*
X223431901Y-62204494D01*
X223435485Y-62219034D01*
X223481746Y-62471475D01*
X223483551Y-62486339D01*
X223499274Y-62746263D01*
X223499500Y-62753750D01*
X223499500Y-81246249D01*
X223499274Y-81253736D01*
X223483551Y-81513660D01*
X223481746Y-81528524D01*
X223435485Y-81780965D01*
X223431901Y-81795505D01*
X223355551Y-82040519D01*
X223350242Y-82054519D01*
X223244911Y-82288555D01*
X223237952Y-82301814D01*
X223105182Y-82521443D01*
X223096676Y-82533766D01*
X222938398Y-82735792D01*
X222928468Y-82747000D01*
X222747000Y-82928468D01*
X222735792Y-82938398D01*
X222533766Y-83096676D01*
X222521443Y-83105182D01*
X222301814Y-83237952D01*
X222288555Y-83244911D01*
X222054519Y-83350242D01*
X222040519Y-83355551D01*
X221795505Y-83431901D01*
X221780965Y-83435485D01*
X221528524Y-83481746D01*
X221513660Y-83483551D01*
X221253736Y-83499274D01*
X221246249Y-83499500D01*
X218934108Y-83499500D01*
X218806812Y-83533608D01*
X218692686Y-83599500D01*
X218692683Y-83599502D01*
X218599502Y-83692683D01*
X218599500Y-83692686D01*
X218533608Y-83806812D01*
X218499500Y-83934108D01*
X218499500Y-85065891D01*
X218533608Y-85193187D01*
X218560672Y-85240062D01*
X218599500Y-85307314D01*
X218692686Y-85400500D01*
X218806814Y-85466392D01*
X218934108Y-85500500D01*
X219065892Y-85500500D01*
X228184108Y-85500500D01*
X228240244Y-85500500D01*
X228259631Y-85502025D01*
X228307706Y-85509639D01*
X228344595Y-85521625D01*
X228379156Y-85539235D01*
X228410538Y-85562036D01*
X228437963Y-85589461D01*
X228460765Y-85620845D01*
X228476427Y-85651583D01*
X228478372Y-85655399D01*
X228490361Y-85692297D01*
X228497973Y-85740357D01*
X228499500Y-85759755D01*
X228499500Y-96240244D01*
X228497973Y-96259642D01*
X228490361Y-96307702D01*
X228478372Y-96344600D01*
X228460766Y-96379153D01*
X228437963Y-96410538D01*
X228410538Y-96437963D01*
X228379153Y-96460766D01*
X228344600Y-96478372D01*
X228307702Y-96490361D01*
X228272884Y-96495875D01*
X228259640Y-96497973D01*
X228240244Y-96499500D01*
X226934108Y-96499500D01*
X226806812Y-96533608D01*
X226692686Y-96599500D01*
X226692683Y-96599502D01*
X226599502Y-96692683D01*
X226599500Y-96692686D01*
X226533608Y-96806812D01*
X226507191Y-96905405D01*
X226499500Y-96934108D01*
X226499500Y-97065892D01*
X226502223Y-97076055D01*
X226533608Y-97193187D01*
X226566554Y-97250250D01*
X226599500Y-97307314D01*
X226599501Y-97307315D01*
X226599502Y-97307316D01*
X233580005Y-104287819D01*
X233613490Y-104349142D01*
X233608506Y-104418834D01*
X233566634Y-104474767D01*
X233501170Y-104499184D01*
X233492324Y-104499500D01*
X190507676Y-104499500D01*
X190440637Y-104479815D01*
X190394882Y-104427011D01*
X190384938Y-104357853D01*
X190413963Y-104294297D01*
X190419995Y-104287819D01*
X191221396Y-103486418D01*
X192767109Y-103486418D01*
X192767109Y-103630293D01*
X192767110Y-103630297D01*
X192777054Y-103699455D01*
X192777055Y-103699460D01*
X192777056Y-103699463D01*
X192817588Y-103837501D01*
X192817591Y-103837507D01*
X192895373Y-103958537D01*
X192895381Y-103958548D01*
X192941125Y-104011340D01*
X192941128Y-104011343D01*
X192941132Y-104011347D01*
X193049866Y-104105567D01*
X193049869Y-104105568D01*
X193049870Y-104105569D01*
X193144738Y-104148895D01*
X193180743Y-104165338D01*
X193247782Y-104185023D01*
X193247786Y-104185024D01*
X193390202Y-104205500D01*
X193390205Y-104205500D01*
X200948640Y-104205500D01*
X200960576Y-104204860D01*
X201002678Y-104202603D01*
X201002686Y-104202602D01*
X201002688Y-104202602D01*
X201002689Y-104202602D01*
X201009682Y-104201849D01*
X201029036Y-104199769D01*
X201029046Y-104199767D01*
X201029049Y-104199767D01*
X201038648Y-104198211D01*
X201082448Y-104191114D01*
X201217257Y-104140832D01*
X201278580Y-104107347D01*
X201393761Y-104021123D01*
X205076465Y-100338419D01*
X205137788Y-100304934D01*
X205164146Y-100302100D01*
X208101235Y-100302100D01*
X208168274Y-100321785D01*
X208214029Y-100374589D01*
X208223973Y-100443747D01*
X208213617Y-100478505D01*
X208186570Y-100536507D01*
X208186566Y-100536516D01*
X208125432Y-100764673D01*
X208125430Y-100764684D01*
X208104843Y-100999998D01*
X208104843Y-101000000D01*
X208125430Y-101235315D01*
X208125432Y-101235326D01*
X208186566Y-101463483D01*
X208186570Y-101463492D01*
X208286398Y-101677576D01*
X208345073Y-101761372D01*
X208977037Y-101129408D01*
X208994075Y-101192993D01*
X209059901Y-101307007D01*
X209152993Y-101400099D01*
X209267007Y-101465925D01*
X209330591Y-101482962D01*
X208698626Y-102114926D01*
X208782417Y-102173598D01*
X208782421Y-102173600D01*
X208996507Y-102273429D01*
X208996516Y-102273433D01*
X209224673Y-102334567D01*
X209224684Y-102334569D01*
X209459998Y-102355157D01*
X209460002Y-102355157D01*
X209695315Y-102334569D01*
X209695326Y-102334567D01*
X209923483Y-102273433D01*
X209923492Y-102273429D01*
X210137580Y-102173599D01*
X210221371Y-102114925D01*
X209589408Y-101482962D01*
X209652993Y-101465925D01*
X209767007Y-101400099D01*
X209860099Y-101307007D01*
X209925925Y-101192993D01*
X209942962Y-101129408D01*
X210574925Y-101761371D01*
X210628120Y-101685404D01*
X210682697Y-101641780D01*
X210752196Y-101634588D01*
X210814550Y-101666111D01*
X210831268Y-101685404D01*
X210961505Y-101871401D01*
X211128599Y-102038495D01*
X211225384Y-102106265D01*
X211322165Y-102174032D01*
X211322167Y-102174033D01*
X211322170Y-102174035D01*
X211536337Y-102273903D01*
X211764592Y-102335063D01*
X211952918Y-102351539D01*
X211999999Y-102355659D01*
X212000000Y-102355659D01*
X212000001Y-102355659D01*
X212039234Y-102352226D01*
X212235408Y-102335063D01*
X212463663Y-102273903D01*
X212677830Y-102174035D01*
X212871401Y-102038495D01*
X213038495Y-101871401D01*
X213168425Y-101685842D01*
X213223002Y-101642217D01*
X213292500Y-101635023D01*
X213354855Y-101666546D01*
X213371575Y-101685842D01*
X213501500Y-101871395D01*
X213501505Y-101871401D01*
X213668599Y-102038495D01*
X213765384Y-102106265D01*
X213862165Y-102174032D01*
X213862167Y-102174033D01*
X213862170Y-102174035D01*
X214076337Y-102273903D01*
X214304592Y-102335063D01*
X214492918Y-102351539D01*
X214539999Y-102355659D01*
X214540000Y-102355659D01*
X214540001Y-102355659D01*
X214579234Y-102352226D01*
X214775408Y-102335063D01*
X215003663Y-102273903D01*
X215217830Y-102174035D01*
X215411401Y-102038495D01*
X215578495Y-101871401D01*
X215714035Y-101677830D01*
X215715961Y-101673698D01*
X215762132Y-101621258D01*
X215828345Y-101602100D01*
X220209248Y-101602100D01*
X220276287Y-101621785D01*
X220320157Y-101670646D01*
X221342027Y-103714386D01*
X221413591Y-103857517D01*
X221457662Y-103922262D01*
X221489591Y-103969169D01*
X221533461Y-104018030D01*
X221636300Y-104105567D01*
X221767177Y-104165338D01*
X221834216Y-104185023D01*
X221834220Y-104185024D01*
X221976636Y-104205500D01*
X221976639Y-104205500D01*
X230600657Y-104205500D01*
X230618639Y-104205179D01*
X230618649Y-104205178D01*
X230618684Y-104205178D01*
X230627530Y-104204862D01*
X230645547Y-104203896D01*
X230786139Y-104173312D01*
X230851603Y-104148895D01*
X230977878Y-104079944D01*
X231079618Y-103978207D01*
X231121490Y-103922274D01*
X231121496Y-103922266D01*
X231190449Y-103795985D01*
X231221032Y-103655393D01*
X231226016Y-103585701D01*
X231215752Y-103442190D01*
X231165470Y-103307381D01*
X231131985Y-103246058D01*
X231045761Y-103130877D01*
X231045756Y-103130872D01*
X231045751Y-103130866D01*
X226693776Y-98778892D01*
X226693761Y-98778877D01*
X226693737Y-98778855D01*
X226653519Y-98742728D01*
X226653507Y-98742718D01*
X226632856Y-98726076D01*
X226588974Y-98694433D01*
X226458100Y-98634663D01*
X226391055Y-98614976D01*
X226337811Y-98607321D01*
X226248638Y-98594500D01*
X219800636Y-98594500D01*
X219800616Y-98594500D01*
X219719904Y-98600989D01*
X219719880Y-98600992D01*
X219680790Y-98607317D01*
X219680769Y-98607321D01*
X219602115Y-98626622D01*
X219602107Y-98626625D01*
X219473423Y-98690967D01*
X219473418Y-98690970D01*
X219416012Y-98730788D01*
X219416005Y-98730794D01*
X219310662Y-98828783D01*
X219237191Y-98952483D01*
X219237184Y-98952497D01*
X219211016Y-99015588D01*
X219210513Y-99016759D01*
X219210415Y-99017041D01*
X219174772Y-99156424D01*
X219174771Y-99156433D01*
X219179843Y-99300223D01*
X219192218Y-99368984D01*
X219192218Y-99368986D01*
X219237594Y-99505521D01*
X219594057Y-100218446D01*
X219606432Y-100287211D01*
X219579664Y-100351750D01*
X219522254Y-100391572D01*
X219483148Y-100397900D01*
X215828344Y-100397900D01*
X215761305Y-100378215D01*
X215715960Y-100326300D01*
X215714035Y-100322171D01*
X215578495Y-100128599D01*
X215578494Y-100128597D01*
X215411402Y-99961506D01*
X215411396Y-99961501D01*
X215225842Y-99831575D01*
X215182217Y-99776998D01*
X215175023Y-99707500D01*
X215206546Y-99645145D01*
X215225842Y-99628425D01*
X215248026Y-99612891D01*
X215411401Y-99498495D01*
X215578495Y-99331401D01*
X215714035Y-99137830D01*
X215813903Y-98923663D01*
X215875063Y-98695408D01*
X215895659Y-98460000D01*
X215875063Y-98224592D01*
X215813903Y-97996337D01*
X215714035Y-97782171D01*
X215708425Y-97774158D01*
X215578494Y-97588597D01*
X215411402Y-97421506D01*
X215411395Y-97421501D01*
X215395291Y-97410225D01*
X215270282Y-97322692D01*
X215217834Y-97285967D01*
X215217830Y-97285965D01*
X215177777Y-97267288D01*
X215003663Y-97186097D01*
X215003659Y-97186096D01*
X215003655Y-97186094D01*
X214775413Y-97124938D01*
X214775403Y-97124936D01*
X214540001Y-97104341D01*
X214539999Y-97104341D01*
X214304596Y-97124936D01*
X214304586Y-97124938D01*
X214076344Y-97186094D01*
X214076335Y-97186098D01*
X213862171Y-97285964D01*
X213862169Y-97285965D01*
X213668597Y-97421505D01*
X213501505Y-97588597D01*
X213371575Y-97774158D01*
X213316998Y-97817783D01*
X213247500Y-97824977D01*
X213185145Y-97793454D01*
X213168425Y-97774158D01*
X213038494Y-97588597D01*
X212871402Y-97421506D01*
X212871395Y-97421501D01*
X212855291Y-97410225D01*
X212730282Y-97322692D01*
X212677834Y-97285967D01*
X212677830Y-97285965D01*
X212637777Y-97267288D01*
X212463663Y-97186097D01*
X212463659Y-97186096D01*
X212463655Y-97186094D01*
X212235413Y-97124938D01*
X212235403Y-97124936D01*
X212000001Y-97104341D01*
X211999999Y-97104341D01*
X211764596Y-97124936D01*
X211764586Y-97124938D01*
X211536344Y-97186094D01*
X211536335Y-97186098D01*
X211322171Y-97285964D01*
X211322169Y-97285965D01*
X211128597Y-97421505D01*
X210961503Y-97588599D01*
X210960349Y-97589975D01*
X210959688Y-97590414D01*
X210957676Y-97592427D01*
X210957271Y-97592022D01*
X210902173Y-97628671D01*
X210832312Y-97629772D01*
X210772946Y-97592928D01*
X210747663Y-97549265D01*
X210744814Y-97540666D01*
X210652712Y-97391344D01*
X210528656Y-97267288D01*
X210425770Y-97203828D01*
X210379336Y-97175187D01*
X210379331Y-97175185D01*
X210377862Y-97174698D01*
X210212797Y-97120001D01*
X210212795Y-97120000D01*
X210110010Y-97109500D01*
X208809998Y-97109500D01*
X208809981Y-97109501D01*
X208707203Y-97120000D01*
X208707200Y-97120001D01*
X208540668Y-97175185D01*
X208540663Y-97175187D01*
X208391342Y-97267289D01*
X208267289Y-97391342D01*
X208175187Y-97540663D01*
X208175185Y-97540668D01*
X208158701Y-97590414D01*
X208120001Y-97707203D01*
X208120001Y-97707204D01*
X208120000Y-97707204D01*
X208109500Y-97809983D01*
X208109500Y-97809996D01*
X208109501Y-98973900D01*
X208089816Y-99040939D01*
X208037013Y-99086694D01*
X207985501Y-99097900D01*
X206005835Y-99097900D01*
X205938796Y-99078215D01*
X205893041Y-99025411D01*
X205886858Y-99008835D01*
X205873251Y-98962497D01*
X205873251Y-98962496D01*
X205795463Y-98841457D01*
X205784480Y-98828782D01*
X205749714Y-98788659D01*
X205749710Y-98788656D01*
X205749708Y-98788653D01*
X205640974Y-98694433D01*
X205640971Y-98694431D01*
X205640969Y-98694430D01*
X205510103Y-98634664D01*
X205510098Y-98634662D01*
X205510097Y-98634662D01*
X205443058Y-98614977D01*
X205443060Y-98614977D01*
X205443055Y-98614976D01*
X205389811Y-98607321D01*
X205300638Y-98594500D01*
X197552985Y-98594500D01*
X197552970Y-98594500D01*
X197493377Y-98598026D01*
X197464345Y-98601474D01*
X197464322Y-98601477D01*
X197405547Y-98612009D01*
X197405545Y-98612009D01*
X197405542Y-98612010D01*
X197405539Y-98612011D01*
X197405536Y-98612012D01*
X197271891Y-98665270D01*
X197271890Y-98665270D01*
X197211318Y-98700114D01*
X197098088Y-98788869D01*
X197098083Y-98788874D01*
X197098082Y-98788875D01*
X193686375Y-102355659D01*
X192935257Y-103140919D01*
X192926805Y-103149975D01*
X192922695Y-103154489D01*
X192914459Y-103163762D01*
X192914455Y-103163768D01*
X192836671Y-103284804D01*
X192836660Y-103284822D01*
X192807902Y-103347796D01*
X192807649Y-103348345D01*
X192767109Y-103486418D01*
X191221396Y-103486418D01*
X193900807Y-100807007D01*
X197400499Y-97307315D01*
X197466392Y-97193186D01*
X197500500Y-97065893D01*
X197500500Y-96934108D01*
X197466392Y-96806815D01*
X197466392Y-96806814D01*
X197466392Y-96806813D01*
X197437338Y-96756492D01*
X197400500Y-96692686D01*
X197307314Y-96599500D01*
X197250250Y-96566554D01*
X197193187Y-96533608D01*
X197129539Y-96516554D01*
X197065892Y-96499500D01*
X197065891Y-96499500D01*
X195624500Y-96499500D01*
X195557461Y-96479815D01*
X195511706Y-96427011D01*
X195500500Y-96375500D01*
X195500500Y-87504152D01*
X197387501Y-87504152D01*
X197397556Y-87602583D01*
X197450406Y-87762072D01*
X197450408Y-87762077D01*
X197538614Y-87905080D01*
X197657419Y-88023885D01*
X197800422Y-88112091D01*
X197800427Y-88112093D01*
X197959916Y-88164942D01*
X198058356Y-88174999D01*
X198075000Y-88174998D01*
X198075000Y-87450000D01*
X197387501Y-87450000D01*
X197387501Y-87504152D01*
X195500500Y-87504152D01*
X195500500Y-86895849D01*
X197387500Y-86895849D01*
X197387500Y-86950000D01*
X198075000Y-86950000D01*
X198075000Y-86225000D01*
X198575000Y-86225000D01*
X198575000Y-88174999D01*
X198591636Y-88174999D01*
X198591652Y-88174998D01*
X198690083Y-88164943D01*
X198849572Y-88112093D01*
X198849577Y-88112091D01*
X198992580Y-88023885D01*
X199024466Y-87992000D01*
X199085789Y-87958515D01*
X199155481Y-87963499D01*
X199199828Y-87992000D01*
X199232108Y-88024280D01*
X199232112Y-88024283D01*
X199375204Y-88112544D01*
X199375207Y-88112545D01*
X199375213Y-88112549D01*
X199534815Y-88165436D01*
X199633326Y-88175500D01*
X199633331Y-88175500D01*
X200166669Y-88175500D01*
X200166674Y-88175500D01*
X200265185Y-88165436D01*
X200424787Y-88112549D01*
X200567891Y-88024281D01*
X200613076Y-87979096D01*
X200674399Y-87945611D01*
X200744091Y-87950595D01*
X200788438Y-87979096D01*
X200839811Y-88030469D01*
X200839813Y-88030470D01*
X200839815Y-88030472D01*
X200985394Y-88118478D01*
X201147804Y-88169086D01*
X201218384Y-88175500D01*
X201218387Y-88175500D01*
X201731613Y-88175500D01*
X201731616Y-88175500D01*
X201802196Y-88169086D01*
X201964606Y-88118478D01*
X202110185Y-88030472D01*
X202155291Y-87985366D01*
X202212319Y-87928339D01*
X202273642Y-87894854D01*
X202343334Y-87899838D01*
X202387681Y-87928339D01*
X202489811Y-88030469D01*
X202489813Y-88030470D01*
X202489815Y-88030472D01*
X202635394Y-88118478D01*
X202797804Y-88169086D01*
X202868384Y-88175500D01*
X202868387Y-88175500D01*
X203381613Y-88175500D01*
X203381616Y-88175500D01*
X203452196Y-88169086D01*
X203614606Y-88118478D01*
X203760185Y-88030472D01*
X203831966Y-87958690D01*
X203893287Y-87925207D01*
X203960601Y-87929332D01*
X204120737Y-87985366D01*
X204120743Y-87985367D01*
X204120745Y-87985368D01*
X204120746Y-87985368D01*
X204120750Y-87985369D01*
X204299996Y-88005565D01*
X204300000Y-88005565D01*
X204300004Y-88005565D01*
X204479249Y-87985369D01*
X204479252Y-87985368D01*
X204479255Y-87985368D01*
X204649522Y-87925789D01*
X204802262Y-87829816D01*
X204929816Y-87702262D01*
X205025789Y-87549522D01*
X205085368Y-87379255D01*
X205105565Y-87200000D01*
X205085368Y-87020745D01*
X205025789Y-86850478D01*
X204929816Y-86697738D01*
X204802262Y-86570184D01*
X204690823Y-86500162D01*
X204649523Y-86474211D01*
X204479254Y-86414631D01*
X204479249Y-86414630D01*
X204300004Y-86394435D01*
X204299996Y-86394435D01*
X204120750Y-86414630D01*
X204120742Y-86414632D01*
X203960600Y-86470668D01*
X203890821Y-86474229D01*
X203831965Y-86441307D01*
X203760188Y-86369530D01*
X203614606Y-86281522D01*
X203452196Y-86230914D01*
X203452194Y-86230913D01*
X203452192Y-86230913D01*
X203402778Y-86226423D01*
X203381616Y-86224500D01*
X202868384Y-86224500D01*
X202849145Y-86226248D01*
X202797807Y-86230913D01*
X202635393Y-86281522D01*
X202489811Y-86369530D01*
X202489810Y-86369531D01*
X202387681Y-86471661D01*
X202326358Y-86505146D01*
X202256666Y-86500162D01*
X202212319Y-86471661D01*
X202110188Y-86369530D01*
X201964606Y-86281522D01*
X201802196Y-86230914D01*
X201802194Y-86230913D01*
X201802192Y-86230913D01*
X201752778Y-86226423D01*
X201731616Y-86224500D01*
X201218384Y-86224500D01*
X201199145Y-86226248D01*
X201147807Y-86230913D01*
X200985393Y-86281522D01*
X200839811Y-86369530D01*
X200839810Y-86369531D01*
X200788438Y-86420904D01*
X200727115Y-86454389D01*
X200657423Y-86449405D01*
X200613076Y-86420904D01*
X200567891Y-86375719D01*
X200567887Y-86375716D01*
X200424795Y-86287455D01*
X200424789Y-86287452D01*
X200424787Y-86287451D01*
X200265185Y-86234564D01*
X200265183Y-86234563D01*
X200166681Y-86224500D01*
X200166674Y-86224500D01*
X199633326Y-86224500D01*
X199633318Y-86224500D01*
X199534816Y-86234563D01*
X199534815Y-86234564D01*
X199455719Y-86260773D01*
X199375215Y-86287450D01*
X199375204Y-86287455D01*
X199232112Y-86375716D01*
X199232107Y-86375719D01*
X199199827Y-86408000D01*
X199138503Y-86441485D01*
X199068812Y-86436499D01*
X199024467Y-86408000D01*
X198992580Y-86376114D01*
X198849577Y-86287908D01*
X198849572Y-86287906D01*
X198690083Y-86235057D01*
X198591650Y-86225000D01*
X198575000Y-86225000D01*
X198075000Y-86225000D01*
X198075000Y-86224999D01*
X198058356Y-86225000D01*
X197959915Y-86235057D01*
X197800427Y-86287906D01*
X197800422Y-86287908D01*
X197657419Y-86376114D01*
X197538614Y-86494919D01*
X197450408Y-86637922D01*
X197450406Y-86637927D01*
X197397557Y-86797416D01*
X197387500Y-86895849D01*
X195500500Y-86895849D01*
X195500500Y-85624500D01*
X195520185Y-85557461D01*
X195572989Y-85511706D01*
X195624500Y-85500500D01*
X205065890Y-85500500D01*
X205065892Y-85500500D01*
X205193186Y-85466392D01*
X205307314Y-85400500D01*
X205400500Y-85307314D01*
X205466392Y-85193186D01*
X205500500Y-85065892D01*
X205500500Y-83934108D01*
X205466392Y-83806814D01*
X205400500Y-83692686D01*
X205307314Y-83599500D01*
X205224358Y-83551605D01*
X205193187Y-83533608D01*
X205129539Y-83516554D01*
X205065892Y-83499500D01*
X205065891Y-83499500D01*
X202753751Y-83499500D01*
X202746264Y-83499274D01*
X202486339Y-83483551D01*
X202471475Y-83481746D01*
X202219034Y-83435485D01*
X202204494Y-83431901D01*
X201959480Y-83355551D01*
X201945480Y-83350242D01*
X201711444Y-83244911D01*
X201698185Y-83237952D01*
X201478556Y-83105182D01*
X201466233Y-83096676D01*
X201264207Y-82938398D01*
X201252999Y-82928468D01*
X201071531Y-82747000D01*
X201061601Y-82735792D01*
X200903323Y-82533766D01*
X200894821Y-82521449D01*
X200762044Y-82301808D01*
X200755091Y-82288562D01*
X200649755Y-82054516D01*
X200644448Y-82040519D01*
X200568098Y-81795505D01*
X200564514Y-81780965D01*
X200560523Y-81759188D01*
X200518253Y-81528524D01*
X200516448Y-81513660D01*
X200500726Y-81253736D01*
X200500500Y-81246249D01*
X200500500Y-72011197D01*
X203101477Y-72011197D01*
X203101477Y-72011202D01*
X203120729Y-72231262D01*
X203120730Y-72231270D01*
X203177904Y-72444645D01*
X203177905Y-72444647D01*
X203177906Y-72444650D01*
X203271266Y-72644862D01*
X203271268Y-72644866D01*
X203397970Y-72825815D01*
X203397975Y-72825821D01*
X203554178Y-72982024D01*
X203554184Y-72982029D01*
X203735133Y-73108731D01*
X203735135Y-73108732D01*
X203735138Y-73108734D01*
X203854548Y-73164415D01*
X203863989Y-73168818D01*
X203916428Y-73214990D01*
X203935580Y-73282184D01*
X203915364Y-73349065D01*
X203863989Y-73393582D01*
X203735140Y-73453665D01*
X203735138Y-73453666D01*
X203554177Y-73580375D01*
X203397975Y-73736577D01*
X203271266Y-73917538D01*
X203271265Y-73917540D01*
X203177907Y-74117748D01*
X203177904Y-74117754D01*
X203120730Y-74331129D01*
X203120729Y-74331137D01*
X203101477Y-74551197D01*
X203101477Y-74551202D01*
X203120729Y-74771262D01*
X203120730Y-74771270D01*
X203177904Y-74984645D01*
X203177905Y-74984647D01*
X203177906Y-74984650D01*
X203271266Y-75184862D01*
X203271268Y-75184866D01*
X203397970Y-75365815D01*
X203397975Y-75365821D01*
X203554178Y-75522024D01*
X203554184Y-75522029D01*
X203735133Y-75648731D01*
X203735135Y-75648732D01*
X203735138Y-75648734D01*
X203854548Y-75704415D01*
X203863989Y-75708818D01*
X203916428Y-75754990D01*
X203935580Y-75822184D01*
X203915364Y-75889065D01*
X203863989Y-75933582D01*
X203735140Y-75993665D01*
X203735138Y-75993666D01*
X203554177Y-76120375D01*
X203397975Y-76276577D01*
X203271266Y-76457538D01*
X203271265Y-76457540D01*
X203177907Y-76657748D01*
X203177904Y-76657754D01*
X203120730Y-76871129D01*
X203120729Y-76871137D01*
X203101477Y-77091197D01*
X203101477Y-77091202D01*
X203120729Y-77311262D01*
X203120730Y-77311270D01*
X203177904Y-77524645D01*
X203177905Y-77524647D01*
X203177906Y-77524650D01*
X203271266Y-77724862D01*
X203271268Y-77724866D01*
X203397970Y-77905815D01*
X203397975Y-77905821D01*
X203554178Y-78062024D01*
X203554184Y-78062029D01*
X203735133Y-78188731D01*
X203735135Y-78188732D01*
X203735138Y-78188734D01*
X203863989Y-78248818D01*
X203864581Y-78249094D01*
X203917020Y-78295266D01*
X203936172Y-78362460D01*
X203915956Y-78429341D01*
X203864581Y-78473858D01*
X203735390Y-78534101D01*
X203670611Y-78579458D01*
X204341354Y-79250200D01*
X204318640Y-79250200D01*
X204221739Y-79276164D01*
X204134860Y-79326324D01*
X204063924Y-79397260D01*
X204013764Y-79484139D01*
X203987800Y-79581040D01*
X203987800Y-79603753D01*
X203317058Y-78933011D01*
X203271701Y-78997790D01*
X203178379Y-79197920D01*
X203178375Y-79197929D01*
X203121226Y-79411213D01*
X203121224Y-79411223D01*
X203101979Y-79631199D01*
X203101979Y-79631200D01*
X203121224Y-79851176D01*
X203121226Y-79851186D01*
X203178375Y-80064470D01*
X203178380Y-80064484D01*
X203271698Y-80264605D01*
X203271701Y-80264611D01*
X203317058Y-80329387D01*
X203317058Y-80329388D01*
X203987800Y-79658646D01*
X203987800Y-79681360D01*
X204013764Y-79778261D01*
X204063924Y-79865140D01*
X204134860Y-79936076D01*
X204221739Y-79986236D01*
X204318640Y-80012200D01*
X204341353Y-80012200D01*
X203670610Y-80682940D01*
X203735390Y-80728299D01*
X203735392Y-80728300D01*
X203935515Y-80821619D01*
X203935529Y-80821624D01*
X204148813Y-80878773D01*
X204148823Y-80878775D01*
X204368799Y-80898021D01*
X204368801Y-80898021D01*
X204588776Y-80878775D01*
X204588786Y-80878773D01*
X204802070Y-80821624D01*
X204802084Y-80821619D01*
X205002207Y-80728300D01*
X205002217Y-80728294D01*
X205066988Y-80682941D01*
X204396248Y-80012200D01*
X204418960Y-80012200D01*
X204515861Y-79986236D01*
X204602740Y-79936076D01*
X204673676Y-79865140D01*
X204723836Y-79778261D01*
X204749800Y-79681360D01*
X204749800Y-79658647D01*
X205420541Y-80329388D01*
X205465894Y-80264617D01*
X205465900Y-80264607D01*
X205559219Y-80064484D01*
X205559224Y-80064470D01*
X205616373Y-79851186D01*
X205616375Y-79851176D01*
X205635621Y-79631200D01*
X205635621Y-79631199D01*
X205616375Y-79411223D01*
X205616373Y-79411213D01*
X205559224Y-79197929D01*
X205559220Y-79197920D01*
X205465896Y-78997786D01*
X205420541Y-78933011D01*
X205420540Y-78933010D01*
X204749800Y-79603751D01*
X204749800Y-79581040D01*
X204723836Y-79484139D01*
X204673676Y-79397260D01*
X204602740Y-79326324D01*
X204515861Y-79276164D01*
X204418960Y-79250200D01*
X204396247Y-79250200D01*
X205066988Y-78579458D01*
X205002211Y-78534101D01*
X205002205Y-78534098D01*
X204873019Y-78473858D01*
X204820579Y-78427686D01*
X204801427Y-78360493D01*
X204821643Y-78293611D01*
X204873019Y-78249094D01*
X204873611Y-78248818D01*
X205002462Y-78188734D01*
X205183420Y-78062026D01*
X205339626Y-77905820D01*
X205466334Y-77724862D01*
X205559694Y-77524650D01*
X205616870Y-77311268D01*
X205636123Y-77091200D01*
X205616870Y-76871132D01*
X205559694Y-76657750D01*
X205466334Y-76457539D01*
X205339626Y-76276580D01*
X205183420Y-76120374D01*
X205183416Y-76120371D01*
X205183415Y-76120370D01*
X205002466Y-75993668D01*
X205002458Y-75993664D01*
X204873611Y-75933582D01*
X204821171Y-75887410D01*
X204802019Y-75820217D01*
X204822235Y-75753335D01*
X204873611Y-75708818D01*
X204879602Y-75706024D01*
X205002462Y-75648734D01*
X205183420Y-75522026D01*
X205339626Y-75365820D01*
X205466334Y-75184862D01*
X205559694Y-74984650D01*
X205616870Y-74771268D01*
X205636123Y-74551200D01*
X205616870Y-74331132D01*
X205559694Y-74117750D01*
X205466334Y-73917539D01*
X205339626Y-73736580D01*
X205183420Y-73580374D01*
X205183416Y-73580371D01*
X205183415Y-73580370D01*
X205002466Y-73453668D01*
X205002458Y-73453664D01*
X204873611Y-73393582D01*
X204821171Y-73347410D01*
X204802019Y-73280217D01*
X204822235Y-73213335D01*
X204873611Y-73168818D01*
X204879602Y-73166024D01*
X205002462Y-73108734D01*
X205183420Y-72982026D01*
X205339626Y-72825820D01*
X205466334Y-72644862D01*
X205559694Y-72444650D01*
X205616870Y-72231268D01*
X205636123Y-72011200D01*
X205616870Y-71791132D01*
X205559694Y-71577750D01*
X205466334Y-71377539D01*
X205339626Y-71196580D01*
X205183420Y-71040374D01*
X205183416Y-71040371D01*
X205183415Y-71040370D01*
X205002466Y-70913668D01*
X205002462Y-70913666D01*
X205002458Y-70913664D01*
X204802250Y-70820306D01*
X204802247Y-70820305D01*
X204802245Y-70820304D01*
X204588870Y-70763130D01*
X204588862Y-70763129D01*
X204368802Y-70743877D01*
X204368798Y-70743877D01*
X204148737Y-70763129D01*
X204148729Y-70763130D01*
X203935354Y-70820304D01*
X203935348Y-70820307D01*
X203735140Y-70913665D01*
X203735138Y-70913666D01*
X203554177Y-71040375D01*
X203397975Y-71196577D01*
X203271266Y-71377538D01*
X203271265Y-71377540D01*
X203177907Y-71577748D01*
X203177904Y-71577754D01*
X203120730Y-71791129D01*
X203120729Y-71791137D01*
X203101477Y-72011197D01*
X200500500Y-72011197D01*
X200500500Y-69471197D01*
X218341477Y-69471197D01*
X218341477Y-69471202D01*
X218360729Y-69691262D01*
X218360730Y-69691270D01*
X218417904Y-69904645D01*
X218417905Y-69904647D01*
X218417906Y-69904650D01*
X218511266Y-70104862D01*
X218511268Y-70104866D01*
X218637970Y-70285815D01*
X218637975Y-70285821D01*
X218794178Y-70442024D01*
X218794184Y-70442029D01*
X218975133Y-70568731D01*
X218975135Y-70568732D01*
X218975138Y-70568734D01*
X219094548Y-70624415D01*
X219103989Y-70628818D01*
X219156428Y-70674990D01*
X219175580Y-70742184D01*
X219155364Y-70809065D01*
X219103989Y-70853582D01*
X218975140Y-70913665D01*
X218975138Y-70913666D01*
X218794177Y-71040375D01*
X218637975Y-71196577D01*
X218511266Y-71377538D01*
X218511265Y-71377540D01*
X218417907Y-71577748D01*
X218417904Y-71577754D01*
X218360730Y-71791129D01*
X218360729Y-71791137D01*
X218341477Y-72011197D01*
X218341477Y-72011202D01*
X218360729Y-72231262D01*
X218360730Y-72231270D01*
X218417904Y-72444645D01*
X218417905Y-72444647D01*
X218417906Y-72444650D01*
X218511266Y-72644862D01*
X218511268Y-72644866D01*
X218637970Y-72825815D01*
X218637975Y-72825821D01*
X218794178Y-72982024D01*
X218794184Y-72982029D01*
X218975133Y-73108731D01*
X218975135Y-73108732D01*
X218975138Y-73108734D01*
X219094548Y-73164415D01*
X219103989Y-73168818D01*
X219156428Y-73214990D01*
X219175580Y-73282184D01*
X219155364Y-73349065D01*
X219103989Y-73393582D01*
X218975140Y-73453665D01*
X218975138Y-73453666D01*
X218794177Y-73580375D01*
X218637975Y-73736577D01*
X218511266Y-73917538D01*
X218511265Y-73917540D01*
X218417907Y-74117748D01*
X218417904Y-74117754D01*
X218360730Y-74331129D01*
X218360729Y-74331137D01*
X218341477Y-74551197D01*
X218341477Y-74551202D01*
X218360729Y-74771262D01*
X218360730Y-74771270D01*
X218417904Y-74984645D01*
X218417905Y-74984647D01*
X218417906Y-74984650D01*
X218511266Y-75184862D01*
X218511268Y-75184866D01*
X218637970Y-75365815D01*
X218637975Y-75365821D01*
X218794178Y-75522024D01*
X218794184Y-75522029D01*
X218975133Y-75648731D01*
X218975135Y-75648732D01*
X218975138Y-75648734D01*
X219094548Y-75704415D01*
X219103989Y-75708818D01*
X219156428Y-75754990D01*
X219175580Y-75822184D01*
X219155364Y-75889065D01*
X219103989Y-75933582D01*
X218975140Y-75993665D01*
X218975138Y-75993666D01*
X218794177Y-76120375D01*
X218637975Y-76276577D01*
X218511266Y-76457538D01*
X218511265Y-76457540D01*
X218417907Y-76657748D01*
X218417904Y-76657754D01*
X218360730Y-76871129D01*
X218360729Y-76871137D01*
X218341477Y-77091197D01*
X218341477Y-77091202D01*
X218360729Y-77311262D01*
X218360730Y-77311270D01*
X218417904Y-77524645D01*
X218417905Y-77524647D01*
X218417906Y-77524650D01*
X218511266Y-77724862D01*
X218511268Y-77724866D01*
X218637970Y-77905815D01*
X218637975Y-77905821D01*
X218794178Y-78062024D01*
X218794184Y-78062029D01*
X218975133Y-78188731D01*
X218975135Y-78188732D01*
X218975138Y-78188734D01*
X219094548Y-78244415D01*
X219103989Y-78248818D01*
X219156428Y-78294990D01*
X219175580Y-78362184D01*
X219155364Y-78429065D01*
X219103989Y-78473582D01*
X218975140Y-78533665D01*
X218975138Y-78533666D01*
X218794177Y-78660375D01*
X218637975Y-78816577D01*
X218511266Y-78997538D01*
X218511265Y-78997540D01*
X218417907Y-79197748D01*
X218417904Y-79197754D01*
X218360730Y-79411129D01*
X218360729Y-79411137D01*
X218341477Y-79631197D01*
X218341477Y-79631202D01*
X218360729Y-79851262D01*
X218360730Y-79851270D01*
X218417904Y-80064645D01*
X218417905Y-80064647D01*
X218417906Y-80064650D01*
X218511146Y-80264605D01*
X218511266Y-80264862D01*
X218511268Y-80264866D01*
X218637970Y-80445815D01*
X218637975Y-80445821D01*
X218794178Y-80602024D01*
X218794184Y-80602029D01*
X218975133Y-80728731D01*
X218975135Y-80728732D01*
X218975138Y-80728734D01*
X219175350Y-80822094D01*
X219388732Y-80879270D01*
X219545923Y-80893022D01*
X219608798Y-80898523D01*
X219608800Y-80898523D01*
X219608802Y-80898523D01*
X219663817Y-80893709D01*
X219828868Y-80879270D01*
X220042250Y-80822094D01*
X220242462Y-80728734D01*
X220423420Y-80602026D01*
X220579626Y-80445820D01*
X220706334Y-80264862D01*
X220799694Y-80064650D01*
X220856870Y-79851268D01*
X220876123Y-79631200D01*
X220856870Y-79411132D01*
X220799694Y-79197750D01*
X220706334Y-78997539D01*
X220579626Y-78816580D01*
X220423420Y-78660374D01*
X220423416Y-78660371D01*
X220423415Y-78660370D01*
X220242466Y-78533668D01*
X220242458Y-78533664D01*
X220113611Y-78473582D01*
X220061171Y-78427410D01*
X220042019Y-78360217D01*
X220062235Y-78293335D01*
X220113611Y-78248818D01*
X220119602Y-78246024D01*
X220242462Y-78188734D01*
X220423420Y-78062026D01*
X220579626Y-77905820D01*
X220706334Y-77724862D01*
X220799694Y-77524650D01*
X220856870Y-77311268D01*
X220876123Y-77091200D01*
X220856870Y-76871132D01*
X220799694Y-76657750D01*
X220706334Y-76457539D01*
X220579626Y-76276580D01*
X220423420Y-76120374D01*
X220423416Y-76120371D01*
X220423415Y-76120370D01*
X220242466Y-75993668D01*
X220242458Y-75993664D01*
X220113611Y-75933582D01*
X220061171Y-75887410D01*
X220042019Y-75820217D01*
X220062235Y-75753335D01*
X220113611Y-75708818D01*
X220119602Y-75706024D01*
X220242462Y-75648734D01*
X220423420Y-75522026D01*
X220579626Y-75365820D01*
X220706334Y-75184862D01*
X220799694Y-74984650D01*
X220856870Y-74771268D01*
X220876123Y-74551200D01*
X220856870Y-74331132D01*
X220799694Y-74117750D01*
X220706334Y-73917539D01*
X220579626Y-73736580D01*
X220423420Y-73580374D01*
X220423416Y-73580371D01*
X220423415Y-73580370D01*
X220242466Y-73453668D01*
X220242458Y-73453664D01*
X220113611Y-73393582D01*
X220061171Y-73347410D01*
X220042019Y-73280217D01*
X220062235Y-73213335D01*
X220113611Y-73168818D01*
X220119602Y-73166024D01*
X220242462Y-73108734D01*
X220423420Y-72982026D01*
X220579626Y-72825820D01*
X220706334Y-72644862D01*
X220799694Y-72444650D01*
X220856870Y-72231268D01*
X220876123Y-72011200D01*
X220856870Y-71791132D01*
X220799694Y-71577750D01*
X220706334Y-71377539D01*
X220579626Y-71196580D01*
X220423420Y-71040374D01*
X220423416Y-71040371D01*
X220423415Y-71040370D01*
X220242466Y-70913668D01*
X220242458Y-70913664D01*
X220113611Y-70853582D01*
X220061171Y-70807410D01*
X220042019Y-70740217D01*
X220062235Y-70673335D01*
X220113611Y-70628818D01*
X220119602Y-70626024D01*
X220242462Y-70568734D01*
X220423420Y-70442026D01*
X220579626Y-70285820D01*
X220706334Y-70104862D01*
X220799694Y-69904650D01*
X220856870Y-69691268D01*
X220876123Y-69471200D01*
X220856870Y-69251132D01*
X220799694Y-69037750D01*
X220706334Y-68837539D01*
X220579626Y-68656580D01*
X220423420Y-68500374D01*
X220423416Y-68500371D01*
X220423415Y-68500370D01*
X220242466Y-68373668D01*
X220242462Y-68373666D01*
X220242460Y-68373665D01*
X220042250Y-68280306D01*
X220042247Y-68280305D01*
X220042245Y-68280304D01*
X219828870Y-68223130D01*
X219828862Y-68223129D01*
X219608802Y-68203877D01*
X219608798Y-68203877D01*
X219388737Y-68223129D01*
X219388729Y-68223130D01*
X219175354Y-68280304D01*
X219175348Y-68280307D01*
X218975140Y-68373665D01*
X218975138Y-68373666D01*
X218794177Y-68500375D01*
X218637975Y-68656577D01*
X218511266Y-68837538D01*
X218511265Y-68837540D01*
X218417907Y-69037748D01*
X218417904Y-69037754D01*
X218360730Y-69251129D01*
X218360729Y-69251137D01*
X218341477Y-69471197D01*
X200500500Y-69471197D01*
X200500500Y-62753750D01*
X200500726Y-62746263D01*
X200516448Y-62486339D01*
X200518253Y-62471475D01*
X200564515Y-62219026D01*
X200568095Y-62204505D01*
X200644451Y-61959471D01*
X200649753Y-61945489D01*
X200755095Y-61711430D01*
X200762040Y-61698197D01*
X200894826Y-61478542D01*
X200903313Y-61466246D01*
X201061608Y-61264198D01*
X201071523Y-61253007D01*
X201253007Y-61071523D01*
X201264198Y-61061608D01*
X201466246Y-60903313D01*
X201478542Y-60894826D01*
X201698197Y-60762040D01*
X201711430Y-60755095D01*
X201945489Y-60649753D01*
X201959471Y-60644451D01*
X202204505Y-60568095D01*
X202219026Y-60564515D01*
X202471476Y-60518252D01*
X202486335Y-60516448D01*
X202746264Y-60500726D01*
X202753751Y-60500500D01*
X202815892Y-60500500D01*
X221184108Y-60500500D01*
X221246249Y-60500500D01*
X221253736Y-60500726D01*
G37*
%TD.AperFunction*%
%TD*%
M02*
