M48
; DRILL file {KiCad 8.0.8} date 2025-02-13T09:34:33+0000
; FORMAT={-:-/ absolute / inch / decimal}
; #@! TF.CreationDate,2025-02-13T09:34:33+00:00
; #@! TF.GenerationSoftware,Kicad,Pcbnew,8.0.8
; #@! TF.FileFunction,Plated,1,2,PTH
FMAT,2
INCH
; #@! TA.AperFunction,Plated,PTH,ViaDrill
T1C0.0118
; #@! TA.AperFunction,Plated,PTH,ComponentDrill
T2C0.0300
; #@! TA.AperFunction,Plated,PTH,ComponentDrill
T3C0.0394
%
G90
G05
T1
X7.5551Y-4.0866
X7.7244Y-3.6811
X7.7362Y-3.4331
X7.7756Y-3.8661
X7.9449Y-2.4331
X7.9449Y-3.2283
X7.9567Y-4.0866
X8.0433Y-3.4331
X8.126Y-3.8701
X8.1693Y-3.8701
X8.2992Y-3.1535
X8.2992Y-3.2559
X8.2992Y-3.6772
X8.622Y-3.8701
X8.7008Y-4.0866
X8.7441Y-2.4331
X8.7441Y-3.2283
X8.9134Y-3.8661
X8.9567Y-3.4331
X8.9646Y-3.6811
X9.1378Y-4.0866
T2
X8.046Y-2.8351
X8.046Y-2.9351
X8.046Y-3.0351
X8.046Y-3.1351
X8.646Y-2.7351
X8.646Y-2.8351
X8.646Y-2.9351
X8.646Y-3.0351
X8.646Y-3.1351
T3
X8.2465Y-3.8764
X8.2465Y-3.9764
X8.3465Y-3.8764
X8.3465Y-3.9764
X8.4465Y-3.8764
X8.4465Y-3.9764
M30
